SemiItalic.ufo
<glyph name="exclam" format="1">
  <advance width="330"/>
  <unicode hex="0021"/>
  <outline>
    <contour>
      <point x="207" y="700" type="line"/>
      <point x="369" y="700" type="line"/>
      <point x="256" y="222" type="line"/>
      <point x="152" y="222" type="line"/>
    </contour>
    <contour>
      <point x="93" y="56" type="curve" smooth="yes"/>
      <point x="101" y="100"/>
      <point x="141" y="132"/>
      <point x="189" y="132" type="curve" smooth="yes"/>
      <point x="237" y="132"/>
      <point x="266" y="100"/>
      <point x="258" y="56" type="curve" smooth="yes"/>
      <point x="250" y="12"/>
      <point x="210" y="-22"/>
      <point x="162" y="-22" type="curve" smooth="yes"/>
      <point x="114" y="-22"/>
      <point x="85" y="12"/>
    </contour>
  </outline>
</glyph>
<glyph name="ampersand" format="1">
  <advance width="729"/>
  <unicode hex="0026"/>
  <outline>
    <contour>
      <point x="73" y="186" type="curve"/>
      <point x="211" y="197" type="line"/>
      <point x="201" y="141"/>
      <point x="239" y="99"/>
      <point x="311" y="99" type="curve" smooth="yes"/>
      <point x="429" y="99"/>
      <point x="559" y="208"/>
      <point x="665" y="334" type="curve"/>
      <point x="743" y="268" type="line"/>
      <point x="628" y="136"/>
      <point x="468" y="-12"/>
      <point x="276" y="-12" type="curve" smooth="yes"/>
      <point x="148" y="-12"/>
      <point x="51" y="62"/>
    </contour>
    <contour>
      <point x="221" y="548" type="line"/>
      <point x="237" y="638"/>
      <point x="328" y="716"/>
      <point x="452" y="716" type="curve" smooth="yes"/>
      <point x="574" y="716"/>
      <point x="630" y="634"/>
      <point x="615" y="550" type="curve"/>
      <point x="492" y="540" type="line"/>
      <point x="499" y="578"/>
      <point x="475" y="609"/>
      <point x="431" y="609" type="curve" smooth="yes"/>
      <point x="383" y="609"/>
      <point x="354" y="578"/>
      <point x="347" y="540" type="curve"/>
    </contour>
    <contour>
      <point x="289" y="376" type="line" smooth="yes"/>
      <point x="257" y="425"/>
      <point x="208" y="476"/>
      <point x="221" y="548" type="curve"/>
      <point x="347" y="540" type="line"/>
      <point x="340" y="498"/>
      <point x="377" y="465"/>
      <point x="414" y="408" type="curve" smooth="yes"/>
      <point x="712" y="0" type="line"/>
      <point x="561" y="0" type="line"/>
    </contour>
    <contour>
      <point x="615" y="550" type="line"/>
      <point x="600" y="466"/>
      <point x="533" y="420"/>
      <point x="415" y="352" type="curve" smooth="yes"/>
      <point x="335" y="307"/>
      <point x="226" y="283"/>
      <point x="211" y="197" type="curve"/>
      <point x="73" y="186" type="line"/>
      <point x="101" y="342"/>
      <point x="278" y="385"/>
      <point x="354" y="419" type="curve" smooth="yes"/>
      <point x="436" y="457"/>
      <point x="485" y="501"/>
      <point x="492" y="540" type="curve"/>
    </contour>
  </outline>
</glyph>
<glyph name="quotesingle" format="1">
  <advance width="299"/>
  <unicode hex="0027"/>
  <outline>
    <contour>
      <point x="235" y="700" type="line"/>
      <point x="377" y="700" type="line"/>
      <point x="220" y="386" type="line"/>
      <point x="134" y="386" type="line"/>
    </contour>
  </outline>
</glyph>
<glyph name="parenright" format="1">
  <advance width="331"/>
  <unicode hex="0029"/>
  <outline>
    <contour>
      <point x="103" y="-200" type="curve"/>
      <point x="-16" y="-200" type="line"/>
      <point x="80" y="-50"/>
      <point x="147" y="120"/>
      <point x="177" y="290" type="curve" smooth="yes"/>
      <point x="207" y="460"/>
      <point x="201" y="630"/>
      <point x="157" y="780" type="curve"/>
      <point x="276" y="780" type="line"/>
      <point x="330" y="630"/>
      <point x="338" y="460"/>
      <point x="308" y="290" type="curve" smooth="yes"/>
      <point x="278" y="120"/>
      <point x="209" y="-50"/>
    </contour>
  </outline>
</glyph>
<glyph name="asterisk" format="1">
  <advance width="592"/>
  <unicode hex="002A"/>
  <outline>
    <contour>
      <point x="596" y="602" type="line"/>
      <point x="613" y="490" type="line"/>
      <point x="385" y="444" type="line"/>
      <point x="375" y="509" type="line"/>
    </contour>
    <contour>
      <point x="534" y="331" type="line"/>
      <point x="425" y="262" type="line"/>
      <point x="349" y="456" type="line"/>
      <point x="410" y="496" type="line"/>
    </contour>
    <contour>
      <point x="259" y="262" type="line"/>
      <point x="174" y="331" type="line"/>
      <point x="356" y="496" type="line"/>
      <point x="403" y="456" type="line"/>
    </contour>
    <contour>
      <point x="151" y="490" type="line"/>
      <point x="208" y="602" type="line"/>
      <point x="397" y="509" type="line"/>
      <point x="363" y="444" type="line"/>
    </contour>
    <contour>
      <point x="359" y="700" type="line"/>
      <point x="479" y="700" type="line"/>
      <point x="414" y="476" type="line"/>
      <point x="346" y="476" type="line"/>
    </contour>
  </outline>
</glyph>
<glyph name="hyphen" format="1">
  <advance width="218"/>
  <unicode hex="002D"/>
  <outline>
    <contour>
      <point x="37" y="180" type="line"/>
      <point x="57" y="294" type="line"/>
      <point x="266" y="294" type="line"/>
      <point x="246" y="180" type="line"/>
    </contour>
  </outline>
</glyph>
<glyph name="period" format="1">
  <advance width="315"/>
  <unicode hex="002E"/>
  <outline>
    <contour>
      <point x="87" y="60" type="curve" smooth="yes"/>
      <point x="95" y="104"/>
      <point x="135" y="140"/>
      <point x="183" y="140" type="curve" smooth="yes"/>
      <point x="231" y="140"/>
      <point x="259" y="104"/>
      <point x="251" y="60" type="curve" smooth="yes"/>
      <point x="243" y="16"/>
      <point x="202" y="-22"/>
      <point x="154" y="-22" type="curve" smooth="yes"/>
      <point x="106" y="-22"/>
      <point x="79" y="16"/>
    </contour>
  </outline>
</glyph>
<glyph name="two" format="1">
  <advance width="630"/>
  <unicode hex="0032"/>
  <outline>
    <contour>
      <point x="20" y="0" type="line"/>
      <point x="397" y="332" type="line" smooth="yes"/>
      <point x="460" y="389"/>
      <point x="498" y="432"/>
      <point x="508" y="488" type="curve" smooth="yes"/>
      <point x="517" y="537"/>
      <point x="494" y="587"/>
      <point x="424" y="587" type="curve" smooth="yes"/>
      <point x="352" y="587"/>
      <point x="292" y="530"/>
      <point x="277" y="446" type="curve"/>
      <point x="135" y="446" type="line"/>
      <point x="161" y="595"/>
      <point x="278" y="713"/>
      <point x="449" y="713" type="curve" smooth="yes"/>
      <point x="617" y="713"/>
      <point x="678" y="596"/>
      <point x="659" y="491" type="curve" smooth="yes"/>
      <point x="646" y="417"/>
      <point x="592" y="355"/>
      <point x="525" y="302" type="curve" smooth="yes"/>
      <point x="315" y="132" type="line"/>
      <point x="607" y="132" type="line"/>
      <point x="584" y="0" type="line"/>
    </contour>
  </outline>
</glyph>
<glyph name="seven" format="1">
  <advance width="579"/>
  <unicode hex="0037"/>
  <outline>
    <contour>
      <point x="130" y="566" type="line"/>
      <point x="153" y="700" type="line"/>
      <point x="699" y="700" type="line"/>
      <point x="240" y="0" type="line"/>
      <point x="85" y="0" type="line"/>
      <point x="465" y="566" type="line"/>
    </contour>
  </outline>
</glyph>
<glyph name="eight" format="1">
  <advance width="602"/>
  <unicode hex="0038"/>
  <outline>
    <contour>
      <point x="172" y="531" type="curve" smooth="yes"/>
      <point x="192" y="643"/>
      <point x="304" y="714"/>
      <point x="428" y="714" type="curve" smooth="yes"/>
      <point x="552" y="714"/>
      <point x="639" y="643"/>
      <point x="619" y="531" type="curve" smooth="yes"/>
      <point x="597" y="409"/>
      <point x="478" y="346"/>
      <point x="363" y="346" type="curve" smooth="yes"/>
      <point x="248" y="346"/>
      <point x="150" y="409"/>
    </contour>
    <contour>
      <point x="305" y="516" type="curve" smooth="yes"/>
      <point x="296" y="464"/>
      <point x="328" y="428"/>
      <point x="377" y="428" type="curve" smooth="yes"/>
      <point x="426" y="428"/>
      <point x="472" y="464"/>
      <point x="481" y="516" type="curve" smooth="yes"/>
      <point x="490" y="568"/>
      <point x="461" y="606"/>
      <point x="409" y="606" type="curve" smooth="yes"/>
      <point x="357" y="606"/>
      <point x="314" y="568"/>
    </contour>
    <contour>
      <point x="87" y="190" type="curve" smooth="yes"/>
      <point x="112" y="332"/>
      <point x="256" y="394"/>
      <point x="371" y="394" type="curve" smooth="yes"/>
      <point x="486" y="394"/>
      <point x="609" y="332"/>
      <point x="584" y="190" type="curve" smooth="yes"/>
      <point x="562" y="68"/>
      <point x="434" y="-14"/>
      <point x="300" y="-14" type="curve" smooth="yes"/>
      <point x="166" y="-14"/>
      <point x="65" y="68"/>
    </contour>
    <contour>
      <point x="232" y="211" type="curve" smooth="yes"/>
      <point x="220" y="143"/>
      <point x="265" y="105"/>
      <point x="321" y="105" type="curve" smooth="yes"/>
      <point x="377" y="105"/>
      <point x="433" y="143"/>
      <point x="445" y="211" type="curve" smooth="yes"/>
      <point x="455" y="269"/>
      <point x="414" y="316"/>
      <point x="358" y="316" type="curve" smooth="yes"/>
      <point x="302" y="316"/>
      <point x="242" y="269"/>
    </contour>
  </outline>
</glyph>
<glyph name="less" format="1">
  <advance width="640"/>
  <unicode hex="003C"/>
  <outline>
    <contour>
      <point x="302" y="266" type="line"/>
      <point x="598" y="132" type="line"/>
      <point x="576" y="4" type="line"/>
      <point x="104" y="220" type="line"/>
      <point x="119" y="304" type="line"/>
      <point x="667" y="520" type="line"/>
      <point x="644" y="392" type="line"/>
    </contour>
  </outline>
</glyph>
<glyph name="B" format="1">
  <advance width="632"/>
  <unicode hex="0042"/>
  <outline>
    <contour>
      <point x="241" y="394" type="line"/>
      <point x="393" y="394" type="line" smooth="yes"/>
      <point x="528" y="394"/>
      <point x="645" y="338"/>
      <point x="621" y="200" type="curve" smooth="yes"/>
      <point x="596" y="61"/>
      <point x="481" y="0"/>
      <point x="324" y="0" type="curve" smooth="yes"/>
      <point x="172" y="0" type="line"/>
      <point x="192" y="115" type="line"/>
      <point x="332" y="115" type="line" smooth="yes"/>
      <point x="404" y="115"/>
      <point x="463" y="145"/>
      <point x="476" y="217" type="curve" smooth="yes"/>
      <point x="488" y="285"/>
      <point x="440" y="316"/>
      <point x="368" y="316" type="curve" smooth="yes"/>
      <point x="228" y="316" type="line"/>
    </contour>
    <contour>
      <point x="234" y="354" type="line"/>
      <point x="246" y="420" type="line"/>
      <point x="371" y="420" type="line" smooth="yes"/>
      <point x="433" y="420"/>
      <point x="478" y="452"/>
      <point x="487" y="504" type="curve" smooth="yes"/>
      <point x="496" y="556"/>
      <point x="462" y="585"/>
      <point x="400" y="585" type="curve" smooth="yes"/>
      <point x="275" y="585" type="line"/>
      <point x="295" y="700" type="line"/>
      <point x="433" y="700" type="line" smooth="yes"/>
      <point x="571" y="700"/>
      <point x="659" y="642"/>
      <point x="638" y="523" type="curve" smooth="yes"/>
      <point x="619" y="415"/>
      <point x="510" y="354"/>
      <point x="372" y="354" type="curve" smooth="yes"/>
    </contour>
    <contour>
      <point x="199" y="700" type="line"/>
      <point x="343" y="700" type="line"/>
      <point x="220" y="0" type="line"/>
      <point x="76" y="0" type="line"/>
    </contour>
  </outline>
</glyph>
<glyph name="F" format="1">
  <advance width="537"/>
  <unicode hex="0046"/>
  <outline>
    <contour>
      <point x="269" y="574" type="line"/>
      <point x="291" y="700" type="line"/>
      <point x="605" y="700" type="line"/>
      <point x="583" y="574" type="line"/>
    </contour>
    <contour>
      <point x="221" y="298" type="line"/>
      <point x="242" y="418" type="line"/>
      <point x="546" y="418" type="line"/>
      <point x="525" y="298" type="line"/>
    </contour>
    <contour>
      <point x="199" y="700" type="line"/>
      <point x="339" y="700" type="line"/>
      <point x="216" y="0" type="line"/>
      <point x="76" y="0" type="line"/>
    </contour>
  </outline>
</glyph>
<glyph name="I" format="1">
  <advance width="297"/>
  <unicode hex="0049"/>
  <outline>
    <contour>
      <point x="199" y="700" type="line"/>
      <point x="345" y="700" type="line"/>
      <point x="222" y="0" type="line"/>
      <point x="76" y="0" type="line"/>
    </contour>
  </outline>
</glyph>
<glyph name="K" format="1">
  <advance width="659"/>
  <unicode hex="004B"/>
  <outline>
    <contour>
      <point x="199" y="700" type="line"/>
      <point x="347" y="700" type="line"/>
      <point x="224" y="0" type="line"/>
      <point x="76" y="0" type="line"/>
    </contour>
    <contour>
      <point x="596" y="700" type="line"/>
      <point x="767" y="700" type="line"/>
      <point x="420" y="372" type="line"/>
      <point x="658" y="0" type="line"/>
      <point x="484" y="0" type="line"/>
      <point x="247" y="368" type="line"/>
    </contour>
  </outline>
</glyph>
<glyph name="M" format="1">
  <advance width="866"/>
  <unicode hex="004D"/>
  <outline>
    <contour>
      <point x="710" y="492" type="line"/>
      <point x="856" y="735" type="line"/>
      <point x="832" y="0" type="line"/>
      <point x="680" y="0" type="line"/>
    </contour>
    <contour>
      <point x="270" y="735" type="line"/>
      <point x="330" y="492" type="line"/>
      <point x="186" y="0" type="line"/>
      <point x="36" y="0" type="line"/>
    </contour>
    <contour>
      <point x="856" y="735" type="line"/>
      <point x="819" y="530" type="line"/>
      <point x="445" y="65" type="line"/>
      <point x="233" y="530" type="line"/>
      <point x="270" y="735" type="line"/>
      <point x="484" y="284" type="line"/>
    </contour>
  </outline>
</glyph>
<glyph name="N" format="1">
  <advance width="787"/>
  <unicode hex="004E"/>
  <outline>
    <contour>
      <point x="177" y="548" type="line"/>
      <point x="206" y="735" type="line"/>
      <point x="735" y="152" type="line"/>
      <point x="706" y="-35" type="line"/>
    </contour>
    <contour>
      <point x="696" y="700" type="line"/>
      <point x="835" y="700" type="line"/>
      <point x="706" y="-35" type="line"/>
      <point x="596" y="128" type="line"/>
    </contour>
    <contour>
      <point x="206" y="735" type="line"/>
      <point x="317" y="572" type="line"/>
      <point x="216" y="0" type="line"/>
      <point x="76" y="0" type="line"/>
    </contour>
  </outline>
</glyph>
<glyph name="P" format="1">
  <advance width="600"/>
  <unicode hex="0050"/>
  <outline>
    <contour>
      <point x="199" y="700" type="line"/>
      <point x="343" y="700" type="line"/>
      <point x="220" y="0" type="line"/>
      <point x="76" y="0" type="line"/>
    </contour>
    <contour>
      <point x="266" y="578" type="line"/>
      <point x="287" y="700" type="line"/>
      <point x="426" y="700" type="line" smooth="yes"/>
      <point x="591" y="700"/>
      <point x="672" y="614"/>
      <point x="648" y="476" type="curve" smooth="yes"/>
      <point x="624" y="338"/>
      <point x="513" y="254"/>
      <point x="348" y="254" type="curve" smooth="yes"/>
      <point x="209" y="254" type="line"/>
      <point x="230" y="376" type="line"/>
      <point x="369" y="376" type="line" smooth="yes"/>
      <point x="443" y="376"/>
      <point x="497" y="410"/>
      <point x="509" y="476" type="curve" smooth="yes"/>
      <point x="521" y="542"/>
      <point x="479" y="578"/>
      <point x="405" y="578" type="curve" smooth="yes"/>
    </contour>
  </outline>
</glyph>
<glyph name="Q" format="1">
  <advance width="841"/>
  <unicode hex="0051"/>
  <outline>
    <contour>
      <point x="250" y="350" type="curve" smooth="yes"/>
      <point x="225" y="208"/>
      <point x="309" y="112"/>
      <point x="437" y="112" type="curve" smooth="yes"/>
      <point x="565" y="112"/>
      <point x="672" y="202"/>
      <point x="696" y="336" type="curve" smooth="yes"/>
      <point x="720" y="470"/>
      <point x="650" y="580"/>
      <point x="510" y="580" type="curve" smooth="yes"/>
      <point x="382" y="580"/>
      <point x="274" y="484"/>
    </contour>
    <contour>
      <point x="98" y="350" type="curve" smooth="yes"/>
      <point x="135" y="562"/>
      <point x="323" y="714"/>
      <point x="534" y="714" type="curve" smooth="yes"/>
      <point x="746" y="714"/>
      <point x="875" y="562"/>
      <point x="838" y="350" type="curve" smooth="yes"/>
      <point x="801" y="138"/>
      <point x="620" y="-18"/>
      <point x="405" y="-18" type="curve" smooth="yes"/>
      <point x="190" y="-18"/>
      <point x="61" y="138"/>
    </contour>
    <contour>
      <point x="416" y="300" type="line"/>
      <point x="572" y="300" type="line"/>
      <point x="845" y="-8" type="line"/>
      <point x="684" y="-8" type="line"/>
    </contour>
  </outline>
</glyph>
<glyph name="V" format="1">
  <advance width="712"/>
  <unicode hex="0056"/>
  <outline>
    <contour>
      <point x="399" y="246" type="line"/>
      <point x="667" y="700" type="line"/>
      <point x="835" y="700" type="line"/>
      <point x="349" y="-42" type="line"/>
      <point x="123" y="700" type="line"/>
      <point x="291" y="700" type="line"/>
    </contour>
  </outline>
</glyph>
<glyph name="W" format="1">
  <advance width="1042"/>
  <unicode hex="0057"/>
  <outline>
    <contour>
      <point x="381" y="138" type="line"/>
      <point x="293" y="-40" type="line"/>
      <point x="129" y="700" type="line"/>
      <point x="298" y="700" type="line"/>
    </contour>
    <contour>
      <point x="735" y="-40" type="line"/>
      <point x="710" y="138" type="line"/>
      <point x="991" y="700" type="line"/>
      <point x="1159" y="700" type="line"/>
    </contour>
    <contour>
      <point x="293" y="-40" type="line"/>
      <point x="300" y="148" type="line"/>
      <point x="651" y="735" type="line"/>
      <point x="794" y="148" type="line"/>
      <point x="735" y="-40" type="line"/>
      <point x="595" y="419" type="line"/>
    </contour>
  </outline>
</glyph>
<glyph name="Z" format="1">
  <advance width="597"/>
  <unicode hex="005A"/>
  <outline>
    <contour>
      <point x="151" y="570" type="line"/>
      <point x="173" y="700" type="line"/>
      <point x="705" y="700" type="line"/>
      <point x="260" y="126" type="line"/>
      <point x="572" y="126" type="line"/>
      <point x="550" y="0" type="line"/>
      <point x="10" y="0" type="line"/>
      <point x="453" y="570" type="line"/>
    </contour>
  </outline>
</glyph>
<glyph name="bracketleft" format="1">
  <advance width="343"/>
  <unicode hex="005B"/>
  <outline>
    <contour>
      <point x="340" y="665" type="line"/>
      <point x="204" y="-105" type="line"/>
      <point x="305" y="-105" type="line"/>
      <point x="285" y="-220" type="line"/>
      <point x="54" y="-220" type="line"/>
      <point x="231" y="780" type="line"/>
      <point x="462" y="780" type="line"/>
      <point x="441" y="665" type="line"/>
    </contour>
  </outline>
</glyph>
<glyph name="bracketright" format="1">
  <advance width="343"/>
  <unicode hex="005D"/>
  <outline>
    <contour>
      <point x="102" y="-105" type="line"/>
      <point x="238" y="665" type="line"/>
      <point x="137" y="665" type="line"/>
      <point x="158" y="780" type="line"/>
      <point x="388" y="780" type="line"/>
      <point x="211" y="-220" type="line"/>
      <point x="-19" y="-220" type="line"/>
      <point x="1" y="-105" type="line"/>
    </contour>
  </outline>
</glyph>
<glyph name="underscore" format="1">
  <advance width="521"/>
  <unicode hex="005F"/>
  <outline>
    <contour>
      <point x="-26" y="-148" type="line"/>
      <point x="-11" y="-64" type="line"/>
      <point x="511" y="-64" type="line"/>
      <point x="496" y="-148" type="line"/>
    </contour>
  </outline>
</glyph>
<glyph name="grave" format="1">
  <advance width="375"/>
  <unicode hex="0060"/>
  <outline>
    <contour>
      <point x="176" y="656" type="line"/>
      <point x="288" y="704" type="line"/>
      <point x="410" y="544" type="line"/>
      <point x="329" y="506" type="line"/>
    </contour>
  </outline>
</glyph>
<glyph name="e" format="1">
  <advance width="550"/>
  <unicode hex="0065"/>
  <outline>
    <contour>
      <point x="132" y="202" type="line"/>
      <point x="146" y="284" type="line"/>
      <point x="546" y="284" type="line"/>
      <point x="548" y="202" type="line"/>
    </contour>
    <contour>
      <point x="433" y="246" type="line" smooth="yes"/>
      <point x="447" y="325"/>
      <point x="421" y="374"/>
      <point x="346" y="374" type="curve" smooth="yes"/>
      <point x="277" y="374"/>
      <point x="220" y="330"/>
      <point x="207" y="256" type="curve"/>
      <point x="201" y="230" type="line"/>
      <point x="185" y="138"/>
      <point x="234" y="92"/>
      <point x="308" y="92" type="curve" smooth="yes"/>
      <point x="361" y="92"/>
      <point x="396" y="114"/>
      <point x="425" y="155" type="curve"/>
      <point x="528" y="115" type="line"/>
      <point x="474" y="41"/>
      <point x="412" y="-10"/>
      <point x="284" y="-10" type="curve" smooth="yes"/>
      <point x="139" y="-10"/>
      <point x="52" y="91"/>
      <point x="77" y="230" type="curve" smooth="yes"/>
      <point x="80" y="247"/>
      <point x="83" y="264"/>
      <point x="89" y="280" type="curve" smooth="yes"/>
      <point x="128" y="393"/>
      <point x="234" y="470"/>
      <point x="365" y="470" type="curve" smooth="yes"/>
      <point x="501" y="470"/>
      <point x="582" y="381"/>
      <point x="556" y="236" type="curve" smooth="yes"/>
      <point x="555" y="228"/>
      <point x="552" y="216"/>
      <point x="548" y="202" type="curve"/>
      <point x="429" y="222" type="line"/>
    </contour>
  </outline>
</glyph>
<glyph name="i" format="1">
  <advance width="271"/>
  <unicode hex="0069"/>
  <outline>
    <contour>
      <point x="170" y="638" type="curve" smooth="yes"/>
      <point x="177" y="680"/>
      <point x="218" y="712"/>
      <point x="262" y="712" type="curve" smooth="yes"/>
      <point x="306" y="712"/>
      <point x="333" y="680"/>
      <point x="326" y="638" type="curve" smooth="yes"/>
      <point x="319" y="596"/>
      <point x="279" y="564"/>
      <point x="235" y="564" type="curve" smooth="yes"/>
      <point x="191" y="564"/>
      <point x="163" y="596"/>
    </contour>
    <contour>
      <point x="153" y="460" type="line"/>
      <point x="279" y="460" type="line"/>
      <point x="198" y="0" type="line"/>
      <point x="72" y="0" type="line"/>
    </contour>
  </outline>
</glyph>
<glyph name="j" format="1">
  <advance width="264"/>
  <unicode hex="006A"/>
  <outline>
    <contour>
      <point x="164" y="638" type="curve" smooth="yes"/>
      <point x="171" y="680"/>
      <point x="212" y="712"/>
      <point x="256" y="712" type="curve" smooth="yes"/>
      <point x="300" y="712"/>
      <point x="327" y="680"/>
      <point x="320" y="638" type="curve" smooth="yes"/>
      <point x="313" y="596"/>
      <point x="273" y="564"/>
      <point x="229" y="564" type="curve" smooth="yes"/>
      <point x="185" y="564"/>
      <point x="157" y="596"/>
    </contour>
    <contour>
      <point x="-45" y="-88" type="line"/>
      <point x="-35" y="-108"/>
      <point x="-20" y="-114"/>
      <point x="-2" y="-114" type="curve" smooth="yes"/>
      <point x="28" y="-114"/>
      <point x="50" y="-91"/>
      <point x="59" y="-39" type="curve" smooth="yes"/>
      <point x="147" y="460" type="line"/>
      <point x="274" y="460" type="line"/>
      <point x="181" y="-68" type="line" smooth="yes"/>
      <point x="163" y="-172"/>
      <point x="97" y="-234"/>
      <point x="-9" y="-234" type="curve" smooth="yes"/>
      <point x="-69" y="-234"/>
      <point x="-101" y="-206"/>
      <point x="-117" y="-186" type="curve"/>
    </contour>
  </outline>
</glyph>
<glyph name="p" format="1">
  <advance width="602"/>
  <unicode hex="0070"/>
  <outline>
    <contour>
      <point x="153" y="-220" type="line"/>
      <point x="23" y="-220" type="line"/>
      <point x="143" y="460" type="line"/>
      <point x="273" y="460" type="line"/>
    </contour>
    <contour>
      <point x="611" y="230" type="curve" smooth="yes"/>
      <point x="583" y="72"/>
      <point x="462" y="-14"/>
      <point x="346" y="-14" type="curve" smooth="yes"/>
      <point x="226" y="-14"/>
      <point x="171" y="81"/>
      <point x="197" y="230" type="curve" smooth="yes"/>
      <point x="223" y="379"/>
      <point x="312" y="474"/>
      <point x="432" y="474" type="curve" smooth="yes"/>
      <point x="548" y="474"/>
      <point x="639" y="388"/>
    </contour>
    <contour>
      <point x="475" y="230" type="curve" smooth="yes"/>
      <point x="489" y="312"/>
      <point x="441" y="358"/>
      <point x="373" y="358" type="curve" smooth="yes"/>
      <point x="317" y="358"/>
      <point x="248" y="314"/>
      <point x="233" y="230" type="curve" smooth="yes"/>
      <point x="218" y="146"/>
      <point x="272" y="102"/>
      <point x="328" y="102" type="curve" smooth="yes"/>
      <point x="396" y="102"/>
      <point x="461" y="148"/>
    </contour>
  </outline>
</glyph>
<glyph name="s" format="1">
  <advance width="436"/>
  <unicode hex="0073"/>
  <outline>
    <contour>
      <point x="115" y="170" type="line"/>
      <point x="161" y="122"/>
      <point x="209" y="88"/>
      <point x="246" y="88" type="curve" smooth="yes"/>
      <point x="280" y="88"/>
      <point x="301" y="100"/>
      <point x="306" y="126" type="curve" smooth="yes"/>
      <point x="312" y="160"/>
      <point x="267" y="178"/>
      <point x="219" y="198" type="curve" smooth="yes"/>
      <point x="159" y="222"/>
      <point x="99" y="256"/>
      <point x="114" y="342" type="curve" smooth="yes"/>
      <point x="127" y="418"/>
      <point x="210" y="470"/>
      <point x="300" y="470" type="curve" smooth="yes"/>
      <point x="377" y="470"/>
      <point x="439" y="438"/>
      <point x="471" y="394" type="curve"/>
      <point x="401" y="316" type="line"/>
      <point x="369" y="350"/>
      <point x="329" y="372"/>
      <point x="292" y="372" type="curve" smooth="yes"/>
      <point x="257" y="372"/>
      <point x="236" y="360"/>
      <point x="232" y="338" type="curve" smooth="yes"/>
      <point x="226" y="305"/>
      <point x="281" y="294"/>
      <point x="332" y="272" type="curve" smooth="yes"/>
      <point x="392" y="246"/>
      <point x="449" y="214"/>
      <point x="434" y="130" type="curve" smooth="yes"/>
      <point x="417" y="34"/>
      <point x="341" y="-16"/>
      <point x="237" y="-16" type="curve" smooth="yes"/>
      <point x="145" y="-16"/>
      <point x="74" y="29"/>
      <point x="37" y="92" type="curve"/>
    </contour>
  </outline>
</glyph>
<glyph name="t" format="1">
  <advance width="294"/>
  <unicode hex="0074"/>
  <outline>
    <contour>
      <point x="86" y="460" type="line"/>
      <point x="371" y="460" type="line"/>
      <point x="352" y="350" type="line"/>
      <point x="67" y="350" type="line"/>
    </contour>
    <contour>
      <point x="193" y="620" type="line"/>
      <point x="319" y="620" type="line"/>
      <point x="210" y="0" type="line"/>
      <point x="84" y="0" type="line"/>
    </contour>
  </outline>
</glyph>
<glyph name="w" format="1">
  <advance width="736"/>
  <unicode hex="0077"/>
  <outline>
    <contour>
      <point x="683" y="460" type="line"/>
      <point x="821" y="460" type="line"/>
      <point x="510" y="-30" type="line"/>
      <point x="507" y="152" type="line"/>
    </contour>
    <contour>
      <point x="392" y="322" type="line"/>
      <point x="452" y="495" type="line"/>
      <point x="555" y="143" type="line"/>
      <point x="510" y="-30" type="line"/>
    </contour>
    <contour>
      <point x="452" y="495" type="line"/>
      <point x="452" y="322" type="line"/>
      <point x="217" y="-30" type="line"/>
      <point x="232" y="143" type="line"/>
    </contour>
    <contour>
      <point x="77" y="460" type="line"/>
      <point x="216" y="460" type="line"/>
      <point x="284" y="152" type="line"/>
      <point x="217" y="-30" type="line"/>
    </contour>
  </outline>
</glyph>
<glyph name="x" format="1">
  <advance width="498"/>
  <unicode hex="0078"/>
  <outline>
    <contour>
      <point x="425" y="460" type="line"/>
      <point x="569" y="460" type="line"/>
      <point x="360" y="236" type="line"/>
      <point x="498" y="0" type="line"/>
      <point x="354" y="0" type="line"/>
      <point x="278" y="146" type="line"/>
      <point x="149" y="0" type="line"/>
      <point x="0" y="0" type="line"/>
      <point x="224" y="236" type="line"/>
      <point x="91" y="460" type="line"/>
      <point x="240" y="460" type="line"/>
      <point x="310" y="328" type="line"/>
    </contour>
  </outline>
</glyph>
<glyph name="z" format="1">
  <advance width="503"/>
  <unicode hex="007A"/>
  <outline>
    <contour>
      <point x="329" y="341" type="line"/>
      <point x="114" y="341" type="line"/>
      <point x="135" y="460" type="line"/>
      <point x="570" y="460" type="line"/>
      <point x="263" y="119" type="line"/>
      <point x="481" y="119" type="line"/>
      <point x="460" y="0" type="line"/>
      <point x="15" y="0" type="line"/>
    </contour>
  </outline>
</glyph>
<glyph name="braceleft" format="1">
  <advance width="372"/>
  <unicode hex="007B"/>
  <outline>
    <contour>
      <point x="350" y="625" type="curve" smooth="yes"/>
      <point x="326" y="490" type="line" smooth="yes"/>
      <point x="310" y="401"/>
      <point x="285" y="280"/>
      <point x="154" y="280" type="curve"/>
      <point x="158" y="300" type="line"/>
      <point x="289" y="300"/>
      <point x="272" y="179"/>
      <point x="256" y="90" type="curve" smooth="yes"/>
      <point x="232" y="-45" type="line" smooth="yes"/>
      <point x="227" y="-71"/>
      <point x="241" y="-95"/>
      <point x="271" y="-95" type="curve" smooth="yes"/>
      <point x="305" y="-95" type="line"/>
      <point x="287" y="-200" type="line"/>
      <point x="206" y="-200" type="line" smooth="yes"/>
      <point x="136" y="-200"/>
      <point x="70" y="-159"/>
      <point x="87" y="-60" type="curve" smooth="yes"/>
      <point x="121" y="132" type="line" smooth="yes"/>
      <point x="134" y="208"/>
      <point x="121" y="232"/>
      <point x="85" y="242" type="curve"/>
      <point x="102" y="338" type="line"/>
      <point x="142" y="348"/>
      <point x="164" y="372"/>
      <point x="177" y="448" type="curve" smooth="yes"/>
      <point x="211" y="640" type="line" smooth="yes"/>
      <point x="228" y="739"/>
      <point x="309" y="780"/>
      <point x="379" y="780" type="curve" smooth="yes"/>
      <point x="460" y="780" type="line"/>
      <point x="441" y="675" type="line"/>
      <point x="407" y="675" type="line" smooth="yes"/>
      <point x="377" y="675"/>
      <point x="355" y="651"/>
    </contour>
  </outline>
</glyph>
<glyph name="bar" format="1">
  <advance width="328"/>
  <unicode hex="007C"/>
  <outline>
    <contour>
      <point x="238" y="785" type="line"/>
      <point x="368" y="785" type="line"/>
      <point x="192" y="-215" type="line"/>
      <point x="62" y="-215" type="line"/>
    </contour>
  </outline>
</glyph>
<glyph name="asciitilde" format="1">
  <advance width="575"/>
  <unicode hex="007E"/>
  <outline>
    <contour>
      <point x="182" y="168" type="curve"/>
      <point x="76" y="172" type="line"/>
      <point x="75" y="179"/>
      <point x="76" y="187"/>
      <point x="78" y="196" type="curve" smooth="yes"/>
      <point x="83" y="226"/>
      <point x="96" y="256"/>
      <point x="123" y="284" type="curve" smooth="yes"/>
      <point x="155" y="318"/>
      <point x="194" y="340"/>
      <point x="254" y="340" type="curve" smooth="yes"/>
      <point x="298" y="340"/>
      <point x="329" y="324"/>
      <point x="369" y="292" type="curve" smooth="yes"/>
      <point x="395" y="270"/>
      <point x="417" y="258"/>
      <point x="435" y="258" type="curve" smooth="yes"/>
      <point x="459" y="258"/>
      <point x="474" y="275"/>
      <point x="478" y="300" type="curve" smooth="yes"/>
      <point x="480" y="310"/>
      <point x="480" y="322"/>
      <point x="478" y="332" type="curve"/>
      <point x="585" y="326" type="line"/>
      <point x="586" y="318"/>
      <point x="587" y="308"/>
      <point x="585" y="298" type="curve" smooth="yes"/>
      <point x="580" y="270"/>
      <point x="569" y="238"/>
      <point x="542" y="210" type="curve" smooth="yes"/>
      <point x="510" y="176"/>
      <point x="476" y="158"/>
      <point x="426" y="158" type="curve" smooth="yes"/>
      <point x="388" y="158"/>
      <point x="356" y="176"/>
      <point x="314" y="208" type="curve" smooth="yes"/>
      <point x="288" y="230"/>
      <point x="261" y="242"/>
      <point x="236" y="242" type="curve" smooth="yes"/>
      <point x="203" y="242"/>
      <point x="185" y="220"/>
      <point x="180" y="194" type="curve" smooth="yes"/>
      <point x="178" y="182"/>
      <point x="180" y="176"/>
    </contour>
  </outline>
</glyph>
<glyph name="exclamdown" format="1">
  <advance width="330"/>
  <unicode hex="00A1"/>
  <outline>
    <contour>
      <point x="205" y="-234" type="line"/>
      <point x="43" y="-234" type="line"/>
      <point x="156" y="244" type="line"/>
      <point x="260" y="244" type="line"/>
    </contour>
    <contour>
      <point x="320" y="410" type="curve" smooth="yes"/>
      <point x="312" y="366"/>
      <point x="273" y="334"/>
      <point x="225" y="334" type="curve" smooth="yes"/>
      <point x="177" y="334"/>
      <point x="147" y="366"/>
      <point x="155" y="410" type="curve" smooth="yes"/>
      <point x="163" y="454"/>
      <point x="204" y="488"/>
      <point x="252" y="488" type="curve" smooth="yes"/>
      <point x="300" y="488"/>
      <point x="328" y="454"/>
    </contour>
  </outline>
</glyph>
<glyph name="cent" format="1">
  <advance width="580"/>
  <unicode hex="00A2"/>
  <outline>
    <contour>
      <point x="256" y="38" type="line"/>
      <point x="353" y="38" type="line"/>
      <point x="332" y="-112" type="line"/>
      <point x="223" y="-112" type="line"/>
    </contour>
    <contour>
      <point x="233" y="230" type="curve" smooth="yes"/>
      <point x="219" y="148"/>
      <point x="271" y="96"/>
      <point x="343" y="96" type="curve" smooth="yes"/>
      <point x="409" y="96"/>
      <point x="465" y="131"/>
      <point x="498" y="171" type="curve"/>
      <point x="474" y="36" type="line"/>
      <point x="437" y="6"/>
      <point x="378" y="-10"/>
      <point x="315" y="-10" type="curve" smooth="yes"/>
      <point x="167" y="-10"/>
      <point x="75" y="86"/>
      <point x="100" y="230" type="curve" smooth="yes"/>
      <point x="125" y="374"/>
      <point x="252" y="470"/>
      <point x="400" y="470" type="curve" smooth="yes"/>
      <point x="463" y="470"/>
      <point x="516" y="452"/>
      <point x="543" y="424" type="curve"/>
      <point x="519" y="289" type="line"/>
      <point x="500" y="329"/>
      <point x="456" y="364"/>
      <point x="390" y="364" type="curve" smooth="yes"/>
      <point x="318" y="364"/>
      <point x="247" y="308"/>
    </contour>
    <contour>
      <point x="345" y="578" type="line"/>
      <point x="454" y="578" type="line"/>
      <point x="421" y="428" type="line"/>
      <point x="324" y="428" type="line"/>
    </contour>
  </outline>
</glyph>
<glyph name="section" format="1">
  <advance width="526"/>
  <unicode hex="00A7"/>
  <outline>
    <contour>
      <point x="471" y="558" type="line"/>
      <point x="451" y="590"/>
      <point x="407" y="609"/>
      <point x="375" y="609" type="curve" smooth="yes"/>
      <point x="339" y="609"/>
      <point x="317" y="597"/>
      <point x="313" y="575" type="curve" smooth="yes"/>
      <point x="308" y="546"/>
      <point x="357" y="533"/>
      <point x="407" y="515" type="curve" smooth="yes"/>
      <point x="476" y="491"/>
      <point x="529" y="448"/>
      <point x="516" y="376" type="curve" smooth="yes"/>
      <point x="498" y="274"/>
      <point x="397" y="232"/>
      <point x="291" y="232" type="curve"/>
      <point x="298" y="272" type="line"/>
      <point x="341" y="276"/>
      <point x="383" y="310"/>
      <point x="390" y="350" type="curve" smooth="yes"/>
      <point x="399" y="403"/>
      <point x="338" y="422"/>
      <point x="290" y="442" type="curve" smooth="yes"/>
      <point x="234" y="465"/>
      <point x="176" y="500"/>
      <point x="190" y="582" type="curve" smooth="yes"/>
      <point x="206" y="672"/>
      <point x="304" y="720"/>
      <point x="389" y="720" type="curve" smooth="yes"/>
      <point x="467" y="720"/>
      <point x="538" y="684"/>
      <point x="555" y="640" type="curve"/>
    </contour>
    <contour>
      <point x="148" y="170" type="line"/>
      <point x="177" y="118"/>
      <point x="231" y="91"/>
      <point x="275" y="91" type="curve" smooth="yes"/>
      <point x="317" y="91"/>
      <point x="340" y="106"/>
      <point x="345" y="132" type="curve" smooth="yes"/>
      <point x="351" y="168"/>
      <point x="308" y="182"/>
      <point x="257" y="200" type="curve" smooth="yes"/>
      <point x="189" y="222"/>
      <point x="122" y="265"/>
      <point x="136" y="342" type="curve" smooth="yes"/>
      <point x="152" y="432"/>
      <point x="252" y="480"/>
      <point x="366" y="480" type="curve"/>
      <point x="360" y="446" type="line"/>
      <point x="311" y="430"/>
      <point x="272" y="410"/>
      <point x="265" y="369" type="curve" smooth="yes"/>
      <point x="254" y="307"/>
      <point x="327" y="295"/>
      <point x="374" y="274" type="curve" smooth="yes"/>
      <point x="434" y="247"/>
      <point x="489" y="206"/>
      <point x="476" y="130" type="curve" smooth="yes"/>
      <point x="458" y="26"/>
      <point x="359" y="-18"/>
      <point x="260" y="-18" type="curve" smooth="yes"/>
      <point x="158" y="-18"/>
      <point x="89" y="28"/>
      <point x="64" y="90" type="curve"/>
    </contour>
  </outline>
</glyph>
<glyph name="guillemotleft" format="1">
  <advance width="531"/>
  <unicode hex="00AB"/>
  <outline>
    <contour>
      <point x="165" y="235" type="line"/>
      <point x="77" y="255" type="line"/>
      <point x="301" y="504" type="line"/>
      <point x="372" y="445" type="line"/>
    </contour>
    <contour>
      <point x="77" y="255" type="line"/>
      <point x="174" y="285" type="line"/>
      <point x="305" y="65" type="line"/>
      <point x="213" y="6" type="line"/>
    </contour>
    <contour>
      <point x="355" y="235" type="line"/>
      <point x="267" y="255" type="line"/>
      <point x="493" y="504" type="line"/>
      <point x="562" y="445" type="line"/>
    </contour>
    <contour>
      <point x="267" y="255" type="line"/>
      <point x="364" y="285" type="line"/>
      <point x="495" y="65" type="line"/>
      <point x="405" y="6" type="line"/>
    </contour>
  </outline>
</glyph>
<glyph name="registered" format="1">
  <advance width="800"/>
  <unicode hex="00AE"/>
  <outline>
    <contour>
      <point x="427" y="336" type="line"/>
      <point x="510" y="336" type="line"/>
      <point x="605" y="150" type="line"/>
      <point x="503" y="150" type="line"/>
    </contour>
    <contour>
      <point x="361" y="570" type="line"/>
      <point x="447" y="570" type="line"/>
      <point x="372" y="150" type="line"/>
      <point x="286" y="150" type="line"/>
    </contour>
    <contour>
      <point x="399" y="496" type="line"/>
      <point x="413" y="570" type="line"/>
      <point x="503" y="570" type="line" smooth="yes"/>
      <point x="603" y="570"/>
      <point x="649" y="515"/>
      <point x="636" y="440" type="curve" smooth="yes"/>
      <point x="622" y="361"/>
      <point x="556" y="307"/>
      <point x="456" y="307" type="curve" smooth="yes"/>
      <point x="366" y="307" type="line"/>
      <point x="378" y="375" type="line"/>
      <point x="462" y="375" type="line" smooth="yes"/>
      <point x="507" y="375"/>
      <point x="540" y="396"/>
      <point x="547" y="436" type="curve" smooth="yes"/>
      <point x="554" y="476"/>
      <point x="528" y="496"/>
      <point x="483" y="496" type="curve" smooth="yes"/>
    </contour>
    <contour>
      <point x="157" y="350" type="curve" smooth="yes"/>
      <point x="126" y="172"/>
      <point x="234" y="40"/>
      <point x="407" y="40" type="curve" smooth="yes"/>
      <point x="580" y="40"/>
      <point x="736" y="172"/>
      <point x="767" y="350" type="curve" smooth="yes"/>
      <point x="798" y="528"/>
      <point x="689" y="660"/>
      <point x="516" y="660" type="curve" smooth="yes"/>
      <point x="343" y="660"/>
      <point x="188" y="528"/>
    </contour>
    <contour>
      <point x="102" y="350" type="curve" smooth="yes"/>
      <point x="139" y="559"/>
      <point x="321" y="710"/>
      <point x="525" y="710" type="curve" smooth="yes"/>
      <point x="729" y="710"/>
      <point x="859" y="559"/>
      <point x="822" y="350" type="curve" smooth="yes"/>
      <point x="785" y="141"/>
      <point x="602" y="-10"/>
      <point x="398" y="-10" type="curve" smooth="yes"/>
      <point x="194" y="-10"/>
      <point x="65" y="141"/>
    </contour>
  </outline>
</glyph>
<glyph name="macron" format="1">
  <advance width="524"/>
  <unicode hex="00AF"/>
  <outline>
    <contour>
      <point x="182" y="580" type="line"/>
      <point x="202" y="694" type="line"/>
      <point x="568" y="694" type="line"/>
      <point x="548" y="580" type="line"/>
    </contour>
  </outline>
</glyph>
<glyph name="degree" format="1">
  <advance width="290"/>
  <unicode hex="00B0"/>
  <outline>
    <contour>
      <point x="123" y="598" type="curve" smooth="yes"/>
      <point x="136" y="670"/>
      <point x="198" y="720"/>
      <point x="272" y="720" type="curve" smooth="yes"/>
      <point x="346" y="720"/>
      <point x="392" y="670"/>
      <point x="379" y="598" type="curve" smooth="yes"/>
      <point x="366" y="526"/>
      <point x="303" y="476"/>
      <point x="229" y="476" type="curve" smooth="yes"/>
      <point x="155" y="476"/>
      <point x="110" y="526"/>
    </contour>
    <contour>
      <point x="187" y="598" type="curve" smooth="yes"/>
      <point x="180" y="558"/>
      <point x="203" y="532"/>
      <point x="239" y="532" type="curve" smooth="yes"/>
      <point x="275" y="532"/>
      <point x="307" y="558"/>
      <point x="314" y="598" type="curve" smooth="yes"/>
      <point x="321" y="638"/>
      <point x="298" y="664"/>
      <point x="262" y="664" type="curve" smooth="yes"/>
      <point x="226" y="664"/>
      <point x="194" y="638"/>
    </contour>
  </outline>
</glyph>
<glyph name="plusminus" format="1">
  <advance width="627"/>
  <unicode hex="00B1"/>
  <outline>
    <contour>
      <point x="66" y="4" type="line"/>
      <point x="86" y="119" type="line"/>
      <point x="585" y="119" type="line"/>
      <point x="565" y="4" type="line"/>
    </contour>
    <contour>
      <point x="124" y="336" type="line"/>
      <point x="145" y="455" type="line"/>
      <point x="644" y="455" type="line"/>
      <point x="623" y="336" type="line"/>
    </contour>
    <contour>
      <point x="357" y="620" type="line"/>
      <point x="490" y="620" type="line"/>
      <point x="411" y="172" type="line"/>
      <point x="278" y="172" type="line"/>
    </contour>
  </outline>
</glyph>
<glyph name="uni00B3" format="1">
  <advance width="349"/>
  <unicode hex="00B3"/>
  <outline>
    <contour>
      <point x="236" y="485" type="curve"/>
      <point x="243" y="526" type="line"/>
      <point x="291" y="526"/>
      <point x="328" y="555"/>
      <point x="334" y="588" type="curve" smooth="yes"/>
      <point x="339" y="618"/>
      <point x="325" y="637"/>
      <point x="290" y="637" type="curve" smooth="yes"/>
      <point x="256" y="637"/>
      <point x="227" y="614"/>
      <point x="221" y="582" type="curve"/>
      <point x="141" y="582" type="line"/>
      <point x="154" y="654"/>
      <point x="219" y="708"/>
      <point x="303" y="708" type="curve" smooth="yes"/>
      <point x="391" y="708"/>
      <point x="431" y="654"/>
      <point x="420" y="592" type="curve" smooth="yes"/>
      <point x="408" y="524"/>
      <point x="330" y="485"/>
    </contour>
    <contour>
      <point x="222" y="271" type="curve" smooth="yes"/>
      <point x="126" y="271"/>
      <point x="79" y="335"/>
      <point x="92" y="407" type="curve"/>
      <point x="178" y="407" type="line"/>
      <point x="171" y="365"/>
      <point x="197" y="343"/>
      <point x="236" y="343" type="curve" smooth="yes"/>
      <point x="275" y="343"/>
      <point x="306" y="363"/>
      <point x="313" y="402" type="curve" smooth="yes"/>
      <point x="320" y="442"/>
      <point x="292" y="467"/>
      <point x="232" y="467" type="curve"/>
      <point x="240" y="513" type="line"/>
      <point x="342" y="513"/>
      <point x="412" y="477"/>
      <point x="397" y="393" type="curve" smooth="yes"/>
      <point x="384" y="321"/>
      <point x="316" y="271"/>
    </contour>
  </outline>
</glyph>
<glyph name="acute" format="1">
  <advance width="375"/>
  <unicode hex="00B4"/>
  <outline>
    <contour>
      <point x="430" y="656" type="line"/>
      <point x="223" y="506" type="line"/>
      <point x="156" y="544" type="line"/>
      <point x="334" y="704" type="line"/>
    </contour>
  </outline>
</glyph>
<glyph name="cedilla" format="1">
  <advance width="380"/>
  <unicode hex="00B8"/>
  <outline>
    <contour>
      <point x="200" y="68" type="line"/>
      <point x="295" y="66" type="line"/>
      <point x="176" y="-72" type="line"/>
      <point x="79" y="-119" type="line"/>
    </contour>
    <contour>
      <point x="293" y="-142" type="curve"/>
      <point x="208" y="-136" type="line"/>
      <point x="213" y="-110"/>
      <point x="189" y="-102"/>
      <point x="157" y="-102" type="curve" smooth="yes"/>
      <point x="147" y="-102"/>
      <point x="114" y="-103"/>
      <point x="79" y="-119" type="curve"/>
      <point x="145" y="-76" type="line"/>
      <point x="175" y="-54"/>
      <point x="197" y="-52"/>
      <point x="223" y="-52" type="curve" smooth="yes"/>
      <point x="261" y="-52"/>
      <point x="304" y="-81"/>
    </contour>
    <contour>
      <point x="293" y="-142" type="line"/>
      <point x="281" y="-211"/>
      <point x="210" y="-246"/>
      <point x="150" y="-246" type="curve" smooth="yes"/>
      <point x="100" y="-246"/>
      <point x="67" y="-237"/>
      <point x="30" y="-207" type="curve"/>
      <point x="82" y="-148" type="line"/>
      <point x="103" y="-166"/>
      <point x="127" y="-172"/>
      <point x="149" y="-172" type="curve" smooth="yes"/>
      <point x="183" y="-172"/>
      <point x="204" y="-160"/>
      <point x="208" y="-136" type="curve"/>
    </contour>
  </outline>
</glyph>
<glyph name="guillemotright" format="1">
  <advance width="531"/>
  <unicode hex="00BB"/>
  <outline>
    <contour>
      <point x="456" y="275" type="line"/>
      <point x="546" y="255" type="line"/>
      <point x="320" y="6" type="line"/>
      <point x="249" y="65" type="line"/>
    </contour>
    <contour>
      <point x="546" y="255" type="line"/>
      <point x="448" y="225" type="line"/>
      <point x="316" y="445" type="line"/>
      <point x="408" y="504" type="line"/>
    </contour>
    <contour>
      <point x="266" y="275" type="line"/>
      <point x="355" y="255" type="line"/>
      <point x="129" y="6" type="line"/>
      <point x="59" y="65" type="line"/>
    </contour>
    <contour>
      <point x="355" y="255" type="line"/>
      <point x="258" y="225" type="line"/>
      <point x="126" y="445" type="line"/>
      <point x="217" y="504" type="line"/>
    </contour>
  </outline>
</glyph>
<glyph name="onequarter" format="1">
  <advance width="801"/>
  <unicode hex="00BC"/>
  <outline>
    <contour>
      <point x="749" y="700" type="line"/>
      <point x="836" y="700" type="line"/>
      <point x="193" y="0" type="line"/>
      <point x="106" y="0" type="line"/>
    </contour>
    <contour>
      <point x="129" y="584" type="line"/>
      <point x="143" y="662" type="line"/>
      <point x="334" y="702" type="line"/>
      <point x="258" y="274" type="line"/>
      <point x="174" y="274" type="line"/>
      <point x="234" y="610" type="line"/>
    </contour>
    <contour>
      <point x="418" y="77" type="line"/>
      <point x="500" y="142" type="line"/>
      <point x="685" y="142" type="line" smooth="yes"/>
      <point x="697" y="152" type="line" smooth="yes"/>
      <point x="797" y="152" type="line"/>
      <point x="784" y="77" type="line"/>
    </contour>
    <contour>
      <point x="509" y="98" type="line"/>
      <point x="418" y="77" type="line"/>
      <point x="719" y="420" type="line"/>
      <point x="778" y="420" type="line"/>
      <point x="704" y="0" type="line"/>
      <point x="615" y="0" type="line"/>
      <point x="632" y="99" type="line" smooth="yes"/>
      <point x="642" y="105" type="line" smooth="yes"/>
      <point x="673" y="284" type="line"/>
    </contour>
  </outline>
</glyph>
<glyph name="onehalf" format="1">
  <advance width="871"/>
  <unicode hex="00BD"/>
  <outline>
    <contour>
      <point x="749" y="700" type="line"/>
      <point x="836" y="700" type="line"/>
      <point x="193" y="0" type="line"/>
      <point x="106" y="0" type="line"/>
    </contour>
    <contour>
      <point x="129" y="584" type="line"/>
      <point x="143" y="662" type="line"/>
      <point x="334" y="702" type="line"/>
      <point x="258" y="274" type="line"/>
      <point x="174" y="274" type="line"/>
      <point x="234" y="610" type="line"/>
    </contour>
    <contour>
      <point x="502" y="2" type="line"/>
      <point x="728" y="202" type="line" smooth="yes"/>
      <point x="766" y="236"/>
      <point x="790" y="261"/>
      <point x="796" y="295" type="curve" smooth="yes"/>
      <point x="801" y="325"/>
      <point x="787" y="355"/>
      <point x="745" y="355" type="curve" smooth="yes"/>
      <point x="701" y="355"/>
      <point x="665" y="320"/>
      <point x="656" y="270" type="curve"/>
      <point x="571" y="270" type="line"/>
      <point x="587" y="359"/>
      <point x="657" y="430"/>
      <point x="760" y="430" type="curve" smooth="yes"/>
      <point x="860" y="430"/>
      <point x="895" y="360"/>
      <point x="884" y="297" type="curve" smooth="yes"/>
      <point x="876" y="253"/>
      <point x="846" y="215"/>
      <point x="805" y="183" type="curve" smooth="yes"/>
      <point x="679" y="82" type="line"/>
      <point x="854" y="82" type="line"/>
      <point x="840" y="2" type="line"/>
    </contour>
  </outline>
</glyph>
<glyph name="threequarters" format="1">
  <advance width="861"/>
  <unicode hex="00BE"/>
  <outline>
    <contour>
      <point x="815" y="700" type="line"/>
      <point x="901" y="700" type="line"/>
      <point x="258" y="0" type="line"/>
      <point x="172" y="0" type="line"/>
    </contour>
    <contour>
      <point x="243" y="485" type="curve"/>
      <point x="250" y="526" type="line"/>
      <point x="298" y="526"/>
      <point x="335" y="555"/>
      <point x="341" y="588" type="curve" smooth="yes"/>
      <point x="346" y="618"/>
      <point x="331" y="637"/>
      <point x="296" y="637" type="curve" smooth="yes"/>
      <point x="262" y="637"/>
      <point x="235" y="614"/>
      <point x="229" y="582" type="curve"/>
      <point x="148" y="582" type="line"/>
      <point x="161" y="654"/>
      <point x="225" y="708"/>
      <point x="309" y="708" type="curve" smooth="yes"/>
      <point x="397" y="708"/>
      <point x="438" y="654"/>
      <point x="427" y="592" type="curve" smooth="yes"/>
      <point x="415" y="524"/>
      <point x="337" y="485"/>
    </contour>
    <contour>
      <point x="229" y="271" type="curve" smooth="yes"/>
      <point x="133" y="271"/>
      <point x="86" y="335"/>
      <point x="99" y="407" type="curve"/>
      <point x="185" y="407" type="line"/>
      <point x="178" y="365"/>
      <point x="205" y="343"/>
      <point x="244" y="343" type="curve" smooth="yes"/>
      <point x="283" y="343"/>
      <point x="313" y="363"/>
      <point x="320" y="402" type="curve" smooth="yes"/>
      <point x="327" y="442"/>
      <point x="299" y="467"/>
      <point x="239" y="467" type="curve"/>
      <point x="247" y="513" type="line"/>
      <point x="349" y="513"/>
      <point x="419" y="477"/>
      <point x="404" y="393" type="curve" smooth="yes"/>
      <point x="391" y="321"/>
      <point x="323" y="271"/>
    </contour>
    <contour>
      <point x="478" y="77" type="line"/>
      <point x="561" y="142" type="line"/>
      <point x="745" y="142" type="line" smooth="yes"/>
      <point x="757" y="152" type="line" smooth="yes"/>
      <point x="857" y="152" type="line"/>
      <point x="844" y="77" type="line"/>
    </contour>
    <contour>
      <point x="569" y="98" type="line"/>
      <point x="478" y="77" type="line"/>
      <point x="779" y="420" type="line"/>
      <point x="838" y="420" type="line"/>
      <point x="764" y="0" type="line"/>
      <point x="675" y="0" type="line"/>
      <point x="692" y="99" type="line" smooth="yes"/>
      <point x="703" y="105" type="line" smooth="yes"/>
      <point x="734" y="284" type="line"/>
    </contour>
  </outline>
</glyph>
<glyph name="Agrave" format="1">
  <advance width="712"/>
  <unicode hex="00C0"/>
  <outline>
    <contour>
      <point x="201" y="158" type="line"/>
      <point x="238" y="272" type="line"/>
      <point x="575" y="272" type="line"/>
      <point x="571" y="158" type="line"/>
    </contour>
    <contour>
      <point x="439" y="472" type="line"/>
      <point x="293" y="231" type="line"/>
      <point x="290" y="199" type="line"/>
      <point x="163" y="0" type="line"/>
      <point x="0" y="0" type="line"/>
      <point x="487" y="742" type="line"/>
      <point x="712" y="0" type="line"/>
      <point x="549" y="0" type="line"/>
      <point x="494" y="192" type="line"/>
      <point x="501" y="229" type="line"/>
    </contour>
    <contour>
      <point x="372" y="952" type="line"/>
      <point x="484" y="1000" type="line"/>
      <point x="606" y="840" type="line"/>
      <point x="525" y="802" type="line"/>
    </contour>
  </outline>
</glyph>
<glyph name="Acircumflex" format="1">
  <advance width="712"/>
  <unicode hex="00C2"/>
  <outline>
    <contour>
      <point x="201" y="158" type="line"/>
      <point x="238" y="272" type="line"/>
      <point x="575" y="272" type="line"/>
      <point x="571" y="158" type="line"/>
    </contour>
    <contour>
      <point x="439" y="472" type="line"/>
      <point x="293" y="231" type="line"/>
      <point x="290" y="199" type="line"/>
      <point x="163" y="0" type="line"/>
      <point x="0" y="0" type="line"/>
      <point x="487" y="742" type="line"/>
      <point x="712" y="0" type="line"/>
      <point x="549" y="0" type="line"/>
      <point x="494" y="192" type="line"/>
      <point x="501" y="229" type="line"/>
    </contour>
    <contour>
      <point x="509" y="868" type="line"/>
      <point x="397" y="780" type="line"/>
      <point x="318" y="840" type="line"/>
      <point x="529" y="980" type="line"/>
      <point x="690" y="840" type="line"/>
      <point x="592" y="780" type="line"/>
    </contour>
  </outline>
</glyph>
<glyph name="Atilde" format="1">
  <advance width="712"/>
  <unicode hex="00C3"/>
  <outline>
    <contour>
      <point x="201" y="158" type="line"/>
      <point x="238" y="272" type="line"/>
      <point x="575" y="272" type="line"/>
      <point x="571" y="158" type="line"/>
    </contour>
    <contour>
      <point x="439" y="472" type="line"/>
      <point x="293" y="231" type="line"/>
      <point x="290" y="199" type="line"/>
      <point x="163" y="0" type="line"/>
      <point x="0" y="0" type="line"/>
      <point x="487" y="742" type="line"/>
      <point x="712" y="0" type="line"/>
      <point x="549" y="0" type="line"/>
      <point x="494" y="192" type="line"/>
      <point x="501" y="229" type="line"/>
    </contour>
    <contour>
      <point x="319" y="847" type="line"/>
      <point x="338" y="896"/>
      <point x="391" y="938"/>
      <point x="449" y="938" type="curve" smooth="yes"/>
      <point x="515" y="938"/>
      <point x="519" y="888"/>
      <point x="575" y="888" type="curve" smooth="yes"/>
      <point x="599" y="888"/>
      <point x="619" y="907"/>
      <point x="645" y="939" type="curve"/>
      <point x="697" y="874" type="line"/>
      <point x="674" y="837"/>
      <point x="616" y="792"/>
      <point x="558" y="792" type="curve" smooth="yes"/>
      <point x="503" y="792"/>
      <point x="481" y="844"/>
      <point x="433" y="844" type="curve" smooth="yes"/>
      <point x="394" y="844"/>
      <point x="379" y="807"/>
      <point x="376" y="792" type="curve"/>
    </contour>
  </outline>
</glyph>
<glyph name="Adieresis" format="1">
  <advance width="712"/>
  <unicode hex="00C4"/>
  <outline>
    <contour>
      <point x="201" y="158" type="line"/>
      <point x="238" y="272" type="line"/>
      <point x="575" y="272" type="line"/>
      <point x="571" y="158" type="line"/>
    </contour>
    <contour>
      <point x="439" y="472" type="line"/>
      <point x="293" y="231" type="line"/>
      <point x="290" y="199" type="line"/>
      <point x="163" y="0" type="line"/>
      <point x="0" y="0" type="line"/>
      <point x="487" y="742" type="line"/>
      <point x="712" y="0" type="line"/>
      <point x="549" y="0" type="line"/>
      <point x="494" y="192" type="line"/>
      <point x="501" y="229" type="line"/>
    </contour>
    <contour>
      <point x="557" y="838" type="curve" smooth="yes"/>
      <point x="565" y="881"/>
      <point x="605" y="914"/>
      <point x="649" y="914" type="curve" smooth="yes"/>
      <point x="693" y="914"/>
      <point x="724" y="881"/>
      <point x="716" y="838" type="curve" smooth="yes"/>
      <point x="708" y="795"/>
      <point x="666" y="762"/>
      <point x="622" y="762" type="curve" smooth="yes"/>
      <point x="578" y="762"/>
      <point x="549" y="795"/>
    </contour>
    <contour>
      <point x="294" y="838" type="curve" smooth="yes"/>
      <point x="302" y="881"/>
      <point x="342" y="914"/>
      <point x="386" y="914" type="curve" smooth="yes"/>
      <point x="430" y="914"/>
      <point x="460" y="881"/>
      <point x="452" y="838" type="curve" smooth="yes"/>
      <point x="444" y="795"/>
      <point x="403" y="762"/>
      <point x="359" y="762" type="curve" smooth="yes"/>
      <point x="315" y="762"/>
      <point x="286" y="795"/>
    </contour>
  </outline>
</glyph>
<glyph name="AE" format="1">
  <advance width="1047"/>
  <unicode hex="00C6"/>
  <outline>
    <contour>
      <point x="284" y="168" type="line"/>
      <point x="311" y="301" type="line"/>
      <point x="611" y="301" type="line"/>
      <point x="588" y="168" type="line"/>
    </contour>
    <contour>
      <point x="560" y="700" type="line"/>
      <point x="688" y="660" type="line"/>
      <point x="190" y="0" type="line"/>
      <point x="12" y="0" type="line"/>
    </contour>
    <contour>
      <point x="602" y="0" type="line"/>
      <point x="624" y="122" type="line"/>
      <point x="1000" y="122" type="line"/>
      <point x="978" y="0" type="line"/>
    </contour>
    <contour>
      <point x="712" y="578" type="line"/>
      <point x="560" y="700" type="line"/>
      <point x="1101" y="700" type="line"/>
      <point x="1080" y="578" type="line"/>
    </contour>
    <contour>
      <point x="657" y="312" type="line"/>
      <point x="678" y="431" type="line"/>
      <point x="1034" y="431" type="line"/>
      <point x="1013" y="312" type="line"/>
    </contour>
    <contour>
      <point x="655" y="700" type="line"/>
      <point x="808" y="700" type="line"/>
      <point x="685" y="0" type="line"/>
      <point x="532" y="0" type="line"/>
    </contour>
  </outline>
</glyph>
<glyph name="Ccedilla" format="1">
  <advance width="695"/>
  <unicode hex="00C7"/>
  <outline>
    <contour>
      <point x="254" y="350" type="curve" smooth="yes"/>
      <point x="230" y="212"/>
      <point x="318" y="124"/>
      <point x="438" y="124" type="curve" smooth="yes"/>
      <point x="537" y="124"/>
      <point x="612" y="166"/>
      <point x="669" y="220" type="curve"/>
      <point x="640" y="58" type="line"/>
      <point x="575" y="12"/>
      <point x="510" y="-14"/>
      <point x="408" y="-14" type="curve" smooth="yes"/>
      <point x="192" y="-14"/>
      <point x="60" y="134"/>
      <point x="98" y="350" type="curve" smooth="yes"/>
      <point x="136" y="566"/>
      <point x="320" y="714"/>
      <point x="536" y="714" type="curve" smooth="yes"/>
      <point x="638" y="714"/>
      <point x="694" y="688"/>
      <point x="743" y="642" type="curve"/>
      <point x="715" y="480" type="line"/>
      <point x="678" y="534"/>
      <point x="617" y="576"/>
      <point x="518" y="576" type="curve" smooth="yes"/>
      <point x="398" y="576"/>
      <point x="278" y="488"/>
    </contour>
    <contour>
      <point x="386" y="59" type="line"/>
      <point x="482" y="56" type="line"/>
      <point x="364" y="-80" type="line"/>
      <point x="267" y="-127" type="line"/>
    </contour>
    <contour>
      <point x="480" y="-150" type="curve"/>
      <point x="397" y="-144" type="line"/>
      <point x="402" y="-118"/>
      <point x="377" y="-110"/>
      <point x="345" y="-110" type="curve" smooth="yes"/>
      <point x="335" y="-110"/>
      <point x="302" y="-111"/>
      <point x="267" y="-127" type="curve"/>
      <point x="331" y="-84" type="line"/>
      <point x="361" y="-62"/>
      <point x="383" y="-60"/>
      <point x="409" y="-60" type="curve" smooth="yes"/>
      <point x="447" y="-60"/>
      <point x="491" y="-89"/>
    </contour>
    <contour>
      <point x="480" y="-150" type="line"/>
      <point x="468" y="-219"/>
      <point x="397" y="-254"/>
      <point x="337" y="-254" type="curve" smooth="yes"/>
      <point x="287" y="-254"/>
      <point x="253" y="-246"/>
      <point x="216" y="-216" type="curve"/>
      <point x="268" y="-156" type="line"/>
      <point x="289" y="-174"/>
      <point x="314" y="-181"/>
      <point x="336" y="-181" type="curve" smooth="yes"/>
      <point x="370" y="-181"/>
      <point x="393" y="-168"/>
      <point x="397" y="-144" type="curve"/>
    </contour>
  </outline>
</glyph>
<glyph name="Eacute" format="1">
  <advance width="587"/>
  <unicode hex="00C9"/>
  <outline>
    <contour>
      <point x="168" y="0" type="line"/>
      <point x="190" y="122" type="line"/>
      <point x="544" y="122" type="line"/>
      <point x="522" y="0" type="line"/>
    </contour>
    <contour>
      <point x="270" y="578" type="line"/>
      <point x="291" y="700" type="line"/>
      <point x="645" y="700" type="line"/>
      <point x="624" y="578" type="line"/>
    </contour>
    <contour>
      <point x="223" y="312" type="line"/>
      <point x="244" y="431" type="line"/>
      <point x="578" y="431" type="line"/>
      <point x="557" y="312" type="line"/>
    </contour>
    <contour>
      <point x="199" y="700" type="line"/>
      <point x="339" y="700" type="line"/>
      <point x="216" y="0" type="line"/>
      <point x="76" y="0" type="line"/>
    </contour>
    <contour>
      <point x="612" y="928" type="line"/>
      <point x="405" y="778" type="line"/>
      <point x="340" y="818" type="line"/>
      <point x="518" y="978" type="line"/>
    </contour>
  </outline>
</glyph>
<glyph name="Edieresis" format="1">
  <advance width="587"/>
  <unicode hex="00CB"/>
  <outline>
    <contour>
      <point x="168" y="0" type="line"/>
      <point x="190" y="122" type="line"/>
      <point x="544" y="122" type="line"/>
      <point x="522" y="0" type="line"/>
    </contour>
    <contour>
      <point x="270" y="578" type="line"/>
      <point x="291" y="700" type="line"/>
      <point x="645" y="700" type="line"/>
      <point x="624" y="578" type="line"/>
    </contour>
    <contour>
      <point x="223" y="312" type="line"/>
      <point x="244" y="431" type="line"/>
      <point x="578" y="431" type="line"/>
      <point x="557" y="312" type="line"/>
    </contour>
    <contour>
      <point x="199" y="700" type="line"/>
      <point x="339" y="700" type="line"/>
      <point x="216" y="0" type="line"/>
      <point x="76" y="0" type="line"/>
    </contour>
    <contour>
      <point x="489" y="858" type="curve" smooth="yes"/>
      <point x="497" y="901"/>
      <point x="539" y="934"/>
      <point x="583" y="934" type="curve" smooth="yes"/>
      <point x="627" y="934"/>
      <point x="657" y="901"/>
      <point x="649" y="858" type="curve" smooth="yes"/>
      <point x="641" y="815"/>
      <point x="600" y="782"/>
      <point x="556" y="782" type="curve" smooth="yes"/>
      <point x="512" y="782"/>
      <point x="481" y="815"/>
    </contour>
    <contour>
      <point x="259" y="858" type="curve" smooth="yes"/>
      <point x="267" y="901"/>
      <point x="309" y="934"/>
      <point x="353" y="934" type="curve" smooth="yes"/>
      <point x="397" y="934"/>
      <point x="425" y="901"/>
      <point x="417" y="858" type="curve" smooth="yes"/>
      <point x="409" y="815"/>
      <point x="370" y="782"/>
      <point x="326" y="782" type="curve" smooth="yes"/>
      <point x="282" y="782"/>
      <point x="251" y="815"/>
    </contour>
  </outline>
</glyph>
<glyph name="Iacute" format="1">
  <advance width="297"/>
  <unicode hex="00CD"/>
  <outline>
    <contour>
      <point x="199" y="700" type="line"/>
      <point x="345" y="700" type="line"/>
      <point x="222" y="0" type="line"/>
      <point x="76" y="0" type="line"/>
    </contour>
    <contour>
      <point x="458" y="928" type="line"/>
      <point x="251" y="778" type="line"/>
      <point x="186" y="818" type="line"/>
      <point x="364" y="978" type="line"/>
    </contour>
  </outline>
</glyph>
<glyph name="Icircumflex" format="1">
  <advance width="297"/>
  <unicode hex="00CE"/>
  <outline>
    <contour>
      <point x="199" y="700" type="line"/>
      <point x="345" y="700" type="line"/>
      <point x="222" y="0" type="line"/>
      <point x="76" y="0" type="line"/>
    </contour>
    <contour>
      <point x="299" y="878" type="line"/>
      <point x="172" y="784" type="line"/>
      <point x="129" y="824" type="line"/>
      <point x="314" y="964" type="line"/>
      <point x="449" y="824" type="line"/>
      <point x="392" y="784" type="line"/>
    </contour>
  </outline>
</glyph>
<glyph name="Idieresis" format="1">
  <advance width="297"/>
  <unicode hex="00CF"/>
  <outline>
    <contour>
      <point x="199" y="700" type="line"/>
      <point x="345" y="700" type="line"/>
      <point x="222" y="0" type="line"/>
      <point x="76" y="0" type="line"/>
    </contour>
    <contour>
      <point x="335" y="850" type="curve" smooth="yes"/>
      <point x="343" y="893"/>
      <point x="383" y="926"/>
      <point x="427" y="926" type="curve" smooth="yes"/>
      <point x="471" y="926"/>
      <point x="502" y="893"/>
      <point x="494" y="850" type="curve" smooth="yes"/>
      <point x="486" y="807"/>
      <point x="444" y="774"/>
      <point x="400" y="774" type="curve" smooth="yes"/>
      <point x="356" y="774"/>
      <point x="327" y="807"/>
    </contour>
    <contour>
      <point x="104" y="850" type="curve" smooth="yes"/>
      <point x="112" y="893"/>
      <point x="152" y="926"/>
      <point x="196" y="926" type="curve" smooth="yes"/>
      <point x="240" y="926"/>
      <point x="271" y="893"/>
      <point x="263" y="850" type="curve" smooth="yes"/>
      <point x="255" y="807"/>
      <point x="213" y="774"/>
      <point x="169" y="774" type="curve" smooth="yes"/>
      <point x="125" y="774"/>
      <point x="96" y="807"/>
    </contour>
  </outline>
</glyph>
<glyph name="Ntilde" format="1">
  <advance width="787"/>
  <unicode hex="00D1"/>
  <outline>
    <contour>
      <point x="177" y="548" type="line"/>
      <point x="206" y="735" type="line"/>
      <point x="735" y="152" type="line"/>
      <point x="706" y="-35" type="line"/>
    </contour>
    <contour>
      <point x="696" y="700" type="line"/>
      <point x="835" y="700" type="line"/>
      <point x="706" y="-35" type="line"/>
      <point x="596" y="128" type="line"/>
    </contour>
    <contour>
      <point x="206" y="735" type="line"/>
      <point x="317" y="572" type="line"/>
      <point x="216" y="0" type="line"/>
      <point x="76" y="0" type="line"/>
    </contour>
    <contour>
      <point x="371" y="826" type="line"/>
      <point x="390" y="875"/>
      <point x="444" y="908"/>
      <point x="489" y="908" type="curve" smooth="yes"/>
      <point x="554" y="908"/>
      <point x="551" y="860"/>
      <point x="605" y="860" type="curve" smooth="yes"/>
      <point x="624" y="860"/>
      <point x="643" y="876"/>
      <point x="669" y="908" type="curve"/>
      <point x="708" y="866" type="line"/>
      <point x="685" y="829"/>
      <point x="639" y="792"/>
      <point x="589" y="792" type="curve" smooth="yes"/>
      <point x="534" y="792"/>
      <point x="521" y="840"/>
      <point x="476" y="840" type="curve" smooth="yes"/>
      <point x="435" y="840"/>
      <point x="420" y="803"/>
      <point x="417" y="788" type="curve"/>
    </contour>
  </outline>
</glyph>
<glyph name="Ocircumflex" format="1">
  <advance width="811"/>
  <unicode hex="00D4"/>
  <outline>
    <contour>
      <point x="250" y="350" type="curve" smooth="yes"/>
      <point x="226" y="216"/>
      <point x="299" y="120"/>
      <point x="427" y="120" type="curve" smooth="yes"/>
      <point x="555" y="120"/>
      <point x="662" y="216"/>
      <point x="686" y="350" type="curve" smooth="yes"/>
      <point x="710" y="484"/>
      <point x="639" y="580"/>
      <point x="508" y="580" type="curve" smooth="yes"/>
      <point x="380" y="580"/>
      <point x="274" y="484"/>
    </contour>
    <contour>
      <point x="98" y="350" type="curve" smooth="yes"/>
      <point x="135" y="562"/>
      <point x="321" y="714"/>
      <point x="532" y="714" type="curve" smooth="yes"/>
      <point x="744" y="714"/>
      <point x="875" y="562"/>
      <point x="838" y="350" type="curve" smooth="yes"/>
      <point x="801" y="138"/>
      <point x="618" y="-18"/>
      <point x="403" y="-18" type="curve" smooth="yes"/>
      <point x="188" y="-18"/>
      <point x="61" y="138"/>
    </contour>
    <contour>
      <point x="567" y="878" type="line"/>
      <point x="440" y="784" type="line"/>
      <point x="397" y="824" type="line"/>
      <point x="582" y="964" type="line"/>
      <point x="717" y="824" type="line"/>
      <point x="660" y="784" type="line"/>
    </contour>
  </outline>
</glyph>
<glyph name="Odieresis" format="1">
  <advance width="811"/>
  <unicode hex="00D6"/>
  <outline>
    <contour>
      <point x="250" y="350" type="curve" smooth="yes"/>
      <point x="226" y="216"/>
      <point x="299" y="120"/>
      <point x="427" y="120" type="curve" smooth="yes"/>
      <point x="555" y="120"/>
      <point x="662" y="216"/>
      <point x="686" y="350" type="curve" smooth="yes"/>
      <point x="710" y="484"/>
      <point x="639" y="580"/>
      <point x="508" y="580" type="curve" smooth="yes"/>
      <point x="380" y="580"/>
      <point x="274" y="484"/>
    </contour>
    <contour>
      <point x="98" y="350" type="curve" smooth="yes"/>
      <point x="135" y="562"/>
      <point x="321" y="714"/>
      <point x="532" y="714" type="curve" smooth="yes"/>
      <point x="744" y="714"/>
      <point x="875" y="562"/>
      <point x="838" y="350" type="curve" smooth="yes"/>
      <point x="801" y="138"/>
      <point x="618" y="-18"/>
      <point x="403" y="-18" type="curve" smooth="yes"/>
      <point x="188" y="-18"/>
      <point x="61" y="138"/>
    </contour>
    <contour>
      <point x="592" y="840" type="curve" smooth="yes"/>
      <point x="600" y="883"/>
      <point x="641" y="916"/>
      <point x="685" y="916" type="curve" smooth="yes"/>
      <point x="729" y="916"/>
      <point x="758" y="883"/>
      <point x="750" y="840" type="curve" smooth="yes"/>
      <point x="742" y="797"/>
      <point x="702" y="764"/>
      <point x="658" y="764" type="curve" smooth="yes"/>
      <point x="614" y="764"/>
      <point x="584" y="797"/>
    </contour>
    <contour>
      <point x="361" y="840" type="curve" smooth="yes"/>
      <point x="369" y="883"/>
      <point x="410" y="916"/>
      <point x="454" y="916" type="curve" smooth="yes"/>
      <point x="498" y="916"/>
      <point x="528" y="883"/>
      <point x="520" y="840" type="curve" smooth="yes"/>
      <point x="512" y="797"/>
      <point x="471" y="764"/>
      <point x="427" y="764" type="curve" smooth="yes"/>
      <point x="383" y="764"/>
      <point x="353" y="797"/>
    </contour>
  </outline>
</glyph>
<glyph name="Ucircumflex" format="1">
  <advance width="678"/>
  <unicode hex="00DB"/>
  <outline>
    <contour>
      <point x="193" y="700" type="line"/>
      <point x="337" y="700" type="line"/>
      <point x="256" y="238" type="line" smooth="yes"/>
      <point x="242" y="160"/>
      <point x="276" y="107"/>
      <point x="358" y="107" type="curve" smooth="yes"/>
      <point x="440" y="107"/>
      <point x="492" y="160"/>
      <point x="506" y="238" type="curve" smooth="yes"/>
      <point x="587" y="700" type="line"/>
      <point x="731" y="700" type="line"/>
      <point x="649" y="230" type="line" smooth="yes"/>
      <point x="620" y="65"/>
      <point x="489" y="-24"/>
      <point x="335" y="-24" type="curve" smooth="yes"/>
      <point x="181" y="-24"/>
      <point x="82" y="65"/>
      <point x="111" y="230" type="curve" smooth="yes"/>
    </contour>
    <contour>
      <point x="491" y="863" type="line"/>
      <point x="379" y="774" type="line"/>
      <point x="300" y="836" type="line"/>
      <point x="511" y="976" type="line"/>
      <point x="673" y="836" type="line"/>
      <point x="572" y="774" type="line"/>
    </contour>
  </outline>
</glyph>
<glyph name="Udieresis" format="1">
  <advance width="678"/>
  <unicode hex="00DC"/>
  <outline>
    <contour>
      <point x="193" y="700" type="line"/>
      <point x="337" y="700" type="line"/>
      <point x="256" y="238" type="line" smooth="yes"/>
      <point x="242" y="160"/>
      <point x="276" y="107"/>
      <point x="358" y="107" type="curve" smooth="yes"/>
      <point x="440" y="107"/>
      <point x="492" y="160"/>
      <point x="506" y="238" type="curve" smooth="yes"/>
      <point x="587" y="700" type="line"/>
      <point x="731" y="700" type="line"/>
      <point x="649" y="230" type="line" smooth="yes"/>
      <point x="620" y="65"/>
      <point x="489" y="-24"/>
      <point x="335" y="-24" type="curve" smooth="yes"/>
      <point x="181" y="-24"/>
      <point x="82" y="65"/>
      <point x="111" y="230" type="curve" smooth="yes"/>
    </contour>
    <contour>
      <point x="538" y="850" type="curve" smooth="yes"/>
      <point x="546" y="893"/>
      <point x="586" y="926"/>
      <point x="630" y="926" type="curve" smooth="yes"/>
      <point x="674" y="926"/>
      <point x="704" y="893"/>
      <point x="696" y="850" type="curve" smooth="yes"/>
      <point x="688" y="807"/>
      <point x="647" y="774"/>
      <point x="603" y="774" type="curve" smooth="yes"/>
      <point x="559" y="774"/>
      <point x="530" y="807"/>
    </contour>
    <contour>
      <point x="282" y="850" type="curve" smooth="yes"/>
      <point x="290" y="893"/>
      <point x="330" y="926"/>
      <point x="374" y="926" type="curve" smooth="yes"/>
      <point x="418" y="926"/>
      <point x="448" y="893"/>
      <point x="440" y="850" type="curve" smooth="yes"/>
      <point x="432" y="807"/>
      <point x="391" y="774"/>
      <point x="347" y="774" type="curve" smooth="yes"/>
      <point x="303" y="774"/>
      <point x="274" y="807"/>
    </contour>
  </outline>
</glyph>
<glyph name="Yacute" format="1">
  <advance width="630"/>
  <unicode hex="00DD"/>
  <outline>
    <contour>
      <point x="305" y="360" type="line"/>
      <point x="451" y="360" type="line"/>
      <point x="388" y="0" type="line"/>
      <point x="242" y="0" type="line"/>
    </contour>
    <contour>
      <point x="587" y="700" type="line"/>
      <point x="753" y="700" type="line"/>
      <point x="344" y="166" type="line"/>
      <point x="123" y="700" type="line"/>
      <point x="289" y="700" type="line"/>
      <point x="389" y="418" type="line"/>
    </contour>
    <contour>
      <point x="629" y="924" type="line"/>
      <point x="422" y="774" type="line"/>
      <point x="358" y="814" type="line"/>
      <point x="536" y="974" type="line"/>
    </contour>
  </outline>
</glyph>
<glyph name="atilde" format="1">
  <advance width="602"/>
  <unicode hex="00E3"/>
  <outline>
    <contour>
      <point x="494" y="460" type="line"/>
      <point x="623" y="460" type="line"/>
      <point x="542" y="0" type="line"/>
      <point x="413" y="0" type="line"/>
    </contour>
    <contour>
      <point x="74" y="230" type="curve" smooth="yes"/>
      <point x="101" y="384"/>
      <point x="221" y="470"/>
      <point x="337" y="470" type="curve" smooth="yes"/>
      <point x="452" y="470"/>
      <point x="519" y="379"/>
      <point x="493" y="230" type="curve" smooth="yes"/>
      <point x="467" y="81"/>
      <point x="367" y="-10"/>
      <point x="252" y="-10" type="curve" smooth="yes"/>
      <point x="136" y="-10"/>
      <point x="47" y="76"/>
    </contour>
    <contour>
      <point x="209" y="230" type="curve" smooth="yes"/>
      <point x="195" y="148"/>
      <point x="241" y="98"/>
      <point x="309" y="98" type="curve" smooth="yes"/>
      <point x="365" y="98"/>
      <point x="438" y="146"/>
      <point x="453" y="230" type="curve" smooth="yes"/>
      <point x="468" y="314"/>
      <point x="412" y="362"/>
      <point x="356" y="362" type="curve" smooth="yes"/>
      <point x="288" y="362"/>
      <point x="223" y="312"/>
    </contour>
    <contour>
      <point x="225" y="586" type="line"/>
      <point x="244" y="635"/>
      <point x="297" y="677"/>
      <point x="355" y="677" type="curve" smooth="yes"/>
      <point x="421" y="677"/>
      <point x="423" y="626"/>
      <point x="479" y="626" type="curve" smooth="yes"/>
      <point x="503" y="626"/>
      <point x="526" y="646"/>
      <point x="552" y="678" type="curve"/>
      <point x="604" y="612" type="line"/>
      <point x="581" y="575"/>
      <point x="522" y="531"/>
      <point x="464" y="531" type="curve" smooth="yes"/>
      <point x="409" y="531"/>
      <point x="387" y="582"/>
      <point x="339" y="582" type="curve" smooth="yes"/>
      <point x="300" y="582"/>
      <point x="284" y="547"/>
      <point x="281" y="532" type="curve"/>
    </contour>
  </outline>
</glyph>
<glyph name="aring" format="1">
  <advance width="602"/>
  <unicode hex="00E5"/>
  <outline>
    <contour>
      <point x="494" y="460" type="line"/>
      <point x="623" y="460" type="line"/>
      <point x="542" y="0" type="line"/>
      <point x="413" y="0" type="line"/>
    </contour>
    <contour>
      <point x="74" y="230" type="curve" smooth="yes"/>
      <point x="101" y="384"/>
      <point x="221" y="470"/>
      <point x="337" y="470" type="curve" smooth="yes"/>
      <point x="452" y="470"/>
      <point x="519" y="379"/>
      <point x="493" y="230" type="curve" smooth="yes"/>
      <point x="467" y="81"/>
      <point x="367" y="-10"/>
      <point x="252" y="-10" type="curve" smooth="yes"/>
      <point x="136" y="-10"/>
      <point x="47" y="76"/>
    </contour>
    <contour>
      <point x="209" y="230" type="curve" smooth="yes"/>
      <point x="195" y="148"/>
      <point x="241" y="98"/>
      <point x="309" y="98" type="curve" smooth="yes"/>
      <point x="365" y="98"/>
      <point x="438" y="146"/>
      <point x="453" y="230" type="curve" smooth="yes"/>
      <point x="468" y="314"/>
      <point x="412" y="362"/>
      <point x="356" y="362" type="curve" smooth="yes"/>
      <point x="288" y="362"/>
      <point x="223" y="312"/>
    </contour>
    <contour>
      <point x="304" y="641" type="curve" smooth="yes"/>
      <point x="316" y="707"/>
      <point x="378" y="752"/>
      <point x="442" y="752" type="curve" smooth="yes"/>
      <point x="506" y="752"/>
      <point x="552" y="707"/>
      <point x="540" y="641" type="curve" smooth="yes"/>
      <point x="528" y="575"/>
      <point x="466" y="530"/>
      <point x="402" y="530" type="curve" smooth="yes"/>
      <point x="338" y="530"/>
      <point x="292" y="575"/>
    </contour>
    <contour>
      <point x="375" y="641" type="curve" smooth="yes"/>
      <point x="370" y="610"/>
      <point x="388" y="592"/>
      <point x="413" y="592" type="curve" smooth="yes"/>
      <point x="438" y="592"/>
      <point x="464" y="610"/>
      <point x="469" y="641" type="curve" smooth="yes"/>
      <point x="474" y="672"/>
      <point x="456" y="690"/>
      <point x="431" y="690" type="curve" smooth="yes"/>
      <point x="406" y="690"/>
      <point x="380" y="672"/>
    </contour>
  </outline>
</glyph>
<glyph name="ccedilla" format="1">
  <advance width="488"/>
  <unicode hex="00E7"/>
  <outline>
    <contour>
      <point x="205" y="230" type="curve" smooth="yes"/>
      <point x="191" y="150"/>
      <point x="239" y="96"/>
      <point x="313" y="96" type="curve" smooth="yes"/>
      <point x="373" y="96"/>
      <point x="435" y="126"/>
      <point x="469" y="170" type="curve"/>
      <point x="446" y="37" type="line"/>
      <point x="409" y="7"/>
      <point x="354" y="-10"/>
      <point x="286" y="-10" type="curve" smooth="yes"/>
      <point x="138" y="-10"/>
      <point x="46" y="86"/>
      <point x="71" y="230" type="curve" smooth="yes"/>
      <point x="96" y="374"/>
      <point x="223" y="470"/>
      <point x="371" y="470" type="curve" smooth="yes"/>
      <point x="439" y="470"/>
      <point x="487" y="450"/>
      <point x="514" y="424" type="curve"/>
      <point x="490" y="290" type="line"/>
      <point x="472" y="334"/>
      <point x="416" y="364"/>
      <point x="360" y="364" type="curve" smooth="yes"/>
      <point x="286" y="364"/>
      <point x="218" y="306"/>
    </contour>
    <contour>
      <point x="258" y="76" type="line"/>
      <point x="353" y="74" type="line"/>
      <point x="237" y="-62" type="line"/>
      <point x="139" y="-110" type="line"/>
    </contour>
    <contour>
      <point x="352" y="-132" type="curve"/>
      <point x="268" y="-127" type="line"/>
      <point x="273" y="-101"/>
      <point x="248" y="-94"/>
      <point x="216" y="-94" type="curve" smooth="yes"/>
      <point x="206" y="-94"/>
      <point x="174" y="-94"/>
      <point x="139" y="-110" type="curve"/>
      <point x="203" y="-68" type="line"/>
      <point x="233" y="-46"/>
      <point x="257" y="-42"/>
      <point x="283" y="-42" type="curve" smooth="yes"/>
      <point x="321" y="-42"/>
      <point x="363" y="-71"/>
    </contour>
    <contour>
      <point x="352" y="-132" type="line"/>
      <point x="340" y="-201"/>
      <point x="270" y="-238"/>
      <point x="210" y="-238" type="curve" smooth="yes"/>
      <point x="160" y="-238"/>
      <point x="126" y="-228"/>
      <point x="89" y="-198" type="curve"/>
      <point x="142" y="-138" type="line"/>
      <point x="163" y="-156"/>
      <point x="187" y="-164"/>
      <point x="209" y="-164" type="curve" smooth="yes"/>
      <point x="243" y="-164"/>
      <point x="264" y="-151"/>
      <point x="268" y="-127" type="curve"/>
    </contour>
  </outline>
</glyph>
<glyph name="eacute" format="1">
  <advance width="555"/>
  <unicode hex="00E9"/>
  <outline>
    <contour>
      <point x="132" y="202" type="line"/>
      <point x="146" y="281" type="line"/>
      <point x="553" y="281" type="line"/>
      <point x="556" y="202" type="line"/>
    </contour>
    <contour>
      <point x="427" y="246" type="line" smooth="yes"/>
      <point x="441" y="328"/>
      <point x="419" y="378"/>
      <point x="347" y="378" type="curve" smooth="yes"/>
      <point x="281" y="378"/>
      <point x="225" y="334"/>
      <point x="211" y="256" type="curve"/>
      <point x="205" y="230" type="line"/>
      <point x="188" y="132"/>
      <point x="230" y="90"/>
      <point x="298" y="90" type="curve" smooth="yes"/>
      <point x="356" y="90"/>
      <point x="402" y="113"/>
      <point x="433" y="155" type="curve"/>
      <point x="541" y="120" type="line"/>
      <point x="481" y="42"/>
      <point x="408" y="-10"/>
      <point x="280" y="-10" type="curve" smooth="yes"/>
      <point x="125" y="-10"/>
      <point x="49" y="91"/>
      <point x="74" y="230" type="curve" smooth="yes"/>
      <point x="77" y="247"/>
      <point x="80" y="263"/>
      <point x="86" y="279" type="curve" smooth="yes"/>
      <point x="125" y="392"/>
      <point x="224" y="470"/>
      <point x="365" y="470" type="curve" smooth="yes"/>
      <point x="517" y="470"/>
      <point x="590" y="381"/>
      <point x="564" y="236" type="curve" smooth="yes"/>
      <point x="563" y="228"/>
      <point x="560" y="216"/>
      <point x="556" y="202" type="curve"/>
      <point x="423" y="222" type="line"/>
    </contour>
    <contour>
      <point x="564" y="692" type="line"/>
      <point x="358" y="542" type="line"/>
      <point x="292" y="580" type="line"/>
      <point x="470" y="740" type="line"/>
    </contour>
  </outline>
</glyph>
<glyph name="edieresis" format="1">
  <advance width="548"/>
  <unicode hex="00EB"/>
  <outline>
    <contour>
      <point x="132" y="202" type="line"/>
      <point x="146" y="284" type="line"/>
      <point x="542" y="284" type="line"/>
      <point x="546" y="202" type="line"/>
    </contour>
    <contour>
      <point x="435" y="246" type="line" smooth="yes"/>
      <point x="449" y="324"/>
      <point x="422" y="372"/>
      <point x="346" y="372" type="curve" smooth="yes"/>
      <point x="276" y="372"/>
      <point x="218" y="330"/>
      <point x="205" y="256" type="curve"/>
      <point x="199" y="230" type="line"/>
      <point x="183" y="140"/>
      <point x="230" y="93"/>
      <point x="306" y="93" type="curve" smooth="yes"/>
      <point x="357" y="93"/>
      <point x="394" y="114"/>
      <point x="422" y="155" type="curve"/>
      <point x="523" y="114" type="line"/>
      <point x="471" y="42"/>
      <point x="401" y="-10"/>
      <point x="280" y="-10" type="curve" smooth="yes"/>
      <point x="139" y="-10"/>
      <point x="52" y="91"/>
      <point x="77" y="230" type="curve" smooth="yes"/>
      <point x="80" y="247"/>
      <point x="84" y="264"/>
      <point x="90" y="280" type="curve" smooth="yes"/>
      <point x="129" y="393"/>
      <point x="239" y="470"/>
      <point x="365" y="470" type="curve" smooth="yes"/>
      <point x="495" y="470"/>
      <point x="580" y="381"/>
      <point x="554" y="236" type="curve" smooth="yes"/>
      <point x="553" y="228"/>
      <point x="550" y="216"/>
      <point x="546" y="202" type="curve"/>
      <point x="431" y="222" type="line"/>
    </contour>
    <contour>
      <point x="427" y="604" type="curve" smooth="yes"/>
      <point x="434" y="646"/>
      <point x="474" y="678"/>
      <point x="518" y="678" type="curve" smooth="yes"/>
      <point x="562" y="678"/>
      <point x="590" y="646"/>
      <point x="583" y="604" type="curve" smooth="yes"/>
      <point x="576" y="562"/>
      <point x="535" y="530"/>
      <point x="491" y="530" type="curve" smooth="yes"/>
      <point x="447" y="530"/>
      <point x="420" y="562"/>
    </contour>
    <contour>
      <point x="196" y="604" type="curve" smooth="yes"/>
      <point x="203" y="646"/>
      <point x="243" y="678"/>
      <point x="287" y="678" type="curve" smooth="yes"/>
      <point x="331" y="678"/>
      <point x="360" y="646"/>
      <point x="353" y="604" type="curve" smooth="yes"/>
      <point x="346" y="562"/>
      <point x="304" y="530"/>
      <point x="260" y="530" type="curve" smooth="yes"/>
      <point x="216" y="530"/>
      <point x="189" y="562"/>
    </contour>
  </outline>
</glyph>
<glyph name="iacute" format="1">
  <advance width="271"/>
  <unicode hex="00ED"/>
  <outline>
    <contour>
      <point x="153" y="460" type="line"/>
      <point x="279" y="460" type="line"/>
      <point x="198" y="0" type="line"/>
      <point x="72" y="0" type="line"/>
    </contour>
    <contour>
      <point x="426" y="692" type="line"/>
      <point x="220" y="542" type="line"/>
      <point x="152" y="580" type="line"/>
      <point x="330" y="740" type="line"/>
    </contour>
  </outline>
</glyph>
<glyph name="idieresis" format="1">
  <advance width="271"/>
  <unicode hex="00EF"/>
  <outline>
    <contour>
      <point x="153" y="460" type="line"/>
      <point x="279" y="460" type="line"/>
      <point x="198" y="0" type="line"/>
      <point x="72" y="0" type="line"/>
    </contour>
    <contour>
      <point x="280" y="613" type="curve" smooth="yes"/>
      <point x="287" y="655"/>
      <point x="327" y="687"/>
      <point x="371" y="687" type="curve" smooth="yes"/>
      <point x="415" y="687"/>
      <point x="443" y="655"/>
      <point x="436" y="613" type="curve" smooth="yes"/>
      <point x="429" y="571"/>
      <point x="389" y="539"/>
      <point x="345" y="539" type="curve" smooth="yes"/>
      <point x="301" y="539"/>
      <point x="273" y="571"/>
    </contour>
    <contour>
      <point x="50" y="613" type="curve" smooth="yes"/>
      <point x="57" y="655"/>
      <point x="97" y="687"/>
      <point x="141" y="687" type="curve" smooth="yes"/>
      <point x="185" y="687"/>
      <point x="213" y="655"/>
      <point x="206" y="613" type="curve" smooth="yes"/>
      <point x="199" y="571"/>
      <point x="159" y="539"/>
      <point x="115" y="539" type="curve" smooth="yes"/>
      <point x="71" y="539"/>
      <point x="43" y="571"/>
    </contour>
  </outline>
</glyph>
<glyph name="eth" format="1">
  <advance width="641"/>
  <unicode hex="00F0"/>
  <outline>
    <contour>
      <point x="492" y="241" type="curve" smooth="yes"/>
      <point x="506" y="319"/>
      <point x="461" y="374"/>
      <point x="387" y="374" type="curve" smooth="yes"/>
      <point x="313" y="374"/>
      <point x="248" y="319"/>
      <point x="234" y="241" type="curve" smooth="yes"/>
      <point x="220" y="163"/>
      <point x="266" y="110"/>
      <point x="340" y="110" type="curve" smooth="yes"/>
      <point x="414" y="110"/>
      <point x="478" y="163"/>
    </contour>
    <contour>
      <point x="432" y="698" type="line"/>
      <point x="595" y="420" type="line" smooth="yes"/>
      <point x="626" y="370"/>
      <point x="646" y="311"/>
      <point x="634" y="241" type="curve" smooth="yes"/>
      <point x="605" y="77"/>
      <point x="469" y="-14"/>
      <point x="319" y="-14" type="curve" smooth="yes"/>
      <point x="169" y="-14"/>
      <point x="63" y="77"/>
      <point x="92" y="241" type="curve" smooth="yes"/>
      <point x="116" y="379"/>
      <point x="240" y="469"/>
      <point x="347" y="469" type="curve" smooth="yes"/>
      <point x="395" y="469"/>
      <point x="425" y="460"/>
      <point x="453" y="425" type="curve"/>
      <point x="428" y="434" type="line"/>
      <point x="250" y="698" type="line"/>
    </contour>
    <contour>
      <point x="234" y="520" type="line"/>
      <point x="247" y="594" type="line"/>
      <point x="643" y="594" type="line"/>
      <point x="630" y="520" type="line"/>
    </contour>
  </outline>
</glyph>
<glyph name="otilde" format="1">
  <advance width="576"/>
  <unicode hex="00F5"/>
  <outline>
    <contour>
      <point x="74" y="230" type="curve" smooth="yes"/>
      <point x="99" y="374"/>
      <point x="225" y="470"/>
      <point x="371" y="470" type="curve" smooth="yes"/>
      <point x="517" y="470"/>
      <point x="610" y="374"/>
      <point x="585" y="230" type="curve" smooth="yes"/>
      <point x="560" y="86"/>
      <point x="432" y="-10"/>
      <point x="286" y="-10" type="curve" smooth="yes"/>
      <point x="140" y="-10"/>
      <point x="49" y="86"/>
    </contour>
    <contour>
      <point x="207" y="230" type="curve" smooth="yes"/>
      <point x="193" y="152"/>
      <point x="238" y="100"/>
      <point x="306" y="100" type="curve" smooth="yes"/>
      <point x="374" y="100"/>
      <point x="437" y="152"/>
      <point x="451" y="230" type="curve" smooth="yes"/>
      <point x="465" y="308"/>
      <point x="419" y="360"/>
      <point x="351" y="360" type="curve" smooth="yes"/>
      <point x="283" y="360"/>
      <point x="221" y="308"/>
    </contour>
    <contour>
      <point x="205" y="588" type="line"/>
      <point x="224" y="637"/>
      <point x="278" y="678"/>
      <point x="336" y="678" type="curve" smooth="yes"/>
      <point x="402" y="678"/>
      <point x="405" y="628"/>
      <point x="461" y="628" type="curve" smooth="yes"/>
      <point x="485" y="628"/>
      <point x="506" y="648"/>
      <point x="532" y="680" type="curve"/>
      <point x="583" y="614" type="line"/>
      <point x="560" y="577"/>
      <point x="502" y="532"/>
      <point x="444" y="532" type="curve" smooth="yes"/>
      <point x="389" y="532"/>
      <point x="367" y="584"/>
      <point x="319" y="584" type="curve" smooth="yes"/>
      <point x="280" y="584"/>
      <point x="265" y="548"/>
      <point x="262" y="533" type="curve"/>
    </contour>
  </outline>
</glyph>
<glyph name="odieresis" format="1">
  <advance width="576"/>
  <unicode hex="00F6"/>
  <outline>
    <contour>
      <point x="74" y="230" type="curve" smooth="yes"/>
      <point x="99" y="374"/>
      <point x="225" y="470"/>
      <point x="371" y="470" type="curve" smooth="yes"/>
      <point x="517" y="470"/>
      <point x="610" y="374"/>
      <point x="585" y="230" type="curve" smooth="yes"/>
      <point x="560" y="86"/>
      <point x="432" y="-10"/>
      <point x="286" y="-10" type="curve" smooth="yes"/>
      <point x="140" y="-10"/>
      <point x="49" y="86"/>
    </contour>
    <contour>
      <point x="207" y="230" type="curve" smooth="yes"/>
      <point x="193" y="152"/>
      <point x="238" y="100"/>
      <point x="306" y="100" type="curve" smooth="yes"/>
      <point x="374" y="100"/>
      <point x="437" y="152"/>
      <point x="451" y="230" type="curve" smooth="yes"/>
      <point x="465" y="308"/>
      <point x="419" y="360"/>
      <point x="351" y="360" type="curve" smooth="yes"/>
      <point x="283" y="360"/>
      <point x="221" y="308"/>
    </contour>
    <contour>
      <point x="434" y="613" type="curve" smooth="yes"/>
      <point x="441" y="655"/>
      <point x="481" y="687"/>
      <point x="525" y="687" type="curve" smooth="yes"/>
      <point x="569" y="687"/>
      <point x="597" y="655"/>
      <point x="590" y="613" type="curve" smooth="yes"/>
      <point x="583" y="571"/>
      <point x="543" y="539"/>
      <point x="499" y="539" type="curve" smooth="yes"/>
      <point x="455" y="539"/>
      <point x="427" y="571"/>
    </contour>
    <contour>
      <point x="203" y="613" type="curve" smooth="yes"/>
      <point x="210" y="655"/>
      <point x="250" y="687"/>
      <point x="294" y="687" type="curve" smooth="yes"/>
      <point x="338" y="687"/>
      <point x="366" y="655"/>
      <point x="359" y="613" type="curve" smooth="yes"/>
      <point x="352" y="571"/>
      <point x="312" y="539"/>
      <point x="268" y="539" type="curve" smooth="yes"/>
      <point x="224" y="539"/>
      <point x="196" y="571"/>
    </contour>
  </outline>
</glyph>
<glyph name="divide" format="1">
  <advance width="634"/>
  <unicode hex="00F7"/>
  <outline>
    <contour>
      <point x="326" y="522" type="curve" smooth="yes"/>
      <point x="334" y="566"/>
      <point x="376" y="604"/>
      <point x="424" y="604" type="curve" smooth="yes"/>
      <point x="472" y="604"/>
      <point x="499" y="566"/>
      <point x="491" y="522" type="curve" smooth="yes"/>
      <point x="483" y="478"/>
      <point x="443" y="440"/>
      <point x="395" y="440" type="curve" smooth="yes"/>
      <point x="347" y="440"/>
      <point x="318" y="478"/>
    </contour>
    <contour>
      <point x="250" y="90" type="curve" smooth="yes"/>
      <point x="258" y="134"/>
      <point x="299" y="170"/>
      <point x="347" y="170" type="curve" smooth="yes"/>
      <point x="395" y="170"/>
      <point x="423" y="134"/>
      <point x="415" y="90" type="curve" smooth="yes"/>
      <point x="407" y="46"/>
      <point x="366" y="8"/>
      <point x="318" y="8" type="curve" smooth="yes"/>
      <point x="270" y="8"/>
      <point x="242" y="46"/>
    </contour>
    <contour>
      <point x="80" y="250" type="line"/>
      <point x="101" y="368" type="line"/>
      <point x="662" y="368" type="line"/>
      <point x="641" y="250" type="line"/>
    </contour>
  </outline>
</glyph>
<glyph name="oslash" format="1">
  <advance width="546"/>
  <unicode hex="00F8"/>
  <outline>
    <contour>
      <point x="74" y="230" type="curve" smooth="yes"/>
      <point x="100" y="378"/>
      <point x="227" y="470"/>
      <point x="371" y="470" type="curve" smooth="yes"/>
      <point x="515" y="470"/>
      <point x="611" y="378"/>
      <point x="585" y="230" type="curve" smooth="yes"/>
      <point x="559" y="82"/>
      <point x="430" y="-10"/>
      <point x="286" y="-10" type="curve" smooth="yes"/>
      <point x="142" y="-10"/>
      <point x="48" y="82"/>
    </contour>
    <contour>
      <point x="199" y="230" type="curve" smooth="yes"/>
      <point x="185" y="148"/>
      <point x="233" y="95"/>
      <point x="305" y="95" type="curve" smooth="yes"/>
      <point x="377" y="95"/>
      <point x="446" y="148"/>
      <point x="460" y="230" type="curve" smooth="yes"/>
      <point x="474" y="308"/>
      <point x="424" y="365"/>
      <point x="352" y="365" type="curve" smooth="yes"/>
      <point x="280" y="365"/>
      <point x="213" y="308"/>
    </contour>
    <contour>
      <point x="540" y="504" type="line"/>
      <point x="588" y="476" type="line"/>
      <point x="106" y="-48" type="line"/>
      <point x="57" y="-20" type="line"/>
    </contour>
  </outline>
</glyph>
<glyph name="uacute" format="1">
  <advance width="560"/>
  <unicode hex="00FA"/>
  <outline>
    <contour>
      <point x="366" y="0" type="line"/>
      <point x="447" y="460" type="line"/>
      <point x="577" y="460" type="line"/>
      <point x="496" y="0" type="line"/>
    </contour>
    <contour>
      <point x="231" y="180" type="line" smooth="yes"/>
      <point x="220" y="120"/>
      <point x="236" y="86"/>
      <point x="290" y="86" type="curve" smooth="yes"/>
      <point x="344" y="86"/>
      <point x="388" y="122"/>
      <point x="398" y="180" type="curve"/>
      <point x="430" y="184" type="line"/>
      <point x="411" y="75"/>
      <point x="332" y="-10"/>
      <point x="224" y="-10" type="curve" smooth="yes"/>
      <point x="116" y="-10"/>
      <point x="73" y="52"/>
      <point x="93" y="166" type="curve" smooth="yes"/>
      <point x="145" y="460" type="line"/>
      <point x="280" y="460" type="line"/>
    </contour>
    <contour>
      <point x="539" y="692" type="line"/>
      <point x="333" y="542" type="line"/>
      <point x="266" y="580" type="line"/>
      <point x="444" y="740" type="line"/>
    </contour>
  </outline>
</glyph>
<glyph name="udieresis" format="1">
  <advance width="560"/>
  <unicode hex="00FC"/>
  <outline>
    <contour>
      <point x="366" y="0" type="line"/>
      <point x="447" y="460" type="line"/>
      <point x="577" y="460" type="line"/>
      <point x="496" y="0" type="line"/>
    </contour>
    <contour>
      <point x="231" y="180" type="line" smooth="yes"/>
      <point x="220" y="120"/>
      <point x="235" y="86"/>
      <point x="289" y="86" type="curve" smooth="yes"/>
      <point x="343" y="86"/>
      <point x="388" y="122"/>
      <point x="398" y="180" type="curve"/>
      <point x="427" y="184" type="line"/>
      <point x="408" y="75"/>
      <point x="332" y="-10"/>
      <point x="224" y="-10" type="curve" smooth="yes"/>
      <point x="116" y="-10"/>
      <point x="73" y="52"/>
      <point x="93" y="166" type="curve" smooth="yes"/>
      <point x="145" y="460" type="line"/>
      <point x="280" y="460" type="line"/>
    </contour>
    <contour>
      <point x="426" y="610" type="curve" smooth="yes"/>
      <point x="433" y="652"/>
      <point x="473" y="684"/>
      <point x="517" y="684" type="curve" smooth="yes"/>
      <point x="561" y="684"/>
      <point x="589" y="652"/>
      <point x="582" y="610" type="curve" smooth="yes"/>
      <point x="575" y="568"/>
      <point x="535" y="536"/>
      <point x="491" y="536" type="curve" smooth="yes"/>
      <point x="447" y="536"/>
      <point x="419" y="568"/>
    </contour>
    <contour>
      <point x="195" y="610" type="curve" smooth="yes"/>
      <point x="202" y="652"/>
      <point x="242" y="684"/>
      <point x="286" y="684" type="curve" smooth="yes"/>
      <point x="330" y="684"/>
      <point x="358" y="652"/>
      <point x="351" y="610" type="curve" smooth="yes"/>
      <point x="344" y="568"/>
      <point x="304" y="536"/>
      <point x="260" y="536" type="curve" smooth="yes"/>
      <point x="216" y="536"/>
      <point x="188" y="568"/>
    </contour>
  </outline>
</glyph>
<glyph name="yacute" format="1">
  <advance width="496"/>
  <unicode hex="00FD"/>
  <outline>
    <contour>
      <point x="584" y="460" type="line"/>
      <point x="164" y="-220" type="line"/>
      <point x="31" y="-220" type="line"/>
      <point x="194" y="46" type="line"/>
      <point x="74" y="460" type="line"/>
      <point x="220" y="460" type="line"/>
      <point x="302" y="93" type="line"/>
      <point x="239" y="96" type="line"/>
      <point x="449" y="460" type="line"/>
    </contour>
    <contour>
      <point x="522" y="692" type="line"/>
      <point x="316" y="542" type="line"/>
      <point x="249" y="580" type="line"/>
      <point x="427" y="740" type="line"/>
    </contour>
  </outline>
</glyph>
<glyph name="thorn" format="1">
  <advance width="599"/>
  <unicode hex="00FE"/>
  <outline>
    <contour>
      <point x="149" y="-220" type="line"/>
      <point x="23" y="-220" type="line"/>
      <point x="200" y="780" type="line"/>
      <point x="326" y="780" type="line"/>
    </contour>
    <contour>
      <point x="607" y="230" type="curve" smooth="yes"/>
      <point x="580" y="77"/>
      <point x="461" y="-10"/>
      <point x="343" y="-10" type="curve" smooth="yes"/>
      <point x="228" y="-10"/>
      <point x="163" y="81"/>
      <point x="189" y="230" type="curve" smooth="yes"/>
      <point x="215" y="379"/>
      <point x="313" y="470"/>
      <point x="428" y="470" type="curve" smooth="yes"/>
      <point x="546" y="470"/>
      <point x="634" y="383"/>
    </contour>
    <contour>
      <point x="477" y="230" type="curve" smooth="yes"/>
      <point x="492" y="314"/>
      <point x="442" y="365"/>
      <point x="373" y="365" type="curve" smooth="yes"/>
      <point x="315" y="365"/>
      <point x="244" y="316"/>
      <point x="229" y="230" type="curve" smooth="yes"/>
      <point x="214" y="144"/>
      <point x="268" y="95"/>
      <point x="326" y="95" type="curve" smooth="yes"/>
      <point x="395" y="95"/>
      <point x="462" y="146"/>
    </contour>
  </outline>
</glyph>
<glyph name="ydieresis" format="1">
  <advance width="496"/>
  <unicode hex="00FF"/>
  <outline>
    <contour>
      <point x="584" y="460" type="line"/>
      <point x="164" y="-220" type="line"/>
      <point x="31" y="-220" type="line"/>
      <point x="194" y="46" type="line"/>
      <point x="74" y="460" type="line"/>
      <point x="220" y="460" type="line"/>
      <point x="302" y="93" type="line"/>
      <point x="239" y="96" type="line"/>
      <point x="449" y="460" type="line"/>
    </contour>
    <contour>
      <point x="393" y="604" type="curve" smooth="yes"/>
      <point x="400" y="646"/>
      <point x="440" y="678"/>
      <point x="484" y="678" type="curve" smooth="yes"/>
      <point x="528" y="678"/>
      <point x="556" y="646"/>
      <point x="549" y="604" type="curve" smooth="yes"/>
      <point x="542" y="562"/>
      <point x="501" y="530"/>
      <point x="457" y="530" type="curve" smooth="yes"/>
      <point x="413" y="530"/>
      <point x="386" y="562"/>
    </contour>
    <contour>
      <point x="161" y="604" type="curve" smooth="yes"/>
      <point x="168" y="646"/>
      <point x="208" y="678"/>
      <point x="252" y="678" type="curve" smooth="yes"/>
      <point x="296" y="678"/>
      <point x="324" y="646"/>
      <point x="317" y="604" type="curve" smooth="yes"/>
      <point x="310" y="562"/>
      <point x="269" y="530"/>
      <point x="225" y="530" type="curve" smooth="yes"/>
      <point x="181" y="530"/>
      <point x="154" y="562"/>
    </contour>
  </outline>
</glyph>
<glyph name="Abreve" format="1">
  <advance width="712"/>
  <unicode hex="0102"/>
  <outline>
    <contour>
      <point x="201" y="158" type="line"/>
      <point x="238" y="272" type="line"/>
      <point x="575" y="272" type="line"/>
      <point x="571" y="158" type="line"/>
    </contour>
    <contour>
      <point x="439" y="472" type="line"/>
      <point x="293" y="231" type="line"/>
      <point x="290" y="199" type="line"/>
      <point x="163" y="0" type="line"/>
      <point x="0" y="0" type="line"/>
      <point x="487" y="742" type="line"/>
      <point x="712" y="0" type="line"/>
      <point x="549" y="0" type="line"/>
      <point x="494" y="192" type="line"/>
      <point x="501" y="229" type="line"/>
    </contour>
    <contour>
      <point x="361" y="946" type="curve"/>
      <point x="451" y="946" type="line"/>
      <point x="445" y="913"/>
      <point x="464" y="882"/>
      <point x="512" y="882" type="curve" smooth="yes"/>
      <point x="560" y="882"/>
      <point x="589" y="913"/>
      <point x="595" y="946" type="curve"/>
      <point x="686" y="946" type="line"/>
      <point x="672" y="868"/>
      <point x="602" y="802"/>
      <point x="497" y="802" type="curve" smooth="yes"/>
      <point x="392" y="802"/>
      <point x="347" y="868"/>
    </contour>
  </outline>
</glyph>
<glyph name="abreve" format="1">
  <advance width="602"/>
  <unicode hex="0103"/>
  <outline>
    <contour>
      <point x="494" y="460" type="line"/>
      <point x="623" y="460" type="line"/>
      <point x="542" y="0" type="line"/>
      <point x="413" y="0" type="line"/>
    </contour>
    <contour>
      <point x="74" y="230" type="curve" smooth="yes"/>
      <point x="101" y="384"/>
      <point x="221" y="470"/>
      <point x="337" y="470" type="curve" smooth="yes"/>
      <point x="452" y="470"/>
      <point x="519" y="379"/>
      <point x="493" y="230" type="curve" smooth="yes"/>
      <point x="467" y="81"/>
      <point x="367" y="-10"/>
      <point x="252" y="-10" type="curve" smooth="yes"/>
      <point x="136" y="-10"/>
      <point x="47" y="76"/>
    </contour>
    <contour>
      <point x="209" y="230" type="curve" smooth="yes"/>
      <point x="195" y="148"/>
      <point x="241" y="98"/>
      <point x="309" y="98" type="curve" smooth="yes"/>
      <point x="365" y="98"/>
      <point x="438" y="146"/>
      <point x="453" y="230" type="curve" smooth="yes"/>
      <point x="468" y="314"/>
      <point x="412" y="362"/>
      <point x="356" y="362" type="curve" smooth="yes"/>
      <point x="288" y="362"/>
      <point x="223" y="312"/>
    </contour>
    <contour>
      <point x="252" y="674" type="curve"/>
      <point x="343" y="674" type="line"/>
      <point x="337" y="641"/>
      <point x="356" y="610"/>
      <point x="404" y="610" type="curve" smooth="yes"/>
      <point x="452" y="610"/>
      <point x="481" y="641"/>
      <point x="487" y="674" type="curve"/>
      <point x="578" y="674" type="line"/>
      <point x="564" y="596"/>
      <point x="494" y="530"/>
      <point x="389" y="530" type="curve" smooth="yes"/>
      <point x="284" y="530"/>
      <point x="238" y="596"/>
    </contour>
  </outline>
</glyph>
<glyph name="Aogonek" format="1">
  <advance width="712"/>
  <unicode hex="0104"/>
  <outline>
    <contour>
      <point x="201" y="158" type="line"/>
      <point x="238" y="272" type="line"/>
      <point x="575" y="272" type="line"/>
      <point x="571" y="158" type="line"/>
    </contour>
    <contour>
      <point x="439" y="472" type="line"/>
      <point x="293" y="231" type="line"/>
      <point x="290" y="199" type="line"/>
      <point x="163" y="0" type="line"/>
      <point x="0" y="0" type="line"/>
      <point x="487" y="742" type="line"/>
      <point x="712" y="0" type="line"/>
      <point x="549" y="0" type="line"/>
      <point x="494" y="192" type="line"/>
      <point x="501" y="229" type="line"/>
    </contour>
    <contour>
      <point x="668" y="-111" type="curve"/>
      <point x="689" y="-174" type="line"/>
      <point x="670" y="-194"/>
      <point x="638" y="-214"/>
      <point x="586" y="-214" type="curve" smooth="yes"/>
      <point x="516" y="-214"/>
      <point x="475" y="-178"/>
      <point x="486" y="-114" type="curve"/>
      <point x="582" y="-90" type="line"/>
      <point x="577" y="-118"/>
      <point x="589" y="-131"/>
      <point x="615" y="-131" type="curve" smooth="yes"/>
      <point x="637" y="-131"/>
      <point x="652" y="-124"/>
    </contour>
    <contour>
      <point x="582" y="-90" type="curve"/>
      <point x="486" y="-114" type="line"/>
      <point x="497" y="-50"/>
      <point x="571" y="-6"/>
      <point x="647" y="30" type="curve"/>
      <point x="683" y="6" type="line"/>
      <point x="626" y="-20"/>
      <point x="588" y="-58"/>
    </contour>
  </outline>
</glyph>
<glyph name="aogonek" format="1">
  <advance width="601"/>
  <unicode hex="0105"/>
  <outline>
    <contour>
      <point x="494" y="460" type="line"/>
      <point x="623" y="460" type="line"/>
      <point x="542" y="0" type="line"/>
      <point x="413" y="0" type="line"/>
    </contour>
    <contour>
      <point x="74" y="230" type="curve" smooth="yes"/>
      <point x="101" y="384"/>
      <point x="221" y="470"/>
      <point x="337" y="470" type="curve" smooth="yes"/>
      <point x="452" y="470"/>
      <point x="519" y="379"/>
      <point x="493" y="230" type="curve" smooth="yes"/>
      <point x="467" y="81"/>
      <point x="367" y="-10"/>
      <point x="252" y="-10" type="curve" smooth="yes"/>
      <point x="136" y="-10"/>
      <point x="47" y="76"/>
    </contour>
    <contour>
      <point x="209" y="230" type="curve" smooth="yes"/>
      <point x="195" y="148"/>
      <point x="241" y="98"/>
      <point x="309" y="98" type="curve" smooth="yes"/>
      <point x="365" y="98"/>
      <point x="438" y="146"/>
      <point x="453" y="230" type="curve" smooth="yes"/>
      <point x="468" y="314"/>
      <point x="412" y="362"/>
      <point x="356" y="362" type="curve" smooth="yes"/>
      <point x="288" y="362"/>
      <point x="223" y="312"/>
    </contour>
    <contour>
      <point x="506" y="-116" type="curve"/>
      <point x="527" y="-180" type="line"/>
      <point x="508" y="-200"/>
      <point x="475" y="-220"/>
      <point x="423" y="-220" type="curve" smooth="yes"/>
      <point x="353" y="-220"/>
      <point x="312" y="-184"/>
      <point x="323" y="-120" type="curve"/>
      <point x="419" y="-96" type="line"/>
      <point x="414" y="-124"/>
      <point x="426" y="-136"/>
      <point x="452" y="-136" type="curve" smooth="yes"/>
      <point x="474" y="-136"/>
      <point x="490" y="-129"/>
    </contour>
    <contour>
      <point x="419" y="-96" type="curve"/>
      <point x="323" y="-120" type="line"/>
      <point x="334" y="-56"/>
      <point x="408" y="-11"/>
      <point x="484" y="25" type="curve"/>
      <point x="521" y="0" type="line"/>
      <point x="464" y="-26"/>
      <point x="425" y="-64"/>
    </contour>
  </outline>
</glyph>
<glyph name="Cdotaccent" format="1">
  <advance width="695"/>
  <unicode hex="010A"/>
  <outline>
    <contour>
      <point x="254" y="350" type="curve" smooth="yes"/>
      <point x="230" y="212"/>
      <point x="318" y="124"/>
      <point x="438" y="124" type="curve" smooth="yes"/>
      <point x="537" y="124"/>
      <point x="612" y="166"/>
      <point x="669" y="220" type="curve"/>
      <point x="640" y="58" type="line"/>
      <point x="575" y="12"/>
      <point x="510" y="-14"/>
      <point x="408" y="-14" type="curve" smooth="yes"/>
      <point x="192" y="-14"/>
      <point x="60" y="134"/>
      <point x="98" y="350" type="curve" smooth="yes"/>
      <point x="136" y="566"/>
      <point x="320" y="714"/>
      <point x="536" y="714" type="curve" smooth="yes"/>
      <point x="638" y="714"/>
      <point x="694" y="688"/>
      <point x="743" y="642" type="curve"/>
      <point x="715" y="480" type="line"/>
      <point x="678" y="534"/>
      <point x="617" y="576"/>
      <point x="518" y="576" type="curve" smooth="yes"/>
      <point x="398" y="576"/>
      <point x="278" y="488"/>
    </contour>
    <contour>
      <point x="460" y="848" type="curve" smooth="yes"/>
      <point x="467" y="890"/>
      <point x="507" y="922"/>
      <point x="551" y="922" type="curve" smooth="yes"/>
      <point x="595" y="922"/>
      <point x="623" y="890"/>
      <point x="616" y="848" type="curve" smooth="yes"/>
      <point x="609" y="806"/>
      <point x="568" y="774"/>
      <point x="524" y="774" type="curve" smooth="yes"/>
      <point x="480" y="774"/>
      <point x="453" y="806"/>
    </contour>
  </outline>
</glyph>
<glyph name="cdotaccent" format="1">
  <advance width="488"/>
  <unicode hex="010B"/>
  <outline>
    <contour>
      <point x="205" y="230" type="curve" smooth="yes"/>
      <point x="191" y="150"/>
      <point x="239" y="96"/>
      <point x="313" y="96" type="curve" smooth="yes"/>
      <point x="373" y="96"/>
      <point x="435" y="126"/>
      <point x="469" y="170" type="curve"/>
      <point x="446" y="37" type="line"/>
      <point x="409" y="7"/>
      <point x="354" y="-10"/>
      <point x="286" y="-10" type="curve" smooth="yes"/>
      <point x="138" y="-10"/>
      <point x="46" y="86"/>
      <point x="71" y="230" type="curve" smooth="yes"/>
      <point x="96" y="374"/>
      <point x="223" y="470"/>
      <point x="371" y="470" type="curve" smooth="yes"/>
      <point x="439" y="470"/>
      <point x="487" y="450"/>
      <point x="514" y="424" type="curve"/>
      <point x="490" y="290" type="line"/>
      <point x="472" y="334"/>
      <point x="416" y="364"/>
      <point x="360" y="364" type="curve" smooth="yes"/>
      <point x="286" y="364"/>
      <point x="218" y="306"/>
    </contour>
    <contour>
      <point x="295" y="604" type="curve" smooth="yes"/>
      <point x="302" y="646"/>
      <point x="342" y="678"/>
      <point x="386" y="678" type="curve" smooth="yes"/>
      <point x="430" y="678"/>
      <point x="458" y="646"/>
      <point x="451" y="604" type="curve" smooth="yes"/>
      <point x="444" y="562"/>
      <point x="403" y="530"/>
      <point x="359" y="530" type="curve" smooth="yes"/>
      <point x="315" y="530"/>
      <point x="288" y="562"/>
    </contour>
  </outline>
</glyph>
<glyph name="ccaron" format="1">
  <advance width="488"/>
  <unicode hex="010D"/>
  <outline>
    <contour>
      <point x="205" y="230" type="curve" smooth="yes"/>
      <point x="191" y="150"/>
      <point x="239" y="96"/>
      <point x="313" y="96" type="curve" smooth="yes"/>
      <point x="373" y="96"/>
      <point x="435" y="126"/>
      <point x="469" y="170" type="curve"/>
      <point x="446" y="37" type="line"/>
      <point x="409" y="7"/>
      <point x="354" y="-10"/>
      <point x="286" y="-10" type="curve" smooth="yes"/>
      <point x="138" y="-10"/>
      <point x="46" y="86"/>
      <point x="71" y="230" type="curve" smooth="yes"/>
      <point x="96" y="374"/>
      <point x="223" y="470"/>
      <point x="371" y="470" type="curve" smooth="yes"/>
      <point x="439" y="470"/>
      <point x="487" y="450"/>
      <point x="514" y="424" type="curve"/>
      <point x="490" y="290" type="line"/>
      <point x="472" y="334"/>
      <point x="416" y="364"/>
      <point x="360" y="364" type="curve" smooth="yes"/>
      <point x="286" y="364"/>
      <point x="218" y="306"/>
    </contour>
    <contour>
      <point x="380" y="644" type="line"/>
      <point x="491" y="732" type="line"/>
      <point x="570" y="670" type="line"/>
      <point x="359" y="530" type="line"/>
      <point x="198" y="670" type="line"/>
      <point x="298" y="732" type="line"/>
    </contour>
  </outline>
</glyph>
<glyph name="dcaron" format="1">
  <advance width="602"/>
  <unicode hex="010F"/>
  <outline>
    <contour>
      <point x="550" y="780" type="line"/>
      <point x="680" y="780" type="line"/>
      <point x="542" y="0" type="line"/>
      <point x="412" y="0" type="line"/>
    </contour>
    <contour>
      <point x="74" y="230" type="curve" smooth="yes"/>
      <point x="101" y="384"/>
      <point x="221" y="470"/>
      <point x="337" y="470" type="curve" smooth="yes"/>
      <point x="452" y="470"/>
      <point x="519" y="379"/>
      <point x="493" y="230" type="curve" smooth="yes"/>
      <point x="467" y="81"/>
      <point x="367" y="-10"/>
      <point x="252" y="-10" type="curve" smooth="yes"/>
      <point x="136" y="-10"/>
      <point x="47" y="76"/>
    </contour>
    <contour>
      <point x="209" y="230" type="curve" smooth="yes"/>
      <point x="195" y="148"/>
      <point x="241" y="98"/>
      <point x="309" y="98" type="curve" smooth="yes"/>
      <point x="365" y="98"/>
      <point x="438" y="146"/>
      <point x="453" y="230" type="curve" smooth="yes"/>
      <point x="468" y="314"/>
      <point x="412" y="362"/>
      <point x="356" y="362" type="curve" smooth="yes"/>
      <point x="288" y="362"/>
      <point x="223" y="312"/>
    </contour>
    <contour>
      <point x="798" y="780" type="line"/>
      <point x="922" y="748" type="line"/>
      <point x="757" y="498" type="line"/>
      <point x="664" y="521" type="line"/>
    </contour>
  </outline>
</glyph>
<glyph name="Emacron" format="1">
  <advance width="587"/>
  <unicode hex="0112"/>
  <outline>
    <contour>
      <point x="168" y="0" type="line"/>
      <point x="190" y="122" type="line"/>
      <point x="544" y="122" type="line"/>
      <point x="522" y="0" type="line"/>
    </contour>
    <contour>
      <point x="270" y="578" type="line"/>
      <point x="291" y="700" type="line"/>
      <point x="645" y="700" type="line"/>
      <point x="624" y="578" type="line"/>
    </contour>
    <contour>
      <point x="223" y="312" type="line"/>
      <point x="244" y="431" type="line"/>
      <point x="578" y="431" type="line"/>
      <point x="557" y="312" type="line"/>
    </contour>
    <contour>
      <point x="199" y="700" type="line"/>
      <point x="339" y="700" type="line"/>
      <point x="216" y="0" type="line"/>
      <point x="76" y="0" type="line"/>
    </contour>
    <contour>
      <point x="252" y="774" type="line"/>
      <point x="273" y="889" type="line"/>
      <point x="638" y="889" type="line"/>
      <point x="617" y="774" type="line"/>
    </contour>
  </outline>
</glyph>
<glyph name="Ebreve" format="1">
  <advance width="587"/>
  <unicode hex="0114"/>
  <outline>
    <contour>
      <point x="168" y="0" type="line"/>
      <point x="190" y="122" type="line"/>
      <point x="544" y="122" type="line"/>
      <point x="522" y="0" type="line"/>
    </contour>
    <contour>
      <point x="270" y="578" type="line"/>
      <point x="291" y="700" type="line"/>
      <point x="645" y="700" type="line"/>
      <point x="624" y="578" type="line"/>
    </contour>
    <contour>
      <point x="223" y="312" type="line"/>
      <point x="244" y="431" type="line"/>
      <point x="578" y="431" type="line"/>
      <point x="557" y="312" type="line"/>
    </contour>
    <contour>
      <point x="199" y="700" type="line"/>
      <point x="339" y="700" type="line"/>
      <point x="216" y="0" type="line"/>
      <point x="76" y="0" type="line"/>
    </contour>
    <contour>
      <point x="298" y="918" type="curve"/>
      <point x="388" y="918" type="line"/>
      <point x="382" y="885"/>
      <point x="401" y="854"/>
      <point x="449" y="854" type="curve" smooth="yes"/>
      <point x="497" y="854"/>
      <point x="526" y="885"/>
      <point x="532" y="918" type="curve"/>
      <point x="622" y="918" type="line"/>
      <point x="608" y="840"/>
      <point x="539" y="774"/>
      <point x="434" y="774" type="curve" smooth="yes"/>
      <point x="329" y="774"/>
      <point x="284" y="840"/>
    </contour>
  </outline>
</glyph>
<glyph name="Edotaccent" format="1">
  <advance width="587"/>
  <unicode hex="0116"/>
  <outline>
    <contour>
      <point x="168" y="0" type="line"/>
      <point x="190" y="122" type="line"/>
      <point x="544" y="122" type="line"/>
      <point x="522" y="0" type="line"/>
    </contour>
    <contour>
      <point x="270" y="578" type="line"/>
      <point x="291" y="700" type="line"/>
      <point x="645" y="700" type="line"/>
      <point x="624" y="578" type="line"/>
    </contour>
    <contour>
      <point x="223" y="312" type="line"/>
      <point x="244" y="431" type="line"/>
      <point x="578" y="431" type="line"/>
      <point x="557" y="312" type="line"/>
    </contour>
    <contour>
      <point x="199" y="700" type="line"/>
      <point x="339" y="700" type="line"/>
      <point x="216" y="0" type="line"/>
      <point x="76" y="0" type="line"/>
    </contour>
    <contour>
      <point x="370" y="850" type="curve" smooth="yes"/>
      <point x="378" y="893"/>
      <point x="417" y="926"/>
      <point x="461" y="926" type="curve" smooth="yes"/>
      <point x="505" y="926"/>
      <point x="536" y="893"/>
      <point x="528" y="850" type="curve" smooth="yes"/>
      <point x="520" y="807"/>
      <point x="478" y="774"/>
      <point x="434" y="774" type="curve" smooth="yes"/>
      <point x="390" y="774"/>
      <point x="362" y="807"/>
    </contour>
  </outline>
</glyph>
<glyph name="Eogonek" format="1">
  <advance width="587"/>
  <unicode hex="0118"/>
  <outline>
    <contour>
      <point x="168" y="0" type="line"/>
      <point x="190" y="122" type="line"/>
      <point x="544" y="122" type="line"/>
      <point x="522" y="0" type="line"/>
    </contour>
    <contour>
      <point x="270" y="578" type="line"/>
      <point x="291" y="700" type="line"/>
      <point x="645" y="700" type="line"/>
      <point x="624" y="578" type="line"/>
    </contour>
    <contour>
      <point x="223" y="312" type="line"/>
      <point x="244" y="431" type="line"/>
      <point x="578" y="431" type="line"/>
      <point x="557" y="312" type="line"/>
    </contour>
    <contour>
      <point x="199" y="700" type="line"/>
      <point x="339" y="700" type="line"/>
      <point x="216" y="0" type="line"/>
      <point x="76" y="0" type="line"/>
    </contour>
    <contour>
      <point x="484" y="-116" type="curve"/>
      <point x="506" y="-179" type="line"/>
      <point x="487" y="-199"/>
      <point x="453" y="-219"/>
      <point x="401" y="-219" type="curve" smooth="yes"/>
      <point x="331" y="-219"/>
      <point x="290" y="-183"/>
      <point x="301" y="-119" type="curve"/>
      <point x="398" y="-95" type="line"/>
      <point x="393" y="-123"/>
      <point x="404" y="-136"/>
      <point x="430" y="-136" type="curve" smooth="yes"/>
      <point x="452" y="-136"/>
      <point x="468" y="-129"/>
    </contour>
    <contour>
      <point x="398" y="-95" type="curve"/>
      <point x="301" y="-119" type="line"/>
      <point x="312" y="-55"/>
      <point x="387" y="-10"/>
      <point x="463" y="26" type="curve"/>
      <point x="500" y="1" type="line"/>
      <point x="443" y="-25"/>
      <point x="404" y="-63"/>
    </contour>
  </outline>
</glyph>
<glyph name="eogonek" format="1">
  <advance width="555"/>
  <unicode hex="0119"/>
  <outline>
    <contour>
      <point x="132" y="202" type="line"/>
      <point x="146" y="281" type="line"/>
      <point x="553" y="281" type="line"/>
      <point x="556" y="202" type="line"/>
    </contour>
    <contour>
      <point x="427" y="246" type="line" smooth="yes"/>
      <point x="441" y="328"/>
      <point x="419" y="378"/>
      <point x="347" y="378" type="curve" smooth="yes"/>
      <point x="281" y="378"/>
      <point x="225" y="334"/>
      <point x="211" y="256" type="curve"/>
      <point x="205" y="230" type="line"/>
      <point x="188" y="132"/>
      <point x="230" y="90"/>
      <point x="298" y="90" type="curve" smooth="yes"/>
      <point x="356" y="90"/>
      <point x="402" y="113"/>
      <point x="433" y="155" type="curve"/>
      <point x="541" y="120" type="line"/>
      <point x="481" y="42"/>
      <point x="408" y="-10"/>
      <point x="280" y="-10" type="curve" smooth="yes"/>
      <point x="125" y="-10"/>
      <point x="49" y="91"/>
      <point x="74" y="230" type="curve" smooth="yes"/>
      <point x="77" y="247"/>
      <point x="80" y="263"/>
      <point x="86" y="279" type="curve" smooth="yes"/>
      <point x="125" y="392"/>
      <point x="224" y="470"/>
      <point x="365" y="470" type="curve" smooth="yes"/>
      <point x="517" y="470"/>
      <point x="590" y="381"/>
      <point x="564" y="236" type="curve" smooth="yes"/>
      <point x="563" y="228"/>
      <point x="560" y="216"/>
      <point x="556" y="202" type="curve"/>
      <point x="423" y="222" type="line"/>
    </contour>
    <contour>
      <point x="303" y="-121" type="curve"/>
      <point x="323" y="-185" type="line"/>
      <point x="304" y="-205"/>
      <point x="272" y="-225"/>
      <point x="220" y="-225" type="curve" smooth="yes"/>
      <point x="150" y="-225"/>
      <point x="107" y="-189"/>
      <point x="118" y="-125" type="curve"/>
      <point x="216" y="-101" type="line"/>
      <point x="211" y="-129"/>
      <point x="223" y="-141"/>
      <point x="249" y="-141" type="curve" smooth="yes"/>
      <point x="271" y="-141"/>
      <point x="287" y="-134"/>
    </contour>
    <contour>
      <point x="216" y="-101" type="curve"/>
      <point x="118" y="-125" type="line"/>
      <point x="129" y="-61"/>
      <point x="206" y="-16"/>
      <point x="282" y="20" type="curve"/>
      <point x="317" y="-5" type="line"/>
      <point x="260" y="-31"/>
      <point x="222" y="-69"/>
    </contour>
  </outline>
</glyph>
<glyph name="Gbreve" format="1">
  <advance width="802"/>
  <unicode hex="011E"/>
  <outline>
    <contour>
      <point x="462" y="260" type="line"/>
      <point x="482" y="374" type="line"/>
      <point x="828" y="374" type="line"/>
      <point x="728" y="260" type="line"/>
    </contour>
    <contour>
      <point x="828" y="374" type="line"/>
      <point x="798" y="160"/>
      <point x="639" y="-18"/>
      <point x="407" y="-18" type="curve" smooth="yes"/>
      <point x="189" y="-18"/>
      <point x="60" y="132"/>
      <point x="98" y="350" type="curve" smooth="yes"/>
      <point x="136" y="568"/>
      <point x="322" y="714"/>
      <point x="540" y="714" type="curve" smooth="yes"/>
      <point x="682" y="714"/>
      <point x="774" y="651"/>
      <point x="821" y="554" type="curve"/>
      <point x="685" y="482" type="line"/>
      <point x="660" y="542"/>
      <point x="607" y="585"/>
      <point x="517" y="585" type="curve" smooth="yes"/>
      <point x="391" y="585"/>
      <point x="274" y="496"/>
      <point x="248" y="350" type="curve" smooth="yes"/>
      <point x="222" y="204"/>
      <point x="303" y="110"/>
      <point x="433" y="110" type="curve" smooth="yes"/>
      <point x="593" y="110"/>
      <point x="671" y="234"/>
      <point x="695" y="370" type="curve"/>
    </contour>
    <contour>
      <point x="414" y="918" type="curve"/>
      <point x="505" y="918" type="line"/>
      <point x="499" y="885"/>
      <point x="517" y="854"/>
      <point x="565" y="854" type="curve" smooth="yes"/>
      <point x="613" y="854"/>
      <point x="642" y="885"/>
      <point x="648" y="918" type="curve"/>
      <point x="740" y="918" type="line"/>
      <point x="726" y="840"/>
      <point x="655" y="774"/>
      <point x="550" y="774" type="curve" smooth="yes"/>
      <point x="445" y="774"/>
      <point x="400" y="840"/>
    </contour>
  </outline>
</glyph>
<glyph name="Hcircumflex" format="1">
  <advance width="764"/>
  <unicode hex="0124"/>
  <outline>
    <contour>
      <point x="176" y="307" type="line"/>
      <point x="199" y="438" type="line"/>
      <point x="714" y="438" type="line"/>
      <point x="691" y="307" type="line"/>
    </contour>
    <contour>
      <point x="669" y="700" type="line"/>
      <point x="813" y="700" type="line"/>
      <point x="690" y="0" type="line"/>
      <point x="546" y="0" type="line"/>
    </contour>
    <contour>
      <point x="199" y="700" type="line"/>
      <point x="343" y="700" type="line"/>
      <point x="220" y="0" type="line"/>
      <point x="76" y="0" type="line"/>
    </contour>
    <contour>
      <point x="535" y="863" type="line"/>
      <point x="422" y="774" type="line"/>
      <point x="343" y="836" type="line"/>
      <point x="555" y="976" type="line"/>
      <point x="716" y="836" type="line"/>
      <point x="616" y="774" type="line"/>
    </contour>
  </outline>
</glyph>
<glyph name="imacron" format="1">
  <advance width="271"/>
  <unicode hex="012B"/>
  <outline>
    <contour>
      <point x="153" y="460" type="line"/>
      <point x="279" y="460" type="line"/>
      <point x="198" y="0" type="line"/>
      <point x="72" y="0" type="line"/>
    </contour>
    <contour>
      <point x="46" y="530" type="line"/>
      <point x="67" y="645" type="line"/>
      <point x="432" y="645" type="line"/>
      <point x="411" y="530" type="line"/>
    </contour>
  </outline>
</glyph>
<glyph name="Ibreve" format="1">
  <advance width="297"/>
  <unicode hex="012C"/>
  <outline>
    <contour>
      <point x="199" y="700" type="line"/>
      <point x="345" y="700" type="line"/>
      <point x="222" y="0" type="line"/>
      <point x="76" y="0" type="line"/>
    </contour>
    <contour>
      <point x="148" y="918" type="curve"/>
      <point x="240" y="918" type="line"/>
      <point x="234" y="885"/>
      <point x="252" y="854"/>
      <point x="300" y="854" type="curve" smooth="yes"/>
      <point x="348" y="854"/>
      <point x="376" y="885"/>
      <point x="382" y="918" type="curve"/>
      <point x="473" y="918" type="line"/>
      <point x="459" y="840"/>
      <point x="390" y="774"/>
      <point x="285" y="774" type="curve" smooth="yes"/>
      <point x="180" y="774"/>
      <point x="134" y="840"/>
    </contour>
  </outline>
</glyph>
<glyph name="iogonek" format="1">
  <advance width="271"/>
  <unicode hex="012F"/>
  <outline>
    <contour>
      <point x="170" y="638" type="curve" smooth="yes"/>
      <point x="177" y="680"/>
      <point x="218" y="712"/>
      <point x="262" y="712" type="curve" smooth="yes"/>
      <point x="306" y="712"/>
      <point x="333" y="680"/>
      <point x="326" y="638" type="curve" smooth="yes"/>
      <point x="319" y="596"/>
      <point x="279" y="564"/>
      <point x="235" y="564" type="curve" smooth="yes"/>
      <point x="191" y="564"/>
      <point x="163" y="596"/>
    </contour>
    <contour>
      <point x="153" y="460" type="line"/>
      <point x="279" y="460" type="line"/>
      <point x="198" y="0" type="line"/>
      <point x="72" y="0" type="line"/>
    </contour>
    <contour>
      <point x="172" y="-125" type="curve"/>
      <point x="195" y="-188" type="line"/>
      <point x="176" y="-208"/>
      <point x="144" y="-228"/>
      <point x="92" y="-228" type="curve" smooth="yes"/>
      <point x="22" y="-228"/>
      <point x="-22" y="-192"/>
      <point x="-11" y="-128" type="curve"/>
      <point x="88" y="-104" type="line"/>
      <point x="83" y="-132"/>
      <point x="92" y="-145"/>
      <point x="118" y="-145" type="curve" smooth="yes"/>
      <point x="140" y="-145"/>
      <point x="156" y="-138"/>
    </contour>
    <contour>
      <point x="88" y="-104" type="curve"/>
      <point x="-11" y="-128" type="line"/>
      <point x="0" y="-64"/>
      <point x="75" y="-20"/>
      <point x="151" y="16" type="curve"/>
      <point x="189" y="-8" type="line"/>
      <point x="132" y="-34"/>
      <point x="94" y="-72"/>
    </contour>
  </outline>
</glyph>
<glyph name="Idotaccent" format="1">
  <advance width="297"/>
  <unicode hex="0130"/>
  <outline>
    <contour>
      <point x="199" y="700" type="line"/>
      <point x="345" y="700" type="line"/>
      <point x="222" y="0" type="line"/>
      <point x="76" y="0" type="line"/>
    </contour>
    <contour>
      <point x="220" y="848" type="curve" smooth="yes"/>
      <point x="227" y="890"/>
      <point x="267" y="922"/>
      <point x="311" y="922" type="curve" smooth="yes"/>
      <point x="355" y="922"/>
      <point x="383" y="890"/>
      <point x="376" y="848" type="curve" smooth="yes"/>
      <point x="369" y="806"/>
      <point x="328" y="774"/>
      <point x="284" y="774" type="curve" smooth="yes"/>
      <point x="240" y="774"/>
      <point x="213" y="806"/>
    </contour>
  </outline>
</glyph>
<glyph name="IJ" format="1">
  <advance width="583"/>
  <unicode hex="0132"/>
  <outline>
    <contour>
      <point x="197" y="-76" type="line"/>
      <point x="211" y="-96"/>
      <point x="239" y="-109"/>
      <point x="271" y="-109" type="curve" smooth="yes"/>
      <point x="301" y="-109"/>
      <point x="340" y="-88"/>
      <point x="351" y="-26" type="curve" smooth="yes"/>
      <point x="479" y="700" type="line"/>
      <point x="631" y="700" type="line"/>
      <point x="498" y="-56" type="line" smooth="yes"/>
      <point x="476" y="-182"/>
      <point x="376" y="-234"/>
      <point x="260" y="-234" type="curve" smooth="yes"/>
      <point x="190" y="-234"/>
      <point x="129" y="-202"/>
      <point x="101" y="-178" type="curve"/>
    </contour>
    <contour>
      <point x="199" y="700" type="line"/>
      <point x="345" y="700" type="line"/>
      <point x="222" y="0" type="line"/>
      <point x="76" y="0" type="line"/>
    </contour>
  </outline>
</glyph>
<glyph name="ij" format="1">
  <advance width="534"/>
  <unicode hex="0133"/>
  <outline>
    <contour>
      <point x="432" y="638" type="curve" smooth="yes"/>
      <point x="439" y="680"/>
      <point x="481" y="712"/>
      <point x="525" y="712" type="curve" smooth="yes"/>
      <point x="569" y="712"/>
      <point x="596" y="680"/>
      <point x="589" y="638" type="curve" smooth="yes"/>
      <point x="582" y="596"/>
      <point x="542" y="564"/>
      <point x="498" y="564" type="curve" smooth="yes"/>
      <point x="454" y="564"/>
      <point x="425" y="596"/>
    </contour>
    <contour>
      <point x="225" y="-88" type="line"/>
      <point x="235" y="-108"/>
      <point x="250" y="-114"/>
      <point x="268" y="-114" type="curve" smooth="yes"/>
      <point x="298" y="-114"/>
      <point x="320" y="-91"/>
      <point x="329" y="-39" type="curve" smooth="yes"/>
      <point x="417" y="460" type="line"/>
      <point x="543" y="460" type="line"/>
      <point x="450" y="-68" type="line" smooth="yes"/>
      <point x="432" y="-172"/>
      <point x="365" y="-234"/>
      <point x="259" y="-234" type="curve" smooth="yes"/>
      <point x="199" y="-234"/>
      <point x="167" y="-206"/>
      <point x="151" y="-186" type="curve"/>
    </contour>
    <contour>
      <point x="170" y="638" type="curve" smooth="yes"/>
      <point x="177" y="680"/>
      <point x="218" y="712"/>
      <point x="262" y="712" type="curve" smooth="yes"/>
      <point x="306" y="712"/>
      <point x="333" y="680"/>
      <point x="326" y="638" type="curve" smooth="yes"/>
      <point x="319" y="596"/>
      <point x="279" y="564"/>
      <point x="235" y="564" type="curve" smooth="yes"/>
      <point x="191" y="564"/>
      <point x="163" y="596"/>
    </contour>
    <contour>
      <point x="153" y="460" type="line"/>
      <point x="279" y="460" type="line"/>
      <point x="198" y="0" type="line"/>
      <point x="72" y="0" type="line"/>
    </contour>
  </outline>
</glyph>
<glyph name="Jcircumflex" format="1">
  <advance width="303"/>
  <unicode hex="0134"/>
  <outline>
    <contour>
      <point x="-83" y="-76" type="line"/>
      <point x="-69" y="-96"/>
      <point x="-41" y="-109"/>
      <point x="-9" y="-109" type="curve" smooth="yes"/>
      <point x="21" y="-109"/>
      <point x="60" y="-88"/>
      <point x="71" y="-26" type="curve" smooth="yes"/>
      <point x="199" y="700" type="line"/>
      <point x="351" y="700" type="line"/>
      <point x="218" y="-56" type="line" smooth="yes"/>
      <point x="196" y="-182"/>
      <point x="95" y="-234"/>
      <point x="-21" y="-234" type="curve" smooth="yes"/>
      <point x="-91" y="-234"/>
      <point x="-151" y="-202"/>
      <point x="-179" y="-178" type="curve"/>
    </contour>
    <contour>
      <point x="304" y="863" type="line"/>
      <point x="191" y="774" type="line"/>
      <point x="113" y="836" type="line"/>
      <point x="324" y="976" type="line"/>
      <point x="485" y="836" type="line"/>
      <point x="384" y="774" type="line"/>
    </contour>
  </outline>
</glyph>
<glyph name="jcircumflex" format="1">
  <advance width="264"/>
  <unicode hex="0135"/>
  <outline>
    <contour>
      <point x="-45" y="-88" type="line"/>
      <point x="-35" y="-108"/>
      <point x="-20" y="-114"/>
      <point x="-2" y="-114" type="curve" smooth="yes"/>
      <point x="28" y="-114"/>
      <point x="50" y="-91"/>
      <point x="59" y="-39" type="curve" smooth="yes"/>
      <point x="147" y="460" type="line"/>
      <point x="274" y="460" type="line"/>
      <point x="181" y="-68" type="line" smooth="yes"/>
      <point x="163" y="-172"/>
      <point x="97" y="-234"/>
      <point x="-9" y="-234" type="curve" smooth="yes"/>
      <point x="-69" y="-234"/>
      <point x="-101" y="-206"/>
      <point x="-117" y="-186" type="curve"/>
    </contour>
    <contour>
      <point x="239" y="619" type="line"/>
      <point x="125" y="530" type="line"/>
      <point x="47" y="592" type="line"/>
      <point x="259" y="732" type="line"/>
      <point x="420" y="592" type="line"/>
      <point x="319" y="530" type="line"/>
    </contour>
  </outline>
</glyph>
<glyph name="uni0136" format="1">
  <advance width="659"/>
  <unicode hex="0136"/>
  <outline>
    <contour>
      <point x="199" y="700" type="line"/>
      <point x="347" y="700" type="line"/>
      <point x="224" y="0" type="line"/>
      <point x="76" y="0" type="line"/>
    </contour>
    <contour>
      <point x="596" y="700" type="line"/>
      <point x="767" y="700" type="line"/>
      <point x="420" y="372" type="line"/>
      <point x="658" y="0" type="line"/>
      <point x="484" y="0" type="line"/>
      <point x="247" y="368" type="line"/>
    </contour>
    <contour>
      <point x="317" y="-60" type="line"/>
      <point x="444" y="-92" type="line"/>
      <point x="278" y="-342" type="line"/>
      <point x="184" y="-319" type="line"/>
    </contour>
  </outline>
</glyph>
<glyph name="uni0137" format="1">
  <advance width="536"/>
  <unicode hex="0137"/>
  <outline>
    <contour>
      <point x="200" y="780" type="line"/>
      <point x="325" y="780" type="line"/>
      <point x="187" y="0" type="line"/>
      <point x="62" y="0" type="line"/>
    </contour>
    <contour>
      <point x="436" y="460" type="line"/>
      <point x="593" y="460" type="line"/>
      <point x="362" y="270" type="line"/>
      <point x="532" y="0" type="line"/>
      <point x="377" y="0" type="line"/>
      <point x="206" y="270" type="line"/>
    </contour>
    <contour>
      <point x="247" y="-60" type="line"/>
      <point x="372" y="-92" type="line"/>
      <point x="208" y="-342" type="line"/>
      <point x="114" y="-319" type="line"/>
    </contour>
  </outline>
</glyph>
<glyph name="Lacute" format="1">
  <advance width="504"/>
  <unicode hex="0139"/>
  <outline>
    <contour>
      <point x="168" y="0" type="line"/>
      <point x="190" y="126" type="line"/>
      <point x="521" y="126" type="line"/>
      <point x="499" y="0" type="line"/>
    </contour>
    <contour>
      <point x="199" y="700" type="line"/>
      <point x="343" y="700" type="line"/>
      <point x="220" y="0" type="line"/>
      <point x="76" y="0" type="line"/>
    </contour>
    <contour>
      <point x="602" y="924" type="line"/>
      <point x="395" y="774" type="line"/>
      <point x="330" y="814" type="line"/>
      <point x="508" y="974" type="line"/>
    </contour>
  </outline>
</glyph>
<glyph name="Ldot" format="1">
  <advance width="504"/>
  <unicode hex="013F"/>
  <outline>
    <contour>
      <point x="168" y="0" type="line"/>
      <point x="190" y="126" type="line"/>
      <point x="521" y="126" type="line"/>
      <point x="499" y="0" type="line"/>
    </contour>
    <contour>
      <point x="199" y="700" type="line"/>
      <point x="343" y="700" type="line"/>
      <point x="220" y="0" type="line"/>
      <point x="76" y="0" type="line"/>
    </contour>
    <contour>
      <point x="374" y="417" type="curve" smooth="yes"/>
      <point x="382" y="461"/>
      <point x="422" y="498"/>
      <point x="470" y="498" type="curve" smooth="yes"/>
      <point x="518" y="498"/>
      <point x="546" y="461"/>
      <point x="538" y="417" type="curve" smooth="yes"/>
      <point x="530" y="373"/>
      <point x="489" y="336"/>
      <point x="441" y="336" type="curve" smooth="yes"/>
      <point x="393" y="336"/>
      <point x="366" y="373"/>
    </contour>
  </outline>
</glyph>
<glyph name="Lslash" format="1">
  <advance width="503"/>
  <unicode hex="0141"/>
  <outline>
    <contour>
      <point x="61" y="320" type="line"/>
      <point x="41" y="388" type="line"/>
      <point x="409" y="605" type="line"/>
      <point x="429" y="538" type="line"/>
    </contour>
    <contour>
      <point x="176" y="0" type="line"/>
      <point x="198" y="122" type="line"/>
      <point x="516" y="122" type="line"/>
      <point x="494" y="0" type="line"/>
    </contour>
    <contour>
      <point x="199" y="700" type="line"/>
      <point x="337" y="700" type="line"/>
      <point x="214" y="0" type="line"/>
      <point x="76" y="0" type="line"/>
    </contour>
  </outline>
</glyph>
<glyph name="lslash" format="1">
  <advance width="255"/>
  <unicode hex="0142"/>
  <outline>
    <contour>
      <point x="54" y="320" type="line"/>
      <point x="34" y="388" type="line"/>
      <point x="368" y="580" type="line"/>
      <point x="389" y="514" type="line"/>
    </contour>
    <contour>
      <point x="203" y="780" type="line"/>
      <point x="328" y="780" type="line"/>
      <point x="190" y="0" type="line"/>
      <point x="65" y="0" type="line"/>
    </contour>
  </outline>
</glyph>
<glyph name="Nacute" format="1">
  <advance width="787"/>
  <unicode hex="0143"/>
  <outline>
    <contour>
      <point x="177" y="548" type="line"/>
      <point x="206" y="735" type="line"/>
      <point x="735" y="152" type="line"/>
      <point x="706" y="-35" type="line"/>
    </contour>
    <contour>
      <point x="696" y="700" type="line"/>
      <point x="835" y="700" type="line"/>
      <point x="706" y="-35" type="line"/>
      <point x="596" y="128" type="line"/>
    </contour>
    <contour>
      <point x="206" y="735" type="line"/>
      <point x="317" y="572" type="line"/>
      <point x="216" y="0" type="line"/>
      <point x="76" y="0" type="line"/>
    </contour>
    <contour>
      <point x="695" y="915" type="line"/>
      <point x="489" y="765" type="line"/>
      <point x="422" y="804" type="line"/>
      <point x="600" y="964" type="line"/>
    </contour>
  </outline>
</glyph>
<glyph name="Ncaron" format="1">
  <advance width="787"/>
  <unicode hex="0147"/>
  <outline>
    <contour>
      <point x="177" y="548" type="line"/>
      <point x="206" y="735" type="line"/>
      <point x="735" y="152" type="line"/>
      <point x="706" y="-35" type="line"/>
    </contour>
    <contour>
      <point x="696" y="700" type="line"/>
      <point x="835" y="700" type="line"/>
      <point x="706" y="-35" type="line"/>
      <point x="596" y="128" type="line"/>
    </contour>
    <contour>
      <point x="206" y="735" type="line"/>
      <point x="317" y="572" type="line"/>
      <point x="216" y="0" type="line"/>
      <point x="76" y="0" type="line"/>
    </contour>
    <contour>
      <point x="540" y="896" type="line"/>
      <point x="653" y="984" type="line"/>
      <point x="731" y="922" type="line"/>
      <point x="520" y="782" type="line"/>
      <point x="359" y="922" type="line"/>
      <point x="460" y="984" type="line"/>
    </contour>
  </outline>
</glyph>
<glyph name="napostrophe" format="1">
  <advance width="713"/>
  <unicode hex="0149"/>
  <outline>
    <contour>
      <point x="429" y="460" type="line"/>
      <point x="348" y="0" type="line"/>
      <point x="218" y="0" type="line"/>
      <point x="299" y="460" type="line"/>
    </contour>
    <contour>
      <point x="564" y="280" type="line" smooth="yes"/>
      <point x="575" y="340"/>
      <point x="558" y="374"/>
      <point x="504" y="374" type="curve" smooth="yes"/>
      <point x="450" y="374"/>
      <point x="407" y="338"/>
      <point x="397" y="280" type="curve"/>
      <point x="365" y="276" type="line"/>
      <point x="384" y="385"/>
      <point x="463" y="470"/>
      <point x="571" y="470" type="curve" smooth="yes"/>
      <point x="679" y="470"/>
      <point x="722" y="408"/>
      <point x="702" y="294" type="curve" smooth="yes"/>
      <point x="650" y="0" type="line"/>
      <point x="515" y="0" type="line"/>
    </contour>
    <contour>
      <point x="239" y="700" type="line"/>
      <point x="378" y="700" type="line"/>
      <point x="234" y="452" type="line"/>
      <point x="142" y="452" type="line"/>
    </contour>
  </outline>
</glyph>
<glyph name="omacron" format="1">
  <advance width="576"/>
  <unicode hex="014D"/>
  <outline>
    <contour>
      <point x="74" y="230" type="curve" smooth="yes"/>
      <point x="99" y="374"/>
      <point x="225" y="470"/>
      <point x="371" y="470" type="curve" smooth="yes"/>
      <point x="517" y="470"/>
      <point x="610" y="374"/>
      <point x="585" y="230" type="curve" smooth="yes"/>
      <point x="560" y="86"/>
      <point x="432" y="-10"/>
      <point x="286" y="-10" type="curve" smooth="yes"/>
      <point x="140" y="-10"/>
      <point x="49" y="86"/>
    </contour>
    <contour>
      <point x="207" y="230" type="curve" smooth="yes"/>
      <point x="193" y="152"/>
      <point x="238" y="100"/>
      <point x="306" y="100" type="curve" smooth="yes"/>
      <point x="374" y="100"/>
      <point x="437" y="152"/>
      <point x="451" y="230" type="curve" smooth="yes"/>
      <point x="465" y="308"/>
      <point x="419" y="360"/>
      <point x="351" y="360" type="curve" smooth="yes"/>
      <point x="283" y="360"/>
      <point x="221" y="308"/>
    </contour>
    <contour>
      <point x="199" y="530" type="line"/>
      <point x="220" y="645" type="line"/>
      <point x="584" y="645" type="line"/>
      <point x="563" y="530" type="line"/>
    </contour>
  </outline>
</glyph>
<glyph name="Obreve" format="1">
  <advance width="811"/>
  <unicode hex="014E"/>
  <outline>
    <contour>
      <point x="250" y="350" type="curve" smooth="yes"/>
      <point x="226" y="216"/>
      <point x="299" y="120"/>
      <point x="427" y="120" type="curve" smooth="yes"/>
      <point x="555" y="120"/>
      <point x="662" y="216"/>
      <point x="686" y="350" type="curve" smooth="yes"/>
      <point x="710" y="484"/>
      <point x="639" y="580"/>
      <point x="508" y="580" type="curve" smooth="yes"/>
      <point x="380" y="580"/>
      <point x="274" y="484"/>
    </contour>
    <contour>
      <point x="98" y="350" type="curve" smooth="yes"/>
      <point x="135" y="562"/>
      <point x="321" y="714"/>
      <point x="532" y="714" type="curve" smooth="yes"/>
      <point x="744" y="714"/>
      <point x="875" y="562"/>
      <point x="838" y="350" type="curve" smooth="yes"/>
      <point x="801" y="138"/>
      <point x="618" y="-18"/>
      <point x="403" y="-18" type="curve" smooth="yes"/>
      <point x="188" y="-18"/>
      <point x="61" y="138"/>
    </contour>
    <contour>
      <point x="406" y="918" type="curve"/>
      <point x="496" y="918" type="line"/>
      <point x="490" y="885"/>
      <point x="509" y="854"/>
      <point x="557" y="854" type="curve" smooth="yes"/>
      <point x="605" y="854"/>
      <point x="634" y="885"/>
      <point x="640" y="918" type="curve"/>
      <point x="730" y="918" type="line"/>
      <point x="716" y="840"/>
      <point x="647" y="774"/>
      <point x="542" y="774" type="curve" smooth="yes"/>
      <point x="437" y="774"/>
      <point x="392" y="840"/>
    </contour>
  </outline>
</glyph>
<glyph name="uni0157" format="1">
  <advance width="390"/>
  <unicode hex="0157"/>
  <outline>
    <contour>
      <point x="273" y="460" type="line"/>
      <point x="192" y="0" type="line"/>
      <point x="64" y="0" type="line"/>
      <point x="145" y="460" type="line"/>
    </contour>
    <contour>
      <point x="384" y="324" type="line"/>
      <point x="369" y="340"/>
      <point x="355" y="350"/>
      <point x="329" y="350" type="curve" smooth="yes"/>
      <point x="280" y="350"/>
      <point x="247" y="309"/>
      <point x="235" y="243" type="curve"/>
      <point x="205" y="280" type="line"/>
      <point x="224" y="389"/>
      <point x="311" y="470"/>
      <point x="385" y="470" type="curve" smooth="yes"/>
      <point x="418" y="470"/>
      <point x="449" y="458"/>
      <point x="463" y="434" type="curve"/>
    </contour>
    <contour>
      <point x="96" y="-60" type="line"/>
      <point x="222" y="-92" type="line"/>
      <point x="56" y="-342" type="line"/>
      <point x="-37" y="-319" type="line"/>
    </contour>
  </outline>
</glyph>
<glyph name="rcaron" format="1">
  <advance width="390"/>
  <unicode hex="0159"/>
  <outline>
    <contour>
      <point x="273" y="460" type="line"/>
      <point x="192" y="0" type="line"/>
      <point x="64" y="0" type="line"/>
      <point x="145" y="460" type="line"/>
    </contour>
    <contour>
      <point x="384" y="324" type="line"/>
      <point x="369" y="340"/>
      <point x="355" y="350"/>
      <point x="329" y="350" type="curve" smooth="yes"/>
      <point x="280" y="350"/>
      <point x="247" y="309"/>
      <point x="235" y="243" type="curve"/>
      <point x="205" y="280" type="line"/>
      <point x="224" y="389"/>
      <point x="311" y="470"/>
      <point x="385" y="470" type="curve" smooth="yes"/>
      <point x="418" y="470"/>
      <point x="449" y="458"/>
      <point x="463" y="434" type="curve"/>
    </contour>
    <contour>
      <point x="339" y="644" type="line"/>
      <point x="451" y="732" type="line"/>
      <point x="529" y="670" type="line"/>
      <point x="318" y="530" type="line"/>
      <point x="157" y="670" type="line"/>
      <point x="257" y="732" type="line"/>
    </contour>
  </outline>
</glyph>
<glyph name="Ydieresis" format="1">
  <advance width="630"/>
  <unicode hex="0178"/>
  <outline>
    <contour>
      <point x="305" y="360" type="line"/>
      <point x="451" y="360" type="line"/>
      <point x="388" y="0" type="line"/>
      <point x="242" y="0" type="line"/>
    </contour>
    <contour>
      <point x="587" y="700" type="line"/>
      <point x="753" y="700" type="line"/>
      <point x="344" y="166" type="line"/>
      <point x="123" y="700" type="line"/>
      <point x="289" y="700" type="line"/>
      <point x="389" y="418" type="line"/>
    </contour>
    <contour>
      <point x="516" y="848" type="curve" smooth="yes"/>
      <point x="523" y="890"/>
      <point x="563" y="922"/>
      <point x="607" y="922" type="curve" smooth="yes"/>
      <point x="651" y="922"/>
      <point x="680" y="890"/>
      <point x="673" y="848" type="curve" smooth="yes"/>
      <point x="666" y="806"/>
      <point x="624" y="774"/>
      <point x="580" y="774" type="curve" smooth="yes"/>
      <point x="536" y="774"/>
      <point x="509" y="806"/>
    </contour>
    <contour>
      <point x="258" y="848" type="curve" smooth="yes"/>
      <point x="265" y="890"/>
      <point x="305" y="922"/>
      <point x="349" y="922" type="curve" smooth="yes"/>
      <point x="393" y="922"/>
      <point x="421" y="890"/>
      <point x="414" y="848" type="curve" smooth="yes"/>
      <point x="407" y="806"/>
      <point x="366" y="774"/>
      <point x="322" y="774" type="curve" smooth="yes"/>
      <point x="278" y="774"/>
      <point x="251" y="806"/>
    </contour>
  </outline>
</glyph>
<glyph name="Zacute" format="1">
  <advance width="597"/>
  <unicode hex="0179"/>
  <outline>
    <contour>
      <point x="151" y="570" type="line"/>
      <point x="173" y="700" type="line"/>
      <point x="705" y="700" type="line"/>
      <point x="260" y="126" type="line"/>
      <point x="572" y="126" type="line"/>
      <point x="550" y="0" type="line"/>
      <point x="10" y="0" type="line"/>
      <point x="453" y="570" type="line"/>
    </contour>
    <contour>
      <point x="639.225" y="924" type="line"/>
      <point x="432.225" y="774" type="line"/>
      <point x="365.225" y="812" type="line"/>
      <point x="543.225" y="972" type="line"/>
    </contour>
  </outline>
</glyph>
<glyph name="zacute" format="1">
  <advance width="503"/>
  <unicode hex="017A"/>
  <outline>
    <contour>
      <point x="329" y="341" type="line"/>
      <point x="114" y="341" type="line"/>
      <point x="135" y="460" type="line"/>
      <point x="570" y="460" type="line"/>
      <point x="263" y="119" type="line"/>
      <point x="481" y="119" type="line"/>
      <point x="460" y="0" type="line"/>
      <point x="15" y="0" type="line"/>
    </contour>
    <contour>
      <point x="552.02" y="680" type="line"/>
      <point x="345.02" y="530" type="line"/>
      <point x="278.02" y="568" type="line"/>
      <point x="456.02" y="728" type="line"/>
    </contour>
  </outline>
</glyph>
<glyph name="Zdotaccent" format="1">
  <advance width="597"/>
  <unicode hex="017B"/>
  <outline>
    <contour>
      <point x="151" y="570" type="line"/>
      <point x="173" y="700" type="line"/>
      <point x="705" y="700" type="line"/>
      <point x="260" y="126" type="line"/>
      <point x="572" y="126" type="line"/>
      <point x="550" y="0" type="line"/>
      <point x="10" y="0" type="line"/>
      <point x="453" y="570" type="line"/>
    </contour>
    <contour>
      <point x="387.272" y="848" type="curve" smooth="yes"/>
      <point x="394.272" y="890"/>
      <point x="435.272" y="922"/>
      <point x="479.272" y="922" type="curve" smooth="yes"/>
      <point x="523.272" y="922"/>
      <point x="550.272" y="890"/>
      <point x="543.272" y="848" type="curve" smooth="yes"/>
      <point x="536.272" y="806"/>
      <point x="496.272" y="774"/>
      <point x="452.272" y="774" type="curve" smooth="yes"/>
      <point x="408.272" y="774"/>
      <point x="380.272" y="806"/>
    </contour>
  </outline>
</glyph>
<glyph name="zdotaccent" format="1">
  <advance width="503"/>
  <unicode hex="017C"/>
  <outline>
    <contour>
      <point x="329" y="341" type="line"/>
      <point x="114" y="341" type="line"/>
      <point x="135" y="460" type="line"/>
      <point x="570" y="460" type="line"/>
      <point x="263" y="119" type="line"/>
      <point x="481" y="119" type="line"/>
      <point x="460" y="0" type="line"/>
      <point x="15" y="0" type="line"/>
    </contour>
    <contour>
      <point x="300.067" y="614" type="curve" smooth="yes"/>
      <point x="307.067" y="656"/>
      <point x="348.067" y="688"/>
      <point x="392.067" y="688" type="curve" smooth="yes"/>
      <point x="436.067" y="688"/>
      <point x="463.067" y="656"/>
      <point x="456.067" y="614" type="curve" smooth="yes"/>
      <point x="449.067" y="572"/>
      <point x="409.067" y="540"/>
      <point x="365.067" y="540" type="curve" smooth="yes"/>
      <point x="321.067" y="540"/>
      <point x="293.067" y="572"/>
    </contour>
  </outline>
</glyph>
<glyph name="zcaron" format="1">
  <advance width="499"/>
  <unicode hex="017E"/>
  <outline>
    <contour>
      <point x="160" y="119" type="line"/>
      <point x="481" y="119" type="line"/>
      <point x="460" y="0" type="line"/>
      <point x="15" y="0" type="line"/>
    </contour>
    <contour>
      <point x="135" y="460" type="line"/>
      <point x="570" y="460" type="line"/>
      <point x="422" y="341" type="line"/>
      <point x="114" y="341" type="line"/>
    </contour>
    <contour>
      <point x="441" y="460" type="line"/>
      <point x="570" y="460" type="line"/>
      <point x="158" y="0" type="line"/>
      <point x="15" y="0" type="line"/>
    </contour>
    <contour>
      <point x="385" y="644" type="line"/>
      <point x="497" y="732" type="line"/>
      <point x="576" y="670" type="line"/>
      <point x="364" y="530" type="line"/>
      <point x="203" y="670" type="line"/>
      <point x="304" y="732" type="line"/>
    </contour>
  </outline>
</glyph>
<glyph name="uni0213" format="1">
  <advance width="390"/>
  <unicode hex="0213"/>
  <outline>
    <contour>
      <point x="273" y="460" type="line"/>
      <point x="192" y="0" type="line"/>
      <point x="64" y="0" type="line"/>
      <point x="145" y="460" type="line"/>
    </contour>
    <contour>
      <point x="384" y="324" type="line"/>
      <point x="369" y="340"/>
      <point x="355" y="350"/>
      <point x="329" y="350" type="curve" smooth="yes"/>
      <point x="280" y="350"/>
      <point x="247" y="309"/>
      <point x="235" y="243" type="curve"/>
      <point x="205" y="280" type="line"/>
      <point x="224" y="389"/>
      <point x="311" y="470"/>
      <point x="385" y="470" type="curve" smooth="yes"/>
      <point x="418" y="470"/>
      <point x="449" y="458"/>
      <point x="463" y="434" type="curve"/>
    </contour>
    <contour>
      <point x="156" y="530" type="curve"/>
      <point x="247" y="530" type="line"/>
      <point x="253" y="563"/>
      <point x="283" y="594"/>
      <point x="331" y="594" type="curve" smooth="yes"/>
      <point x="379" y="594"/>
      <point x="396" y="563"/>
      <point x="390" y="530" type="curve"/>
      <point x="481" y="530" type="line"/>
      <point x="495" y="608"/>
      <point x="450" y="676"/>
      <point x="345" y="676" type="curve" smooth="yes"/>
      <point x="240" y="676"/>
      <point x="170" y="608"/>
    </contour>
  </outline>
</glyph>
<glyph name="caron" format="1">
  <advance width="480"/>
  <unicode hex="02C7"/>
  <outline>
    <contour>
      <point x="358" y="670" type="line"/>
      <point x="470" y="758" type="line"/>
      <point x="549" y="696" type="line"/>
      <point x="338" y="556" type="line"/>
      <point x="177" y="696" type="line"/>
      <point x="278" y="758" type="line"/>
    </contour>
  </outline>
</glyph>
<glyph name="dotaccent" format="1">
  <advance width="300"/>
  <unicode hex="02D9"/>
  <outline>
    <contour>
      <point x="214" y="808" type="curve" smooth="yes"/>
      <point x="221" y="850"/>
      <point x="262" y="882"/>
      <point x="306" y="882" type="curve" smooth="yes"/>
      <point x="350" y="882"/>
      <point x="377" y="850"/>
      <point x="370" y="808" type="curve" smooth="yes"/>
      <point x="363" y="766"/>
      <point x="323" y="734"/>
      <point x="279" y="734" type="curve" smooth="yes"/>
      <point x="235" y="734"/>
      <point x="207" y="766"/>
    </contour>
  </outline>
</glyph>
<glyph name="tilde" format="1">
  <advance width="530"/>
  <unicode hex="02DC"/>
  <outline>
    <contour>
      <point x="194" y="634" type="line"/>
      <point x="213" y="683"/>
      <point x="267" y="724"/>
      <point x="325" y="724" type="curve" smooth="yes"/>
      <point x="391" y="724"/>
      <point x="393" y="674"/>
      <point x="449" y="674" type="curve" smooth="yes"/>
      <point x="473" y="674"/>
      <point x="494" y="694"/>
      <point x="520" y="726" type="curve"/>
      <point x="572" y="660" type="line"/>
      <point x="549" y="623"/>
      <point x="491" y="578"/>
      <point x="433" y="578" type="curve" smooth="yes"/>
      <point x="378" y="578"/>
      <point x="355" y="630"/>
      <point x="307" y="630" type="curve" smooth="yes"/>
      <point x="268" y="630"/>
      <point x="253" y="595"/>
      <point x="250" y="580" type="curve"/>
    </contour>
  </outline>
</glyph>
<glyph name="pi" format="1">
  <advance width="583"/>
  <unicode hex="03C0"/>
  <outline>
    <contour>
      <point x="166" y="430" type="line"/>
      <point x="290" y="430" type="line"/>
      <point x="214" y="0" type="line"/>
      <point x="90" y="0" type="line"/>
    </contour>
    <contour>
      <point x="111" y="460" type="line"/>
      <point x="625" y="460" type="line"/>
      <point x="606" y="350" type="line"/>
      <point x="92" y="350" type="line"/>
    </contour>
    <contour>
      <point x="416" y="430" type="line"/>
      <point x="540" y="430" type="line"/>
      <point x="493" y="167" type="line" smooth="yes"/>
      <point x="481" y="101"/>
      <point x="504" y="97"/>
      <point x="534" y="97" type="curve"/>
      <point x="515" y="-9" type="line"/>
      <point x="400" y="-9"/>
      <point x="340" y="3"/>
      <point x="361" y="121" type="curve" smooth="yes"/>
    </contour>
  </outline>
</glyph>
<glyph name="uni1E9E" format="1">
  <advance width="826"/>
  <unicode hex="1E9E"/>
  <outline>
    <contour>
      <point x="145" y="370" type="line"/>
      <point x="281" y="354" type="line"/>
      <point x="219" y="0" type="line"/>
      <point x="80" y="0" type="line"/>
    </contour>
    <contour>
      <point x="539" y="345" type="curve"/>
      <point x="550" y="410" type="line"/>
      <point x="632" y="410"/>
      <point x="688" y="451"/>
      <point x="698" y="509" type="curve" smooth="yes"/>
      <point x="708" y="563"/>
      <point x="660" y="600"/>
      <point x="560" y="600" type="curve" smooth="yes"/>
      <point x="435" y="600"/>
      <point x="312" y="531"/>
      <point x="281" y="354" type="curve"/>
      <point x="145" y="370" type="line"/>
      <point x="184" y="592"/>
      <point x="359" y="710"/>
      <point x="574" y="710" type="curve" smooth="yes"/>
      <point x="758" y="710"/>
      <point x="863" y="640"/>
      <point x="843" y="526" type="curve" smooth="yes"/>
      <point x="824" y="417"/>
      <point x="702" y="345"/>
    </contour>
    <contour>
      <point x="518" y="-14" type="curve" smooth="yes"/>
      <point x="352" y="-14"/>
      <point x="294" y="100"/>
      <point x="313" y="209" type="curve"/>
      <point x="439" y="209" type="line"/>
      <point x="428" y="147"/>
      <point x="467" y="102"/>
      <point x="538" y="102" type="curve" smooth="yes"/>
      <point x="610" y="102"/>
      <point x="657" y="138"/>
      <point x="668" y="202" type="curve" smooth="yes"/>
      <point x="681" y="276"/>
      <point x="623" y="313"/>
      <point x="533" y="313" type="curve"/>
      <point x="545" y="380" type="line"/>
      <point x="708" y="380"/>
      <point x="828" y="324"/>
      <point x="803" y="185" type="curve" smooth="yes"/>
      <point x="782" y="66"/>
      <point x="662" y="-14"/>
    </contour>
  </outline>
</glyph>
<glyph name="figuredash" format="1">
  <advance width="616"/>
  <unicode hex="2012"/>
  <outline>
    <contour>
      <point x="102" y="180" type="line"/>
      <point x="122" y="294" type="line"/>
      <point x="592" y="294" type="line"/>
      <point x="572" y="180" type="line"/>
    </contour>
  </outline>
</glyph>
<glyph name="endash" format="1">
  <advance width="770"/>
  <unicode hex="2013"/>
  <outline>
    <contour>
      <point x="102" y="180" type="line"/>
      <point x="122" y="294" type="line"/>
      <point x="748" y="294" type="line"/>
      <point x="728" y="180" type="line"/>
    </contour>
  </outline>
</glyph>
<glyph name="quoteleft" format="1">
  <advance width="314"/>
  <unicode hex="2018"/>
  <outline>
    <contour>
      <point x="289" y="452" type="line"/>
      <point x="150" y="452" type="line"/>
      <point x="295" y="700" type="line"/>
      <point x="388" y="700" type="line"/>
    </contour>
  </outline>
</glyph>
<glyph name="dagger" format="1">
  <advance width="613"/>
  <unicode hex="2020"/>
  <outline>
    <contour>
      <point x="185" y="540" type="line"/>
      <point x="619" y="540" type="line"/>
      <point x="600" y="430" type="line"/>
      <point x="166" y="430" type="line"/>
    </contour>
    <contour>
      <point x="368" y="700" type="line"/>
      <point x="492" y="700" type="line"/>
      <point x="343" y="-150" type="line"/>
      <point x="219" y="-150" type="line"/>
    </contour>
  </outline>
</glyph>
<glyph name="guilsinglleft" format="1">
  <advance width="350"/>
  <unicode hex="2039"/>
  <outline>
    <contour>
      <point x="165" y="235" type="line"/>
      <point x="77" y="255" type="line"/>
      <point x="301" y="504" type="line"/>
      <point x="372" y="445" type="line"/>
    </contour>
    <contour>
      <point x="77" y="255" type="line"/>
      <point x="174" y="285" type="line"/>
      <point x="305" y="65" type="line"/>
      <point x="213" y="6" type="line"/>
    </contour>
  </outline>
</glyph>
<glyph name="uni203D" format="1">
  <advance width="606"/>
  <unicode hex="203D"/>
  <outline>
    <contour>
      <point x="514" y="486" type="curve" smooth="yes"/>
      <point x="528" y="564"/>
      <point x="481" y="605"/>
      <point x="398" y="605" type="curve" smooth="yes"/>
      <point x="336" y="605"/>
      <point x="274" y="576"/>
      <point x="233" y="518" type="curve"/>
      <point x="156" y="591" type="line"/>
      <point x="214" y="661"/>
      <point x="307" y="716"/>
      <point x="431" y="716" type="curve" smooth="yes"/>
      <point x="561" y="716"/>
      <point x="662" y="632"/>
      <point x="639" y="500" type="curve" smooth="yes"/>
      <point x="614" y="359"/>
      <point x="453" y="282"/>
      <point x="338" y="282" type="curve"/>
      <point x="321" y="347" type="line"/>
      <point x="415" y="347"/>
      <point x="501" y="410"/>
    </contour>
    <contour>
      <point x="300" y="506" type="line"/>
      <point x="431" y="506" type="line"/>
      <point x="351" y="192" type="line"/>
      <point x="270" y="192" type="line"/>
    </contour>
    <contour>
      <point x="207" y="56" type="curve" smooth="yes"/>
      <point x="215" y="100"/>
      <point x="256" y="132"/>
      <point x="304" y="132" type="curve" smooth="yes"/>
      <point x="352" y="132"/>
      <point x="382" y="100"/>
      <point x="374" y="56" type="curve" smooth="yes"/>
      <point x="366" y="12"/>
      <point x="325" y="-22"/>
      <point x="277" y="-22" type="curve" smooth="yes"/>
      <point x="229" y="-22"/>
      <point x="199" y="12"/>
    </contour>
  </outline>
</glyph>
<glyph name="uni2070" format="1">
  <advance width="384"/>
  <unicode hex="2070"/>
  <outline>
    <contour>
      <point x="193" y="490" type="curve" smooth="yes"/>
      <point x="178" y="406"/>
      <point x="202" y="348"/>
      <point x="254" y="348" type="curve" smooth="yes"/>
      <point x="306" y="348"/>
      <point x="349" y="406"/>
      <point x="364" y="490" type="curve" smooth="yes"/>
      <point x="379" y="574"/>
      <point x="356" y="632"/>
      <point x="304" y="632" type="curve" smooth="yes"/>
      <point x="252" y="632"/>
      <point x="208" y="574"/>
    </contour>
    <contour>
      <point x="109" y="490" type="curve" smooth="yes"/>
      <point x="132" y="623"/>
      <point x="218" y="708"/>
      <point x="318" y="708" type="curve" smooth="yes"/>
      <point x="420" y="708"/>
      <point x="471" y="623"/>
      <point x="448" y="490" type="curve" smooth="yes"/>
      <point x="425" y="357"/>
      <point x="343" y="272"/>
      <point x="241" y="272" type="curve" smooth="yes"/>
      <point x="141" y="272"/>
      <point x="86" y="357"/>
    </contour>
  </outline>
</glyph>
<glyph name="uni2076" format="1">
  <advance width="372"/>
  <unicode hex="2076"/>
  <outline>
    <contour>
      <point x="186" y="423" type="curve" smooth="yes"/>
      <point x="178" y="375"/>
      <point x="207" y="344"/>
      <point x="251" y="344" type="curve" smooth="yes"/>
      <point x="295" y="344"/>
      <point x="333" y="375"/>
      <point x="341" y="423" type="curve" smooth="yes"/>
      <point x="349" y="471"/>
      <point x="323" y="502"/>
      <point x="279" y="502" type="curve" smooth="yes"/>
      <point x="235" y="502"/>
      <point x="194" y="471"/>
    </contour>
    <contour>
      <point x="319" y="696" type="line"/>
      <point x="429" y="696" type="line"/>
      <point x="265" y="538" type="line"/>
      <point x="249" y="534" type="line"/>
      <point x="273" y="556"/>
      <point x="293" y="559"/>
      <point x="322" y="559" type="curve" smooth="yes"/>
      <point x="386" y="559"/>
      <point x="441" y="505"/>
      <point x="427" y="423" type="curve" smooth="yes"/>
      <point x="410" y="325"/>
      <point x="327" y="269"/>
      <point x="237" y="269" type="curve" smooth="yes"/>
      <point x="147" y="269"/>
      <point x="84" y="325"/>
      <point x="101" y="423" type="curve" smooth="yes"/>
      <point x="108" y="465"/>
      <point x="132" y="500"/>
      <point x="161" y="530" type="curve" smooth="yes"/>
    </contour>
  </outline>
</glyph>
<glyph name="uni2081" format="1">
  <advance width="346"/>
  <unicode hex="2081"/>
  <outline>
    <contour>
      <point x="145" y="310" type="line"/>
      <point x="159" y="389" type="line"/>
      <point x="349" y="428" type="line"/>
      <point x="274" y="1" type="line"/>
      <point x="191" y="1" type="line"/>
      <point x="251" y="338" type="line"/>
    </contour>
  </outline>
</glyph>
<glyph name="uni2082" format="1">
  <advance width="391"/>
  <unicode hex="2082"/>
  <outline>
    <contour>
      <point x="27" y="2" type="line"/>
      <point x="254" y="202" type="line" smooth="yes"/>
      <point x="292" y="236"/>
      <point x="315" y="261"/>
      <point x="321" y="295" type="curve" smooth="yes"/>
      <point x="326" y="325"/>
      <point x="312" y="355"/>
      <point x="270" y="355" type="curve" smooth="yes"/>
      <point x="226" y="355"/>
      <point x="191" y="320"/>
      <point x="182" y="270" type="curve"/>
      <point x="96" y="270" type="line"/>
      <point x="112" y="359"/>
      <point x="181" y="430"/>
      <point x="284" y="430" type="curve" smooth="yes"/>
      <point x="384" y="430"/>
      <point x="421" y="360"/>
      <point x="410" y="297" type="curve" smooth="yes"/>
      <point x="402" y="253"/>
      <point x="371" y="215"/>
      <point x="330" y="183" type="curve" smooth="yes"/>
      <point x="204" y="82" type="line"/>
      <point x="379" y="82" type="line"/>
      <point x="365" y="2" type="line"/>
    </contour>
  </outline>
</glyph>
<glyph name="uni2083" format="1">
  <advance width="354"/>
  <unicode hex="2083"/>
  <outline>
    <contour>
      <point x="189" y="205" type="curve"/>
      <point x="196" y="246" type="line"/>
      <point x="244" y="246"/>
      <point x="281" y="275"/>
      <point x="287" y="308" type="curve" smooth="yes"/>
      <point x="292" y="338"/>
      <point x="278" y="357"/>
      <point x="243" y="357" type="curve" smooth="yes"/>
      <point x="209" y="357"/>
      <point x="181" y="334"/>
      <point x="175" y="302" type="curve"/>
      <point x="94" y="302" type="line"/>
      <point x="107" y="374"/>
      <point x="172" y="428"/>
      <point x="256" y="428" type="curve" smooth="yes"/>
      <point x="344" y="428"/>
      <point x="386" y="374"/>
      <point x="375" y="312" type="curve" smooth="yes"/>
      <point x="363" y="244"/>
      <point x="283" y="205"/>
    </contour>
    <contour>
      <point x="174" y="-9" type="curve" smooth="yes"/>
      <point x="78" y="-9"/>
      <point x="32" y="55"/>
      <point x="45" y="127" type="curve"/>
      <point x="130" y="127" type="line"/>
      <point x="123" y="85"/>
      <point x="151" y="63"/>
      <point x="190" y="63" type="curve" smooth="yes"/>
      <point x="229" y="63"/>
      <point x="260" y="83"/>
      <point x="267" y="122" type="curve" smooth="yes"/>
      <point x="274" y="162"/>
      <point x="246" y="187"/>
      <point x="186" y="187" type="curve"/>
      <point x="194" y="233" type="line"/>
      <point x="296" y="233"/>
      <point x="367" y="197"/>
      <point x="352" y="113" type="curve" smooth="yes"/>
      <point x="339" y="41"/>
      <point x="268" y="-9"/>
    </contour>
  </outline>
</glyph>
<glyph name="uni2084" format="1">
  <advance width="417"/>
  <unicode hex="2084"/>
  <outline>
    <contour>
      <point x="33" y="77" type="line"/>
      <point x="115" y="142" type="line"/>
      <point x="300" y="142" type="line" smooth="yes"/>
      <point x="312" y="152" type="line" smooth="yes"/>
      <point x="412" y="152" type="line"/>
      <point x="399" y="77" type="line"/>
    </contour>
    <contour>
      <point x="124" y="98" type="line"/>
      <point x="33" y="77" type="line"/>
      <point x="334" y="420" type="line"/>
      <point x="393" y="420" type="line"/>
      <point x="319" y="0" type="line"/>
      <point x="230" y="0" type="line"/>
      <point x="247" y="99" type="line" smooth="yes"/>
      <point x="257" y="105" type="line" smooth="yes"/>
      <point x="288" y="284" type="line"/>
    </contour>
  </outline>
</glyph>
<glyph name="uni2087" format="1">
  <advance width="375"/>
  <unicode hex="2087"/>
  <outline>
    <contour>
      <point x="88" y="339" type="line"/>
      <point x="102" y="420" type="line"/>
      <point x="430" y="420" type="line"/>
      <point x="153" y="0" type="line"/>
      <point x="62" y="0" type="line"/>
      <point x="288" y="339" type="line"/>
    </contour>
  </outline>
</glyph>
<glyph name="uni2088" format="1">
  <advance width="354"/>
  <unicode hex="2088"/>
  <outline>
    <contour>
      <point x="99" y="319" type="curve" smooth="yes"/>
      <point x="111" y="386"/>
      <point x="179" y="429"/>
      <point x="253" y="429" type="curve" smooth="yes"/>
      <point x="327" y="429"/>
      <point x="380" y="386"/>
      <point x="368" y="319" type="curve" smooth="yes"/>
      <point x="355" y="246"/>
      <point x="283" y="208"/>
      <point x="214" y="208" type="curve" smooth="yes"/>
      <point x="145" y="208"/>
      <point x="86" y="246"/>
    </contour>
    <contour>
      <point x="180" y="311" type="curve" smooth="yes"/>
      <point x="174" y="279"/>
      <point x="193" y="256"/>
      <point x="222" y="256" type="curve" smooth="yes"/>
      <point x="251" y="256"/>
      <point x="279" y="279"/>
      <point x="285" y="311" type="curve" smooth="yes"/>
      <point x="291" y="343"/>
      <point x="272" y="364"/>
      <point x="241" y="364" type="curve" smooth="yes"/>
      <point x="210" y="364"/>
      <point x="186" y="343"/>
    </contour>
    <contour>
      <point x="48" y="114" type="curve" smooth="yes"/>
      <point x="63" y="199"/>
      <point x="150" y="237"/>
      <point x="219" y="237" type="curve" smooth="yes"/>
      <point x="288" y="237"/>
      <point x="362" y="199"/>
      <point x="347" y="114" type="curve" smooth="yes"/>
      <point x="334" y="41"/>
      <point x="255" y="-9"/>
      <point x="175" y="-9" type="curve" smooth="yes"/>
      <point x="95" y="-9"/>
      <point x="35" y="41"/>
    </contour>
    <contour>
      <point x="136" y="127" type="curve" smooth="yes"/>
      <point x="129" y="85"/>
      <point x="154" y="62"/>
      <point x="188" y="62" type="curve" smooth="yes"/>
      <point x="222" y="62"/>
      <point x="256" y="85"/>
      <point x="263" y="127" type="curve" smooth="yes"/>
      <point x="269" y="163"/>
      <point x="244" y="189"/>
      <point x="210" y="189" type="curve" smooth="yes"/>
      <point x="176" y="189"/>
      <point x="142" y="163"/>
    </contour>
  </outline>
</glyph>
<glyph name="uni2089" format="1">
  <advance width="382"/>
  <unicode hex="2089"/>
  <outline>
    <contour>
      <point x="314" y="277" type="curve" smooth="yes"/>
      <point x="322" y="325"/>
      <point x="295" y="356"/>
      <point x="251" y="356" type="curve" smooth="yes"/>
      <point x="207" y="356"/>
      <point x="167" y="325"/>
      <point x="159" y="277" type="curve" smooth="yes"/>
      <point x="151" y="229"/>
      <point x="179" y="198"/>
      <point x="223" y="198" type="curve" smooth="yes"/>
      <point x="267" y="198"/>
      <point x="306" y="229"/>
    </contour>
    <contour>
      <point x="183" y="4" type="line"/>
      <point x="72" y="4" type="line"/>
      <point x="235" y="162" type="line"/>
      <point x="251" y="166" type="line"/>
      <point x="227" y="144"/>
      <point x="206" y="141"/>
      <point x="177" y="141" type="curve" smooth="yes"/>
      <point x="113" y="141"/>
      <point x="60" y="195"/>
      <point x="74" y="277" type="curve" smooth="yes"/>
      <point x="91" y="375"/>
      <point x="174" y="431"/>
      <point x="264" y="431" type="curve" smooth="yes"/>
      <point x="354" y="431"/>
      <point x="417" y="375"/>
      <point x="400" y="277" type="curve" smooth="yes"/>
      <point x="393" y="235"/>
      <point x="367" y="200"/>
      <point x="338" y="170" type="curve" smooth="yes"/>
    </contour>
  </outline>
</glyph>
<glyph name="Euro" format="1">
  <advance width="632"/>
  <unicode hex="20AC"/>
  <outline>
    <contour>
      <point x="111" y="390" type="line"/>
      <point x="123" y="462" type="line"/>
      <point x="618" y="462" type="line"/>
      <point x="606" y="390" type="line"/>
    </contour>
    <contour>
      <point x="78" y="261" type="line"/>
      <point x="91" y="334" type="line"/>
      <point x="574" y="334" type="line"/>
      <point x="561" y="261" type="line"/>
    </contour>
    <contour>
      <point x="282" y="350" type="curve" smooth="yes"/>
      <point x="255" y="196"/>
      <point x="314" y="105"/>
      <point x="420" y="105" type="curve" smooth="yes"/>
      <point x="477" y="105"/>
      <point x="532" y="127"/>
      <point x="580" y="167" type="curve"/>
      <point x="555" y="24" type="line"/>
      <point x="505" y="-2"/>
      <point x="452" y="-17"/>
      <point x="398" y="-17" type="curve" smooth="yes"/>
      <point x="210" y="-17"/>
      <point x="117" y="141"/>
      <point x="154" y="350" type="curve" smooth="yes"/>
      <point x="191" y="559"/>
      <point x="339" y="717"/>
      <point x="527" y="717" type="curve" smooth="yes"/>
      <point x="581" y="717"/>
      <point x="630" y="702"/>
      <point x="670" y="676" type="curve"/>
      <point x="645" y="533" type="line"/>
      <point x="611" y="573"/>
      <point x="563" y="595"/>
      <point x="506" y="595" type="curve" smooth="yes"/>
      <point x="400" y="595"/>
      <point x="309" y="504"/>
    </contour>
  </outline>
</glyph>
<glyph name="trademark" format="1">
  <advance width="721"/>
  <unicode hex="2122"/>
  <outline>
    <contour>
      <point x="142" y="635" type="line"/>
      <point x="153" y="700" type="line"/>
      <point x="415" y="700" type="line"/>
      <point x="404" y="635" type="line"/>
      <point x="308" y="635" type="line"/>
      <point x="258" y="350" type="line"/>
      <point x="187" y="350" type="line"/>
      <point x="237" y="635" type="line"/>
    </contour>
    <contour>
      <point x="695" y="596" type="line"/>
      <point x="768" y="717" type="line"/>
      <point x="756" y="350" type="line"/>
      <point x="680" y="350" type="line"/>
    </contour>
    <contour>
      <point x="474" y="717" type="line"/>
      <point x="505" y="596" type="line"/>
      <point x="434" y="350" type="line"/>
      <point x="358" y="350" type="line"/>
    </contour>
    <contour>
      <point x="768" y="717" type="line"/>
      <point x="750" y="611" type="line"/>
      <point x="562" y="382" type="line"/>
      <point x="456" y="611" type="line"/>
      <point x="474" y="717" type="line"/>
      <point x="582" y="492" type="line"/>
    </contour>
  </outline>
</glyph>
<glyph name="uni2150" format="1">
  <advance width="912"/>
  <unicode hex="2150"/>
  <outline>
    <contour>
      <point x="717" y="700" type="line"/>
      <point x="821" y="700" type="line"/>
      <point x="178" y="0" type="line"/>
      <point x="74" y="0" type="line"/>
    </contour>
    <contour>
      <point x="129" y="584" type="line"/>
      <point x="143" y="662" type="line"/>
      <point x="334" y="702" type="line"/>
      <point x="258" y="274" type="line"/>
      <point x="174" y="274" type="line"/>
      <point x="234" y="610" type="line"/>
    </contour>
    <contour>
      <point x="620" y="339" type="line"/>
      <point x="634" y="420" type="line"/>
      <point x="962" y="420" type="line"/>
      <point x="686" y="0" type="line"/>
      <point x="593" y="0" type="line"/>
      <point x="820" y="339" type="line"/>
    </contour>
  </outline>
</glyph>
<glyph name="twothirds" format="1">
  <advance width="969"/>
  <unicode hex="2154"/>
  <outline>
    <contour>
      <point x="853" y="700" type="line"/>
      <point x="957" y="700" type="line"/>
      <point x="314" y="0" type="line"/>
      <point x="210" y="0" type="line"/>
    </contour>
    <contour>
      <point x="80" y="282" type="line"/>
      <point x="306" y="482" type="line" smooth="yes"/>
      <point x="344" y="516"/>
      <point x="367" y="541"/>
      <point x="373" y="575" type="curve" smooth="yes"/>
      <point x="378" y="605"/>
      <point x="364" y="635"/>
      <point x="322" y="635" type="curve" smooth="yes"/>
      <point x="278" y="635"/>
      <point x="242" y="600"/>
      <point x="233" y="550" type="curve"/>
      <point x="148" y="550" type="line"/>
      <point x="164" y="639"/>
      <point x="234" y="710"/>
      <point x="337" y="710" type="curve" smooth="yes"/>
      <point x="437" y="710"/>
      <point x="473" y="640"/>
      <point x="462" y="577" type="curve" smooth="yes"/>
      <point x="454" y="533"/>
      <point x="425" y="495"/>
      <point x="384" y="463" type="curve" smooth="yes"/>
      <point x="257" y="362" type="line"/>
      <point x="432" y="362" type="line"/>
      <point x="418" y="282" type="line"/>
    </contour>
    <contour>
      <point x="802" y="205" type="curve"/>
      <point x="809" y="246" type="line"/>
      <point x="857" y="246"/>
      <point x="894" y="275"/>
      <point x="900" y="308" type="curve" smooth="yes"/>
      <point x="905" y="338"/>
      <point x="892" y="357"/>
      <point x="857" y="357" type="curve" smooth="yes"/>
      <point x="823" y="357"/>
      <point x="793" y="334"/>
      <point x="787" y="302" type="curve"/>
      <point x="707" y="302" type="line"/>
      <point x="720" y="374"/>
      <point x="785" y="428"/>
      <point x="869" y="428" type="curve" smooth="yes"/>
      <point x="957" y="428"/>
      <point x="998" y="374"/>
      <point x="987" y="312" type="curve" smooth="yes"/>
      <point x="975" y="244"/>
      <point x="896" y="205"/>
    </contour>
    <contour>
      <point x="788" y="-9" type="curve" smooth="yes"/>
      <point x="692" y="-9"/>
      <point x="645" y="55"/>
      <point x="658" y="127" type="curve"/>
      <point x="744" y="127" type="line"/>
      <point x="737" y="85"/>
      <point x="764" y="63"/>
      <point x="803" y="63" type="curve" smooth="yes"/>
      <point x="842" y="63"/>
      <point x="873" y="83"/>
      <point x="880" y="122" type="curve" smooth="yes"/>
      <point x="887" y="162"/>
      <point x="859" y="187"/>
      <point x="799" y="187" type="curve"/>
      <point x="807" y="233" type="line"/>
      <point x="909" y="233"/>
      <point x="979" y="197"/>
      <point x="964" y="113" type="curve" smooth="yes"/>
      <point x="951" y="41"/>
      <point x="882" y="-9"/>
    </contour>
  </outline>
</glyph>
<glyph name="uni2159" format="1">
  <advance width="830"/>
  <unicode hex="2159"/>
  <outline>
    <contour>
      <point x="726" y="700" type="line"/>
      <point x="831" y="700" type="line"/>
      <point x="188" y="0" type="line"/>
      <point x="83" y="0" type="line"/>
    </contour>
    <contour>
      <point x="129" y="584" type="line"/>
      <point x="143" y="662" type="line"/>
      <point x="334" y="702" type="line"/>
      <point x="258" y="274" type="line"/>
      <point x="174" y="274" type="line"/>
      <point x="234" y="610" type="line"/>
    </contour>
    <contour>
      <point x="588" y="143" type="curve" smooth="yes"/>
      <point x="580" y="95"/>
      <point x="607" y="64"/>
      <point x="651" y="64" type="curve" smooth="yes"/>
      <point x="695" y="64"/>
      <point x="735" y="95"/>
      <point x="743" y="143" type="curve" smooth="yes"/>
      <point x="751" y="191"/>
      <point x="723" y="222"/>
      <point x="679" y="222" type="curve" smooth="yes"/>
      <point x="635" y="222"/>
      <point x="596" y="191"/>
    </contour>
    <contour>
      <point x="721" y="416" type="line"/>
      <point x="830" y="416" type="line"/>
      <point x="667" y="258" type="line"/>
      <point x="653" y="254" type="line"/>
      <point x="677" y="276"/>
      <point x="696" y="279"/>
      <point x="725" y="279" type="curve" smooth="yes"/>
      <point x="789" y="279"/>
      <point x="843" y="225"/>
      <point x="829" y="143" type="curve" smooth="yes"/>
      <point x="812" y="45"/>
      <point x="728" y="-11"/>
      <point x="638" y="-11" type="curve" smooth="yes"/>
      <point x="548" y="-11"/>
      <point x="486" y="45"/>
      <point x="503" y="143" type="curve" smooth="yes"/>
      <point x="510" y="185"/>
      <point x="535" y="220"/>
      <point x="564" y="250" type="curve" smooth="yes"/>
    </contour>
  </outline>
</glyph>
<glyph name="uni215A" format="1">
  <advance width="908"/>
  <unicode hex="215A"/>
  <outline>
    <contour>
      <point x="817" y="700" type="line"/>
      <point x="922" y="700" type="line"/>
      <point x="279" y="0" type="line"/>
      <point x="174" y="0" type="line"/>
    </contour>
    <contour>
      <point x="427" y="413" type="curve" smooth="yes"/>
      <point x="410" y="316"/>
      <point x="321" y="270"/>
      <point x="240" y="270" type="curve" smooth="yes"/>
      <point x="163" y="270"/>
      <point x="119" y="301"/>
      <point x="89" y="335" type="curve"/>
      <point x="142" y="404" type="line"/>
      <point x="167" y="374"/>
      <point x="203" y="350"/>
      <point x="239" y="350" type="curve" smooth="yes"/>
      <point x="292" y="350"/>
      <point x="327" y="376"/>
      <point x="335" y="422" type="curve" smooth="yes"/>
      <point x="343" y="468"/>
      <point x="309" y="491"/>
      <point x="264" y="491" type="curve" smooth="yes"/>
      <point x="230" y="491"/>
      <point x="190" y="484"/>
      <point x="143" y="460" type="curve"/>
      <point x="210" y="508" type="line"/>
      <point x="247" y="541"/>
      <point x="285" y="552"/>
      <point x="325" y="552" type="curve" smooth="yes"/>
      <point x="393" y="552"/>
      <point x="442" y="498"/>
    </contour>
    <contour>
      <point x="293" y="623" type="line"/>
      <point x="240" y="512" type="line"/>
      <point x="143" y="460" type="line"/>
      <point x="242" y="698" type="line"/>
      <point x="471" y="698" type="line"/>
      <point x="458" y="623" type="line"/>
    </contour>
    <contour>
      <point x="667" y="143" type="curve" smooth="yes"/>
      <point x="659" y="95"/>
      <point x="686" y="64"/>
      <point x="730" y="64" type="curve" smooth="yes"/>
      <point x="774" y="64"/>
      <point x="813" y="95"/>
      <point x="821" y="143" type="curve" smooth="yes"/>
      <point x="829" y="191"/>
      <point x="802" y="222"/>
      <point x="758" y="222" type="curve" smooth="yes"/>
      <point x="714" y="222"/>
      <point x="675" y="191"/>
    </contour>
    <contour>
      <point x="799" y="416" type="line"/>
      <point x="909" y="416" type="line"/>
      <point x="746" y="258" type="line"/>
      <point x="731" y="254" type="line"/>
      <point x="755" y="276"/>
      <point x="774" y="279"/>
      <point x="803" y="279" type="curve" smooth="yes"/>
      <point x="867" y="279"/>
      <point x="921" y="225"/>
      <point x="907" y="143" type="curve" smooth="yes"/>
      <point x="890" y="45"/>
      <point x="807" y="-11"/>
      <point x="717" y="-11" type="curve" smooth="yes"/>
      <point x="627" y="-11"/>
      <point x="564" y="45"/>
      <point x="581" y="143" type="curve" smooth="yes"/>
      <point x="588" y="185"/>
      <point x="614" y="220"/>
      <point x="643" y="250" type="curve" smooth="yes"/>
    </contour>
  </outline>
</glyph>
<glyph name="threeeighths" format="1">
  <advance width="921"/>
  <unicode hex="215C"/>
  <outline>
    <contour>
      <point x="795" y="700" type="line"/>
      <point x="899" y="700" type="line"/>
      <point x="256" y="0" type="line"/>
      <point x="152" y="0" type="line"/>
    </contour>
    <contour>
      <point x="241" y="485" type="curve"/>
      <point x="248" y="526" type="line"/>
      <point x="296" y="526"/>
      <point x="332" y="555"/>
      <point x="338" y="588" type="curve" smooth="yes"/>
      <point x="343" y="618"/>
      <point x="329" y="637"/>
      <point x="294" y="637" type="curve" smooth="yes"/>
      <point x="260" y="637"/>
      <point x="232" y="614"/>
      <point x="226" y="582" type="curve"/>
      <point x="145" y="582" type="line"/>
      <point x="158" y="654"/>
      <point x="224" y="708"/>
      <point x="308" y="708" type="curve" smooth="yes"/>
      <point x="396" y="708"/>
      <point x="437" y="654"/>
      <point x="426" y="592" type="curve" smooth="yes"/>
      <point x="414" y="524"/>
      <point x="335" y="485"/>
    </contour>
    <contour>
      <point x="226" y="271" type="curve" smooth="yes"/>
      <point x="130" y="271"/>
      <point x="83" y="335"/>
      <point x="96" y="407" type="curve"/>
      <point x="182" y="407" type="line"/>
      <point x="175" y="365"/>
      <point x="202" y="343"/>
      <point x="241" y="343" type="curve" smooth="yes"/>
      <point x="280" y="343"/>
      <point x="310" y="363"/>
      <point x="317" y="402" type="curve" smooth="yes"/>
      <point x="324" y="442"/>
      <point x="297" y="467"/>
      <point x="237" y="467" type="curve"/>
      <point x="245" y="513" type="line"/>
      <point x="347" y="513"/>
      <point x="418" y="477"/>
      <point x="403" y="393" type="curve" smooth="yes"/>
      <point x="390" y="321"/>
      <point x="320" y="271"/>
    </contour>
    <contour>
      <point x="663" y="319" type="curve" smooth="yes"/>
      <point x="675" y="386"/>
      <point x="744" y="429"/>
      <point x="818" y="429" type="curve" smooth="yes"/>
      <point x="892" y="429"/>
      <point x="944" y="386"/>
      <point x="932" y="319" type="curve" smooth="yes"/>
      <point x="919" y="246"/>
      <point x="848" y="208"/>
      <point x="779" y="208" type="curve" smooth="yes"/>
      <point x="710" y="208"/>
      <point x="650" y="246"/>
    </contour>
    <contour>
      <point x="744" y="311" type="curve" smooth="yes"/>
      <point x="738" y="279"/>
      <point x="758" y="256"/>
      <point x="787" y="256" type="curve" smooth="yes"/>
      <point x="816" y="256"/>
      <point x="843" y="279"/>
      <point x="849" y="311" type="curve" smooth="yes"/>
      <point x="855" y="343"/>
      <point x="837" y="364"/>
      <point x="806" y="364" type="curve" smooth="yes"/>
      <point x="775" y="364"/>
      <point x="750" y="343"/>
    </contour>
    <contour>
      <point x="612" y="114" type="curve" smooth="yes"/>
      <point x="627" y="199"/>
      <point x="715" y="237"/>
      <point x="784" y="237" type="curve" smooth="yes"/>
      <point x="853" y="237"/>
      <point x="925" y="199"/>
      <point x="910" y="114" type="curve" smooth="yes"/>
      <point x="897" y="41"/>
      <point x="820" y="-9"/>
      <point x="740" y="-9" type="curve" smooth="yes"/>
      <point x="660" y="-9"/>
      <point x="599" y="41"/>
    </contour>
    <contour>
      <point x="700" y="127" type="curve" smooth="yes"/>
      <point x="693" y="85"/>
      <point x="719" y="62"/>
      <point x="753" y="62" type="curve" smooth="yes"/>
      <point x="787" y="62"/>
      <point x="820" y="85"/>
      <point x="827" y="127" type="curve" smooth="yes"/>
      <point x="833" y="163"/>
      <point x="809" y="189"/>
      <point x="775" y="189" type="curve" smooth="yes"/>
      <point x="741" y="189"/>
      <point x="706" y="163"/>
    </contour>
  </outline>
</glyph>
<glyph name="fiveeighths" format="1">
  <advance width="943"/>
  <unicode hex="215D"/>
  <outline>
    <contour>
      <point x="817" y="700" type="line"/>
      <point x="922" y="700" type="line"/>
      <point x="279" y="0" type="line"/>
      <point x="174" y="0" type="line"/>
    </contour>
    <contour>
      <point x="423" y="413" type="curve" smooth="yes"/>
      <point x="406" y="316"/>
      <point x="317" y="270"/>
      <point x="236" y="270" type="curve" smooth="yes"/>
      <point x="159" y="270"/>
      <point x="115" y="301"/>
      <point x="85" y="335" type="curve"/>
      <point x="137" y="404" type="line"/>
      <point x="162" y="374"/>
      <point x="198" y="350"/>
      <point x="234" y="350" type="curve" smooth="yes"/>
      <point x="287" y="350"/>
      <point x="323" y="376"/>
      <point x="331" y="422" type="curve" smooth="yes"/>
      <point x="339" y="468"/>
      <point x="304" y="491"/>
      <point x="259" y="491" type="curve" smooth="yes"/>
      <point x="225" y="491"/>
      <point x="186" y="484"/>
      <point x="139" y="460" type="curve"/>
      <point x="206" y="508" type="line"/>
      <point x="243" y="541"/>
      <point x="281" y="552"/>
      <point x="321" y="552" type="curve" smooth="yes"/>
      <point x="389" y="552"/>
      <point x="438" y="498"/>
    </contour>
    <contour>
      <point x="288" y="623" type="line"/>
      <point x="236" y="512" type="line"/>
      <point x="139" y="460" type="line"/>
      <point x="238" y="698" type="line"/>
      <point x="467" y="698" type="line"/>
      <point x="454" y="623" type="line"/>
    </contour>
    <contour>
      <point x="686" y="319" type="curve" smooth="yes"/>
      <point x="698" y="386"/>
      <point x="766" y="429"/>
      <point x="840" y="429" type="curve" smooth="yes"/>
      <point x="914" y="429"/>
      <point x="966" y="386"/>
      <point x="954" y="319" type="curve" smooth="yes"/>
      <point x="941" y="246"/>
      <point x="870" y="208"/>
      <point x="801" y="208" type="curve" smooth="yes"/>
      <point x="732" y="208"/>
      <point x="673" y="246"/>
    </contour>
    <contour>
      <point x="765" y="311" type="curve" smooth="yes"/>
      <point x="759" y="279"/>
      <point x="780" y="256"/>
      <point x="809" y="256" type="curve" smooth="yes"/>
      <point x="838" y="256"/>
      <point x="865" y="279"/>
      <point x="871" y="311" type="curve" smooth="yes"/>
      <point x="877" y="343"/>
      <point x="859" y="364"/>
      <point x="828" y="364" type="curve" smooth="yes"/>
      <point x="797" y="364"/>
      <point x="771" y="343"/>
    </contour>
    <contour>
      <point x="634" y="114" type="curve" smooth="yes"/>
      <point x="649" y="199"/>
      <point x="737" y="237"/>
      <point x="806" y="237" type="curve" smooth="yes"/>
      <point x="875" y="237"/>
      <point x="948" y="199"/>
      <point x="933" y="114" type="curve" smooth="yes"/>
      <point x="920" y="41"/>
      <point x="842" y="-9"/>
      <point x="762" y="-9" type="curve" smooth="yes"/>
      <point x="682" y="-9"/>
      <point x="621" y="41"/>
    </contour>
    <contour>
      <point x="722" y="127" type="curve" smooth="yes"/>
      <point x="715" y="85"/>
      <point x="741" y="62"/>
      <point x="775" y="62" type="curve" smooth="yes"/>
      <point x="809" y="62"/>
      <point x="843" y="85"/>
      <point x="850" y="127" type="curve" smooth="yes"/>
      <point x="856" y="163"/>
      <point x="831" y="189"/>
      <point x="797" y="189" type="curve" smooth="yes"/>
      <point x="763" y="189"/>
      <point x="728" y="163"/>
    </contour>
  </outline>
</glyph>
